<svg width="70" height="30" viewBox="0 0 70 30" fill="none" xmlns="http://www.w3.org/2000/svg">
<rect width="70" height="30" rx="8" fill="#162348"/>
<path d="M25.2852 19.1406C23.3867 19.1406 22.1328 18.2383 22.0273 16.75L22.0215 16.6621H23.2988L23.3105 16.7383C23.4277 17.5176 24.207 18.0039 25.3379 18.0039C26.4688 18.0039 27.1836 17.4941 27.1836 16.7031V16.6973C27.1836 16.0176 26.7207 15.6484 25.6016 15.4023L24.6816 15.209C23.0234 14.8574 22.2207 14.0957 22.2207 12.8418V12.8359C22.2266 11.3945 23.498 10.4043 25.2852 10.4043C27.0488 10.4043 28.2559 11.3652 28.3438 12.7832L28.3496 12.8828H27.0723L27.0664 12.8008C26.9492 12.0156 26.2695 11.541 25.2676 11.541C24.2188 11.5469 23.5508 12.0449 23.5508 12.7832V12.7891C23.5508 13.4219 24.0312 13.8086 25.0859 14.0371L26.0117 14.2305C27.7578 14.5996 28.5078 15.3086 28.5078 16.6152V16.6211C28.5078 18.1621 27.2891 19.1406 25.2852 19.1406ZM29.6914 19V10.5449H35.0586V11.6758H31.0039V14.1426H34.8418V15.2441H31.0039V17.8691H35.0586V19H29.6914ZM36.4062 19V10.5449H37.7188V17.8691H41.6562V19H36.4062ZM42.7812 19V10.5449H44.0938V17.8691H48.0312V19H42.7812Z" fill="#3571FD"/>
</svg>
