<svg width="70" height="30" viewBox="0 0 70 30" fill="none" xmlns="http://www.w3.org/2000/svg">
<rect width="70" height="30" rx="8" fill="#3571FD"/>
<path d="M24.084 19V10.5449H27.459C28.959 10.5449 29.9434 11.3828 29.9434 12.6602V12.6719C29.9434 13.5625 29.2695 14.3887 28.3789 14.5176V14.541C29.5801 14.6641 30.3594 15.4902 30.3594 16.6035V16.6152C30.3594 18.0977 29.2754 19 27.4766 19H24.084ZM27.1426 11.6172H25.3965V14.1484H26.8496C28.0098 14.1484 28.6367 13.6797 28.6367 12.8301V12.8184C28.6367 12.0449 28.0918 11.6172 27.1426 11.6172ZM27.1191 15.1621H25.3965V17.9277H27.207C28.3848 17.9277 29.0176 17.4531 29.0176 16.5508V16.5391C29.0176 15.6309 28.373 15.1621 27.1191 15.1621ZM34.918 19.1406C32.7969 19.1406 31.4902 17.8809 31.4902 16.0293V10.5449H32.8027V15.9238C32.8027 17.1543 33.5703 17.9805 34.918 17.9805C36.2656 17.9805 37.0273 17.1543 37.0273 15.9238V10.5449H38.334V16.0293C38.334 17.8809 37.0449 19.1406 34.918 19.1406ZM42.2422 19V15.5371L39.2656 10.5449H40.7246L42.8809 14.2773H42.9219L45.0781 10.5449H46.5371L43.5547 15.5371V19H42.2422Z" fill="white"/>
</svg>
