<svg width="149" height="76" viewBox="0 0 149 76" fill="none" xmlns="http://www.w3.org/2000/svg">
<rect x="0.5" y="0.5" width="148" height="75" rx="7.5" fill="#0E1330" stroke="#282D45"/>
<path d="M35.5039 25.4375C34.75 25.4375 34.0684 25.3242 33.459 25.0977C32.8496 24.8711 32.3301 24.543 31.9004 24.1133C31.4707 23.6875 31.1406 23.1738 30.9102 22.5723C30.6797 21.9707 30.5645 21.2969 30.5645 20.5508V20.5391C30.5645 19.8164 30.6797 19.1562 30.9102 18.5586C31.1445 17.9609 31.4766 17.4453 31.9062 17.0117C32.3359 16.5781 32.8457 16.2441 33.4355 16.0098C34.0293 15.7754 34.6855 15.6582 35.4043 15.6582C36.3301 15.6582 37.1445 15.8418 37.8477 16.209C38.5547 16.5723 39.1074 17.0781 39.5059 17.7266C39.9043 18.3711 40.1035 19.1172 40.1035 19.9648V19.9766C40.1035 20.6094 40.0137 21.1602 39.834 21.6289C39.6543 22.0938 39.3984 22.4551 39.0664 22.7129C38.7383 22.9668 38.3496 23.0938 37.9004 23.0938C37.5645 23.0938 37.2773 23.0078 37.0391 22.8359C36.8047 22.6602 36.6641 22.4297 36.6172 22.1445L36.6113 22.1094H36.5176C36.3926 22.4062 36.2031 22.6367 35.9492 22.8008C35.6953 22.9609 35.3965 23.041 35.0527 23.041C34.6465 23.041 34.2891 22.9375 33.9805 22.7305C33.6758 22.5195 33.4375 22.2285 33.2656 21.8574C33.0977 21.4863 33.0137 21.0527 33.0137 20.5566V20.5449C33.0137 20.0723 33.0996 19.6543 33.2715 19.291C33.4473 18.9277 33.6875 18.6445 33.9922 18.4414C34.3008 18.2344 34.6543 18.1309 35.0527 18.1309C35.3613 18.1309 35.6387 18.2051 35.8848 18.3535C36.1309 18.502 36.3105 18.7031 36.4238 18.957H36.5176V18.2422H37.4023V21.6816C37.4023 21.8848 37.459 22.0449 37.5723 22.1621C37.6895 22.2754 37.8535 22.332 38.0645 22.332C38.3105 22.332 38.5234 22.2344 38.7031 22.0391C38.8867 21.8438 39.0273 21.5684 39.125 21.2129C39.2266 20.8574 39.2773 20.4414 39.2773 19.9648V19.9531C39.2773 19.25 39.1113 18.6309 38.7793 18.0957C38.4473 17.5605 37.9844 17.1445 37.3906 16.8477C36.7969 16.5469 36.1094 16.3965 35.3281 16.3965C34.7539 16.3965 34.2266 16.5 33.7461 16.707C33.2695 16.9102 32.8535 17.1992 32.498 17.5742C32.1465 17.9492 31.873 18.3906 31.6777 18.8984C31.4863 19.4062 31.3906 19.9648 31.3906 20.5742V20.5859C31.3906 21.418 31.5605 22.1426 31.9004 22.7598C32.2402 23.373 32.7188 23.8477 33.3359 24.1836C33.9531 24.5234 34.6797 24.6934 35.5156 24.6934C35.7852 24.6934 36.0449 24.6816 36.2949 24.6582C36.5488 24.6348 36.7793 24.6016 36.9863 24.5586C37.1934 24.5156 37.3574 24.4668 37.4785 24.4121V25.1504C37.2168 25.2402 36.9141 25.3105 36.5703 25.3613C36.2305 25.4121 35.875 25.4375 35.5039 25.4375ZM35.1875 22.2148C35.5898 22.2148 35.9102 22.0664 36.1484 21.7695C36.3867 21.4727 36.5059 21.0762 36.5059 20.5801V20.5684C36.5059 20.0684 36.3867 19.6719 36.1484 19.3789C35.9141 19.0859 35.5977 18.9395 35.1992 18.9395C34.9375 18.9395 34.7129 19.0039 34.5254 19.1328C34.3418 19.2617 34.1992 19.4492 34.0977 19.6953C34 19.9375 33.9512 20.2285 33.9512 20.5684V20.5801C33.9512 20.916 34 21.207 34.0977 21.4531C34.1992 21.6992 34.3418 21.8887 34.5254 22.0215C34.7129 22.1504 34.9336 22.2148 35.1875 22.2148ZM41.8203 24.0664V15.6113H42.875V23.1172H46.9531V24.0664H41.8203ZM50.7969 24.1777C50.1953 24.1777 49.6777 24.0449 49.2441 23.7793C48.8145 23.5137 48.4824 23.1387 48.248 22.6543C48.0176 22.166 47.9023 21.5918 47.9023 20.9316V20.9258C47.9023 20.2734 48.0176 19.7012 48.248 19.209C48.4824 18.7168 48.8125 18.332 49.2383 18.0547C49.6641 17.7773 50.1621 17.6387 50.7324 17.6387C51.3066 17.6387 51.7988 17.7715 52.209 18.0371C52.623 18.3027 52.9395 18.6738 53.1582 19.1504C53.3809 19.623 53.4922 20.1738 53.4922 20.8027V21.2012H48.4297V20.3867H52.9707L52.4668 21.1309V20.7266C52.4668 20.2305 52.3926 19.8223 52.2441 19.502C52.0957 19.1816 51.8906 18.9434 51.6289 18.7871C51.3672 18.627 51.0664 18.5469 50.7266 18.5469C50.3867 18.5469 50.082 18.6309 49.8125 18.7988C49.5469 18.9629 49.3359 19.207 49.1797 19.5312C49.0234 19.8555 48.9453 20.2539 48.9453 20.7266V21.1309C48.9453 21.5801 49.0215 21.9648 49.1738 22.2852C49.3262 22.6016 49.543 22.8457 49.8242 23.0176C50.1055 23.1855 50.4375 23.2695 50.8203 23.2695C51.1055 23.2695 51.3535 23.2305 51.5645 23.1523C51.7754 23.0742 51.9492 22.9746 52.0859 22.8535C52.2227 22.7324 52.3184 22.6094 52.373 22.4844L52.3965 22.4316H53.416L53.4043 22.4785C53.3496 22.6934 53.252 22.9023 53.1113 23.1055C52.9746 23.3047 52.7969 23.4863 52.5781 23.6504C52.3594 23.8105 52.0996 23.9395 51.7988 24.0371C51.502 24.1309 51.168 24.1777 50.7969 24.1777ZM57.6699 24.1777C57.0723 24.1777 56.5547 24.0469 56.1172 23.7852C55.6836 23.5195 55.3477 23.1426 55.1094 22.6543C54.875 22.166 54.7578 21.5859 54.7578 20.9141V20.9023C54.7578 20.2266 54.875 19.6445 55.1094 19.1562C55.3477 18.668 55.6836 18.293 56.1172 18.0312C56.5547 17.7695 57.0723 17.6387 57.6699 17.6387C58.2715 17.6387 58.7891 17.7695 59.2227 18.0312C59.6562 18.293 59.9902 18.668 60.2246 19.1562C60.4629 19.6445 60.582 20.2266 60.582 20.9023V20.9141C60.582 21.5859 60.4629 22.166 60.2246 22.6543C59.9902 23.1426 59.6562 23.5195 59.2227 23.7852C58.7891 24.0469 58.2715 24.1777 57.6699 24.1777ZM57.6699 23.2754C58.0684 23.2754 58.4062 23.1816 58.6836 22.9941C58.9609 22.8066 59.1719 22.5371 59.3164 22.1855C59.4648 21.834 59.5391 21.4102 59.5391 20.9141V20.9023C59.5391 20.4023 59.4648 19.9766 59.3164 19.625C59.1719 19.2734 58.9609 19.0059 58.6836 18.8223C58.4062 18.6348 58.0684 18.541 57.6699 18.541C57.2715 18.541 56.9336 18.6348 56.6562 18.8223C56.3789 19.0059 56.166 19.2734 56.0176 19.625C55.873 19.9766 55.8008 20.4023 55.8008 20.9023V20.9141C55.8008 21.4102 55.873 21.834 56.0176 22.1855C56.166 22.5371 56.3789 22.8066 56.6562 22.9941C56.9336 23.1816 57.2715 23.2754 57.6699 23.2754ZM62.1641 24.0664V17.75H63.1836V18.7109H63.2773C63.418 18.3711 63.6328 18.1074 63.9219 17.9199C64.2148 17.7324 64.5684 17.6387 64.9824 17.6387C65.2676 17.6387 65.5234 17.6855 65.75 17.7793C65.9766 17.873 66.1719 18.0039 66.3359 18.1719C66.5 18.3359 66.6309 18.5273 66.7285 18.7461H66.8223C66.9355 18.5234 67.0879 18.3301 67.2793 18.166C67.4707 17.998 67.6914 17.8691 67.9414 17.7793C68.1953 17.6855 68.4668 17.6387 68.7559 17.6387C69.1855 17.6387 69.5488 17.7188 69.8457 17.8789C70.1465 18.0391 70.375 18.2734 70.5312 18.582C70.6875 18.8867 70.7656 19.2598 70.7656 19.7012V24.0664H69.7461V19.9355C69.7461 19.623 69.6973 19.3652 69.5996 19.1621C69.5059 18.9551 69.3613 18.8008 69.166 18.6992C68.9707 18.5938 68.7246 18.541 68.4277 18.541C68.1348 18.541 67.8789 18.6074 67.6602 18.7402C67.4414 18.873 67.2715 19.0508 67.1504 19.2734C67.0293 19.4922 66.9688 19.7363 66.9688 20.0059V24.0664H65.9492V19.7773C65.9492 19.5273 65.8945 19.3105 65.7852 19.127C65.6797 18.9395 65.5273 18.7949 65.3281 18.6934C65.1328 18.5918 64.9023 18.541 64.6367 18.541C64.3633 18.541 64.1152 18.6133 63.8926 18.7578C63.6738 18.9023 63.5 19.0977 63.3711 19.3438C63.2461 19.5859 63.1836 19.8555 63.1836 20.1523V24.0664H62.1641ZM75.1836 24.1777C74.582 24.1777 74.0645 24.0449 73.6309 23.7793C73.2012 23.5137 72.8691 23.1387 72.6348 22.6543C72.4043 22.166 72.2891 21.5918 72.2891 20.9316V20.9258C72.2891 20.2734 72.4043 19.7012 72.6348 19.209C72.8691 18.7168 73.1992 18.332 73.625 18.0547C74.0508 17.7773 74.5488 17.6387 75.1191 17.6387C75.6934 17.6387 76.1855 17.7715 76.5957 18.0371C77.0098 18.3027 77.3262 18.6738 77.5449 19.1504C77.7676 19.623 77.8789 20.1738 77.8789 20.8027V21.2012H72.8164V20.3867H77.3574L76.8535 21.1309V20.7266C76.8535 20.2305 76.7793 19.8223 76.6309 19.502C76.4824 19.1816 76.2773 18.9434 76.0156 18.7871C75.7539 18.627 75.4531 18.5469 75.1133 18.5469C74.7734 18.5469 74.4688 18.6309 74.1992 18.7988C73.9336 18.9629 73.7227 19.207 73.5664 19.5313C73.4102 19.8555 73.332 20.2539 73.332 20.7266V21.1309C73.332 21.5801 73.4082 21.9648 73.5605 22.2852C73.7129 22.6016 73.9297 22.8457 74.2109 23.0176C74.4922 23.1855 74.8242 23.2695 75.207 23.2695C75.4922 23.2695 75.7402 23.2305 75.9512 23.1523C76.1621 23.0742 76.3359 22.9746 76.4727 22.8535C76.6094 22.7324 76.7051 22.6094 76.7598 22.4844L76.7832 22.4316H77.8027L77.791 22.4785C77.7363 22.6934 77.6387 22.9023 77.498 23.1055C77.3613 23.3047 77.1836 23.4863 76.9648 23.6504C76.7461 23.8105 76.4863 23.9395 76.1855 24.0371C75.8887 24.1309 75.5547 24.1777 75.1836 24.1777ZM82.0566 24.1777C81.459 24.1777 80.9414 24.0469 80.5039 23.7852C80.0703 23.5195 79.7344 23.1426 79.4961 22.6543C79.2617 22.166 79.1445 21.5859 79.1445 20.9141V20.9023C79.1445 20.2266 79.2617 19.6445 79.4961 19.1563C79.7344 18.668 80.0703 18.293 80.5039 18.0313C80.9414 17.7695 81.459 17.6387 82.0566 17.6387C82.6582 17.6387 83.1758 17.7695 83.6094 18.0313C84.043 18.293 84.377 18.668 84.6113 19.1563C84.8496 19.6445 84.9688 20.2266 84.9688 20.9023V20.9141C84.9688 21.5859 84.8496 22.166 84.6113 22.6543C84.377 23.1426 84.043 23.5195 83.6094 23.7852C83.1758 24.0469 82.6582 24.1777 82.0566 24.1777ZM82.0566 23.2754C82.4551 23.2754 82.793 23.1816 83.0703 22.9941C83.3477 22.8066 83.5586 22.5371 83.7031 22.1855C83.8516 21.834 83.9258 21.4102 83.9258 20.9141V20.9023C83.9258 20.4023 83.8516 19.9766 83.7031 19.625C83.5586 19.2734 83.3477 19.0059 83.0703 18.8223C82.793 18.6348 82.4551 18.541 82.0566 18.541C81.6582 18.541 81.3203 18.6348 81.043 18.8223C80.7656 19.0059 80.5527 19.2734 80.4043 19.625C80.2598 19.9766 80.1875 20.4023 80.1875 20.9023V20.9141C80.1875 21.4102 80.2598 21.834 80.4043 22.1855C80.5527 22.5371 80.7656 22.8066 81.043 22.9941C81.3203 23.1816 81.6582 23.2754 82.0566 23.2754ZM86.5449 24.0664V23.3398L89.4043 20.2461C89.7637 19.8555 90.0449 19.5332 90.248 19.2793C90.4512 19.0215 90.5938 18.7891 90.6758 18.582C90.7578 18.375 90.7988 18.1484 90.7988 17.9023V17.8906C90.7988 17.5938 90.7344 17.3281 90.6055 17.0938C90.4766 16.8594 90.293 16.6738 90.0547 16.5371C89.8164 16.4004 89.5312 16.332 89.1992 16.332C88.8633 16.332 88.5684 16.4023 88.3145 16.543C88.0605 16.6797 87.8633 16.873 87.7227 17.123C87.582 17.3691 87.5117 17.6582 87.5117 17.9902L87.5059 18.002L86.498 17.9961L86.4863 17.9902C86.4902 17.4902 86.6113 17.0469 86.8496 16.6602C87.0879 16.2695 87.416 15.9648 87.834 15.7461C88.252 15.5234 88.7305 15.4121 89.2695 15.4121C89.7617 15.4121 90.2051 15.5156 90.5996 15.7227C90.9941 15.9258 91.3047 16.2051 91.5312 16.5605C91.7617 16.916 91.877 17.3223 91.877 17.7793V17.791C91.877 18.1113 91.8203 18.4199 91.707 18.7168C91.5977 19.0137 91.4023 19.3438 91.1211 19.707C90.8398 20.0664 90.4434 20.5098 89.9316 21.0371L87.7461 23.293L88.0098 22.8066V23.293L87.752 23.1172H92.0176V24.0664H86.5449ZM96.7754 24.2656C96.3887 24.2656 96.0059 24.1914 95.627 24.043C95.252 23.8945 94.9102 23.6543 94.6016 23.3223C94.2969 22.9902 94.0527 22.5527 93.8691 22.0098C93.6855 21.4629 93.5938 20.791 93.5938 19.9941V19.9824C93.5938 19.0215 93.7227 18.2012 93.9805 17.5215C94.2383 16.8379 94.6094 16.3164 95.0938 15.957C95.5781 15.5938 96.1621 15.4121 96.8457 15.4121C97.3184 15.4121 97.7441 15.5 98.123 15.6758C98.5059 15.8477 98.8242 16.0898 99.0781 16.4023C99.3359 16.7109 99.5117 17.0742 99.6055 17.4922L99.623 17.5684H98.5625L98.5391 17.5039C98.4531 17.2656 98.3301 17.0625 98.1699 16.8945C98.0137 16.7227 97.8223 16.5898 97.5957 16.4961C97.373 16.4023 97.1191 16.3555 96.834 16.3555C96.3223 16.3555 95.9062 16.5059 95.5859 16.8066C95.2656 17.1035 95.0273 17.5 94.8711 17.9961C94.7188 18.4883 94.6309 19.0293 94.6074 19.6191C94.6035 19.6699 94.6016 19.7227 94.6016 19.7773C94.6016 19.8281 94.6016 19.8809 94.6016 19.9355L94.8535 21.3418C94.8535 21.7129 94.9375 22.0488 95.1055 22.3496C95.2773 22.6504 95.5078 22.8906 95.7969 23.0703C96.0859 23.2461 96.4082 23.334 96.7637 23.334C97.1191 23.334 97.4414 23.248 97.7305 23.0762C98.0195 22.9004 98.248 22.6641 98.416 22.3672C98.5879 22.0703 98.6738 21.7402 98.6738 21.377V21.3652C98.6738 20.9902 98.5918 20.6582 98.4277 20.3691C98.2676 20.0762 98.0449 19.8477 97.7598 19.6836C97.4746 19.5156 97.1484 19.4316 96.7812 19.4316C96.418 19.4316 96.0898 19.5137 95.7969 19.6777C95.5078 19.8418 95.2773 20.0684 95.1055 20.3574C94.9375 20.6426 94.8535 20.9688 94.8535 21.3359V21.3418H94.5078V19.8184H94.7129C94.8184 19.5879 94.9746 19.373 95.1816 19.1738C95.3887 18.9746 95.6426 18.8145 95.9434 18.6934C96.2441 18.5723 96.584 18.5117 96.9629 18.5117C97.4941 18.5117 97.9688 18.6348 98.3867 18.8809C98.8047 19.127 99.1328 19.4629 99.3711 19.8887C99.6133 20.3145 99.7344 20.7988 99.7344 21.3418V21.3535C99.7344 21.916 99.6055 22.416 99.3477 22.8535C99.0938 23.291 98.7441 23.6367 98.2988 23.8906C97.8535 24.1406 97.3457 24.2656 96.7754 24.2656Z" fill="#C8B4FF"/>
<path d="M23.1367 57.791L21.6016 52.1543H22.3359L23.457 56.7363H23.5039L24.7656 52.1543H25.4766L26.7383 56.7363H26.7852L27.9062 52.1543H28.6406L27.1055 57.791H26.4414L25.1445 53.3418H25.0977L23.8008 57.791H23.1367ZM30.3906 57.8652C30.125 57.8652 29.8854 57.8145 29.6719 57.7129C29.4609 57.6113 29.293 57.4668 29.168 57.2793C29.0456 57.0918 28.9844 56.8704 28.9844 56.6152V56.6074C28.9844 56.3574 29.0443 56.1439 29.1641 55.9668C29.2839 55.7871 29.4583 55.6465 29.6875 55.5449C29.9167 55.4434 30.194 55.3835 30.5195 55.3652L32.0664 55.2715V55.8145L30.6016 55.9082C30.2812 55.9264 30.0469 55.9928 29.8984 56.1074C29.7526 56.222 29.6797 56.3835 29.6797 56.5918V56.5996C29.6797 56.8132 29.7604 56.9798 29.9219 57.0996C30.0833 57.2168 30.2865 57.2754 30.5312 57.2754C30.763 57.2754 30.9688 57.2298 31.1484 57.1387C31.3281 57.0449 31.4688 56.9186 31.5703 56.7598C31.6745 56.6009 31.7266 56.4212 31.7266 56.2207V54.9082C31.7266 54.6478 31.6471 54.4499 31.4883 54.3145C31.332 54.1764 31.0964 54.1074 30.7812 54.1074C30.5286 54.1074 30.3216 54.153 30.1602 54.2441C29.9987 54.3327 29.8906 54.459 29.8359 54.623L29.832 54.6348H29.1523L29.1562 54.6113C29.1927 54.39 29.2839 54.1973 29.4297 54.0332C29.5781 53.8665 29.7695 53.7376 30.0039 53.6465C30.2383 53.5527 30.5052 53.5059 30.8047 53.5059C31.1484 53.5059 31.4388 53.5618 31.6758 53.6738C31.9154 53.7858 32.0964 53.9473 32.2188 54.1582C32.3438 54.3665 32.4062 54.6165 32.4062 54.9082V57.791H31.7266V57.1699H31.6641C31.5755 57.3184 31.4674 57.4447 31.3398 57.5488C31.2148 57.653 31.0729 57.7324 30.9141 57.7871C30.7552 57.8392 30.5807 57.8652 30.3906 57.8652ZM33.6484 57.791V53.5801H34.3281V54.2129H34.3906C34.4974 53.9889 34.651 53.8158 34.8516 53.6934C35.0521 53.5684 35.3073 53.5059 35.6172 53.5059C36.0911 53.5059 36.4544 53.6413 36.707 53.9121C36.9622 54.1803 37.0898 54.5645 37.0898 55.0645V57.791H36.4102V55.2285C36.4102 54.8483 36.3294 54.5671 36.168 54.3848C36.0091 54.1999 35.7617 54.1074 35.4258 54.1074C35.2018 54.1074 35.0078 54.1556 34.8438 54.252C34.6797 54.3483 34.5521 54.485 34.4609 54.6621C34.3724 54.8392 34.3281 55.0514 34.3281 55.2988V57.791H33.6484ZM39.8164 57.8223C39.3841 57.8223 39.0703 57.735 38.875 57.5605C38.6823 57.3861 38.5859 57.0983 38.5859 56.6973V54.1426H37.9219V53.5801H38.5859V52.4902H39.2891V53.5801H40.2109V54.1426H39.2891V56.5254C39.2891 56.7728 39.3359 56.9512 39.4297 57.0605C39.5234 57.1673 39.6797 57.2207 39.8984 57.2207C39.9583 57.2207 40.0091 57.2194 40.0508 57.2168C40.0951 57.2142 40.1484 57.2103 40.2109 57.2051V57.7832C40.1458 57.7936 40.0807 57.8027 40.0156 57.8105C39.9505 57.8184 39.8841 57.8223 39.8164 57.8223ZM44.9727 57.8223C44.5404 57.8223 44.2266 57.735 44.0312 57.5605C43.8385 57.3861 43.7422 57.0983 43.7422 56.6973V54.1426H43.0781V53.5801H43.7422V52.4902H44.4453V53.5801H45.3672V54.1426H44.4453V56.5254C44.4453 56.7728 44.4922 56.9512 44.5859 57.0605C44.6797 57.1673 44.8359 57.2207 45.0547 57.2207C45.1146 57.2207 45.1654 57.2194 45.207 57.2168C45.2513 57.2142 45.3047 57.2103 45.3672 57.2051V57.7832C45.3021 57.7936 45.237 57.8027 45.1719 57.8105C45.1068 57.8184 45.0404 57.8223 44.9727 57.8223ZM48.0586 57.8652C47.6602 57.8652 47.3151 57.778 47.0234 57.6035C46.7344 57.4264 46.5104 57.1751 46.3516 56.8496C46.1953 56.5241 46.1172 56.1374 46.1172 55.6895V55.6816C46.1172 55.2311 46.1953 54.8431 46.3516 54.5176C46.5104 54.1921 46.7344 53.9421 47.0234 53.7676C47.3151 53.5931 47.6602 53.5059 48.0586 53.5059C48.4596 53.5059 48.8047 53.5931 49.0938 53.7676C49.3828 53.9421 49.6055 54.1921 49.7617 54.5176C49.9206 54.8431 50 55.2311 50 55.6816V55.6895C50 56.1374 49.9206 56.5241 49.7617 56.8496C49.6055 57.1751 49.3828 57.4264 49.0938 57.6035C48.8047 57.778 48.4596 57.8652 48.0586 57.8652ZM48.0586 57.2637C48.3242 57.2637 48.5495 57.2012 48.7344 57.0762C48.9193 56.9512 49.0599 56.7715 49.1562 56.5371C49.2552 56.3027 49.3047 56.0202 49.3047 55.6895V55.6816C49.3047 55.3483 49.2552 55.0645 49.1562 54.8301C49.0599 54.5957 48.9193 54.4173 48.7344 54.2949C48.5495 54.1699 48.3242 54.1074 48.0586 54.1074C47.793 54.1074 47.5677 54.1699 47.3828 54.2949C47.1979 54.4173 47.056 54.5957 46.957 54.8301C46.8607 55.0645 46.8125 55.3483 46.8125 55.6816V55.6895C46.8125 56.0202 46.8607 56.3027 46.957 56.5371C47.056 56.7715 47.1979 56.9512 47.3828 57.0762C47.5677 57.2012 47.793 57.2637 48.0586 57.2637ZM53.3047 57.791V53.5801H53.9844V54.2051H54.0469C54.1276 53.9837 54.2643 53.8118 54.457 53.6895C54.6497 53.5671 54.888 53.5059 55.1719 53.5059C55.237 53.5059 55.3008 53.5098 55.3633 53.5176C55.4284 53.5228 55.4779 53.528 55.5117 53.5332V54.1934C55.4414 54.1803 55.3724 54.1712 55.3047 54.166C55.2396 54.1582 55.1693 54.1543 55.0938 54.1543C54.8776 54.1543 54.6862 54.1973 54.5195 54.2832C54.3529 54.3691 54.2214 54.4889 54.125 54.6426C54.0312 54.7962 53.9844 54.9759 53.9844 55.1816V57.791H53.3047ZM57.9531 57.8652C57.5521 57.8652 57.207 57.7767 56.918 57.5996C56.6315 57.4225 56.4102 57.1725 56.2539 56.8496C56.1003 56.5241 56.0234 56.1413 56.0234 55.7012V55.6973C56.0234 55.2624 56.1003 54.8809 56.2539 54.5527C56.4102 54.2246 56.6302 53.9681 56.9141 53.7832C57.1979 53.5983 57.5299 53.5059 57.9102 53.5059C58.293 53.5059 58.6211 53.5944 58.8945 53.7715C59.1706 53.9486 59.3815 54.196 59.5273 54.5137C59.6758 54.8288 59.75 55.196 59.75 55.6152V55.8809H56.375V55.3379H59.4023L59.0664 55.834V55.5645C59.0664 55.2337 59.0169 54.9616 58.918 54.748C58.819 54.5345 58.6823 54.3757 58.5078 54.2715C58.3333 54.1647 58.1328 54.1113 57.9062 54.1113C57.6797 54.1113 57.4766 54.1673 57.2969 54.2793C57.1198 54.3887 56.9792 54.5514 56.875 54.7676C56.7708 54.9837 56.7188 55.2493 56.7188 55.5645V55.834C56.7188 56.1335 56.7695 56.39 56.8711 56.6035C56.9727 56.8145 57.1172 56.9772 57.3047 57.0918C57.4922 57.2038 57.7135 57.2598 57.9688 57.2598C58.1589 57.2598 58.3242 57.2337 58.4648 57.1816C58.6055 57.1296 58.7214 57.0632 58.8125 56.9824C58.9036 56.9017 58.9674 56.8197 59.0039 56.7363L59.0195 56.7012H59.6992L59.6914 56.7324C59.6549 56.8757 59.5898 57.015 59.4961 57.1504C59.4049 57.2832 59.2865 57.4043 59.1406 57.5137C58.9948 57.6204 58.8216 57.7064 58.6211 57.7715C58.4232 57.834 58.2005 57.8652 57.9531 57.8652ZM60.8047 59.1973V53.5801H61.4844V54.252H61.5469C61.6328 54.0957 61.7409 53.9629 61.8711 53.8535C62.0013 53.7415 62.1497 53.6556 62.3164 53.5957C62.4831 53.5358 62.6641 53.5059 62.8594 53.5059C63.2161 53.5059 63.526 53.597 63.7891 53.7793C64.0547 53.959 64.2604 54.2116 64.4062 54.5371C64.5521 54.8626 64.625 55.2441 64.625 55.6816V55.6895C64.625 56.1296 64.5521 56.5124 64.4062 56.8379C64.2604 57.1634 64.0547 57.416 63.7891 57.5957C63.526 57.7754 63.2161 57.8652 62.8594 57.8652C62.6667 57.8652 62.4844 57.8353 62.3125 57.7754C62.1432 57.7129 61.9922 57.627 61.8594 57.5176C61.7292 57.4082 61.625 57.278 61.5469 57.127H61.4844V59.1973H60.8047ZM62.7031 57.2637C62.9609 57.2637 63.181 57.2012 63.3633 57.0762C63.5456 56.9486 63.6849 56.7676 63.7812 56.5332C63.8802 56.2962 63.9297 56.015 63.9297 55.6895V55.6816C63.9297 55.3535 63.8802 55.0723 63.7812 54.8379C63.6849 54.6035 63.5456 54.4238 63.3633 54.2988C63.181 54.1712 62.9609 54.1074 62.7031 54.1074C62.4479 54.1074 62.2279 54.1712 62.043 54.2988C61.8581 54.4264 61.7161 54.6074 61.6172 54.8418C61.5182 55.0762 61.4688 55.3561 61.4688 55.6816V55.6895C61.4688 56.0124 61.5182 56.2923 61.6172 56.5293C61.7161 56.7637 61.8581 56.9447 62.043 57.0723C62.2279 57.1999 62.4479 57.2637 62.7031 57.2637ZM65.7266 57.791V51.9082H66.4062V57.791H65.7266ZM67.7266 57.791V53.5801H68.4062V57.791H67.7266ZM68.0703 52.7676C67.9427 52.7676 67.832 52.722 67.7383 52.6309C67.6471 52.5371 67.6016 52.4264 67.6016 52.2988C67.6016 52.1686 67.6471 52.0579 67.7383 51.9668C67.832 51.8757 67.9427 51.8301 68.0703 51.8301C68.2005 51.8301 68.3112 51.8757 68.4023 51.9668C68.4935 52.0579 68.5391 52.1686 68.5391 52.2988C68.5391 52.4264 68.4935 52.5371 68.4023 52.6309C68.3112 52.722 68.2005 52.7676 68.0703 52.7676ZM71.4102 57.8652C71.0169 57.8652 70.6758 57.7754 70.3867 57.5957C70.0977 57.416 69.8737 57.1621 69.7148 56.834C69.556 56.5059 69.4766 56.1191 69.4766 55.6738V55.666C69.4766 55.2285 69.5547 54.8483 69.7109 54.5254C69.8698 54.2025 70.0938 53.9525 70.3828 53.7754C70.6719 53.5957 71.013 53.5059 71.4062 53.5059C71.7474 53.5059 72.0417 53.5658 72.2891 53.6855C72.5365 53.8053 72.7344 53.9668 72.8828 54.1699C73.0312 54.3704 73.1263 54.5957 73.168 54.8457L73.1719 54.8691H72.4961L72.4922 54.8574C72.4401 54.6491 72.3216 54.472 72.1367 54.3262C71.9518 54.1803 71.7083 54.1074 71.4062 54.1074C71.1536 54.1074 70.9349 54.1712 70.75 54.2988C70.5651 54.4264 70.4219 54.6074 70.3203 54.8418C70.2214 55.0736 70.1719 55.3483 70.1719 55.666V55.6738C70.1719 55.9967 70.2227 56.278 70.3242 56.5176C70.4258 56.7546 70.569 56.9382 70.7539 57.0684C70.9388 57.1986 71.1562 57.2637 71.4062 57.2637C71.6901 57.2637 71.9219 57.2025 72.1016 57.0801C72.2812 56.9577 72.4102 56.7793 72.4883 56.5449L72.4961 56.5215L73.168 56.5176L73.1602 56.5605C73.1029 56.8132 73.0013 57.0384 72.8555 57.2363C72.7096 57.4316 72.5169 57.5853 72.2773 57.6973C72.0378 57.8092 71.7487 57.8652 71.4102 57.8652ZM75.3203 57.8652C75.0547 57.8652 74.8151 57.8145 74.6016 57.7129C74.3906 57.6113 74.2227 57.4668 74.0977 57.2793C73.9753 57.0918 73.9141 56.8704 73.9141 56.6152V56.6074C73.9141 56.3574 73.974 56.1439 74.0938 55.9668C74.2135 55.7871 74.388 55.6465 74.6172 55.5449C74.8464 55.4434 75.1237 55.3835 75.4492 55.3652L76.9961 55.2715V55.8145L75.5312 55.9082C75.2109 55.9264 74.9766 55.9928 74.8281 56.1074C74.6823 56.222 74.6094 56.3835 74.6094 56.5918V56.5996C74.6094 56.8132 74.6901 56.9798 74.8516 57.0996C75.013 57.2168 75.2161 57.2754 75.4609 57.2754C75.6927 57.2754 75.8984 57.2298 76.0781 57.1387C76.2578 57.0449 76.3984 56.9186 76.5 56.7598C76.6042 56.6009 76.6562 56.4212 76.6562 56.2207V54.9082C76.6562 54.6478 76.5768 54.4499 76.418 54.3145C76.2617 54.1764 76.026 54.1074 75.7109 54.1074C75.4583 54.1074 75.2513 54.153 75.0898 54.2441C74.9284 54.3327 74.8203 54.459 74.7656 54.623L74.7617 54.6348H74.082L74.0859 54.6113C74.1224 54.39 74.2135 54.1973 74.3594 54.0332C74.5078 53.8665 74.6992 53.7376 74.9336 53.6465C75.168 53.5527 75.4349 53.5059 75.7344 53.5059C76.0781 53.5059 76.3685 53.5618 76.6055 53.6738C76.8451 53.7858 77.026 53.9473 77.1484 54.1582C77.2734 54.3665 77.3359 54.6165 77.3359 54.9082V57.791H76.6562V57.1699H76.5938C76.5052 57.3184 76.3971 57.4447 76.2695 57.5488C76.1445 57.653 76.0026 57.7324 75.8438 57.7871C75.6849 57.8392 75.5104 57.8652 75.3203 57.8652ZM80.0742 57.8223C79.6419 57.8223 79.3281 57.735 79.1328 57.5605C78.9401 57.3861 78.8438 57.0983 78.8438 56.6973V54.1426H78.1797V53.5801H78.8438V52.4902H79.5469V53.5801H80.4688V54.1426H79.5469V56.5254C79.5469 56.7728 79.5938 56.9512 79.6875 57.0605C79.7812 57.1673 79.9375 57.2207 80.1562 57.2207C80.2161 57.2207 80.2669 57.2194 80.3086 57.2168C80.3529 57.2142 80.4062 57.2103 80.4688 57.2051V57.7832C80.4036 57.7936 80.3385 57.8027 80.2734 57.8105C80.2083 57.8184 80.1419 57.8223 80.0742 57.8223ZM83.1484 57.8652C82.7474 57.8652 82.4023 57.7767 82.1133 57.5996C81.8268 57.4225 81.6055 57.1725 81.4492 56.8496C81.2956 56.5241 81.2188 56.1413 81.2188 55.7012V55.6973C81.2188 55.2624 81.2956 54.8809 81.4492 54.5527C81.6055 54.2246 81.8255 53.9681 82.1094 53.7832C82.3932 53.5983 82.7253 53.5059 83.1055 53.5059C83.4883 53.5059 83.8164 53.5944 84.0898 53.7715C84.3659 53.9486 84.5768 54.196 84.7227 54.5137C84.8711 54.8288 84.9453 55.196 84.9453 55.6152V55.8809H81.5703V55.3379H84.5977L84.2617 55.834V55.5645C84.2617 55.2337 84.2122 54.9616 84.1133 54.748C84.0143 54.5345 83.8776 54.3757 83.7031 54.2715C83.5286 54.1647 83.3281 54.1113 83.1016 54.1113C82.875 54.1113 82.6719 54.1673 82.4922 54.2793C82.3151 54.3887 82.1745 54.5514 82.0703 54.7676C81.9661 54.9837 81.9141 55.2493 81.9141 55.5645V55.834C81.9141 56.1335 81.9648 56.39 82.0664 56.6035C82.168 56.8145 82.3125 56.9772 82.5 57.0918C82.6875 57.2038 82.9089 57.2598 83.1641 57.2598C83.3542 57.2598 83.5195 57.2337 83.6602 57.1816C83.8008 57.1296 83.9167 57.0632 84.0078 56.9824C84.099 56.9017 84.1628 56.8197 84.1992 56.7363L84.2148 56.7012H84.8945L84.8867 56.7324C84.8503 56.8757 84.7852 57.015 84.6914 57.1504C84.6003 57.2832 84.4818 57.4043 84.3359 57.5137C84.1901 57.6204 84.0169 57.7064 83.8164 57.7715C83.6185 57.834 83.3958 57.8652 83.1484 57.8652ZM89.7461 57.8223C89.3138 57.8223 89 57.735 88.8047 57.5605C88.612 57.3861 88.5156 57.0983 88.5156 56.6973V54.1426H87.8516V53.5801H88.5156V52.4902H89.2188V53.5801H90.1406V54.1426L89.2188 54.1426V56.5254C89.2188 56.7728 89.2656 56.9512 89.3594 57.0605C89.4531 57.1673 89.6094 57.2207 89.8281 57.2207C89.888 57.2207 89.9388 57.2194 89.9805 57.2168C90.0247 57.2142 90.0781 57.2103 90.1406 57.2051V57.7832C90.0755 57.7936 90.0104 57.8027 89.9453 57.8105C89.8802 57.8184 89.8138 57.8223 89.7461 57.8223ZM91.1953 57.791V51.9082H91.875V54.2129H91.9375C92.0443 53.9889 92.1979 53.8158 92.3984 53.6934C92.599 53.5684 92.8542 53.5059 93.1641 53.5059C93.4792 53.5059 93.7461 53.5671 93.9648 53.6895C94.1836 53.8092 94.3503 53.985 94.4648 54.2168C94.5794 54.4486 94.6367 54.7311 94.6367 55.0645V57.791H93.957V55.2285C93.957 54.8483 93.8763 54.5671 93.7148 54.3848C93.556 54.1999 93.3086 54.1074 92.9727 54.1074C92.7487 54.1074 92.5547 54.1556 92.3906 54.252C92.2266 54.3483 92.099 54.485 92.0078 54.6621C91.9193 54.8392 91.875 55.0514 91.875 55.2988V57.791H91.1953ZM97.5859 57.8652C97.1849 57.8652 96.8398 57.7767 96.5508 57.5996C96.2643 57.4225 96.043 57.1725 95.8867 56.8496C95.7331 56.5241 95.6562 56.1413 95.6562 55.7012V55.6973C95.6562 55.2624 95.7331 54.8809 95.8867 54.5527C96.043 54.2246 96.263 53.9681 96.5469 53.7832C96.8307 53.5983 97.1628 53.5059 97.543 53.5059C97.9258 53.5059 98.2539 53.5944 98.5273 53.7715C98.8034 53.9486 99.0143 54.196 99.1602 54.5137C99.3086 54.8288 99.3828 55.196 99.3828 55.6152V55.8809H96.0078V55.3379H99.0352L98.6992 55.834V55.5645C98.6992 55.2337 98.6497 54.9616 98.5508 54.748C98.4518 54.5345 98.3151 54.3757 98.1406 54.2715C97.9661 54.1647 97.7656 54.1113 97.5391 54.1113C97.3125 54.1113 97.1094 54.1673 96.9297 54.2793C96.7526 54.3887 96.612 54.5514 96.5078 54.7676C96.4036 54.9837 96.3516 55.2493 96.3516 55.5645V55.834C96.3516 56.1335 96.4023 56.39 96.5039 56.6035C96.6055 56.8145 96.75 56.9772 96.9375 57.0918C97.125 57.2038 97.3464 57.2598 97.6016 57.2598C97.7917 57.2598 97.957 57.2337 98.0977 57.1816C98.2383 57.1296 98.3542 57.0632 98.4453 56.9824C98.5365 56.9017 98.6003 56.8197 98.6367 56.7363L98.6523 56.7012H99.332L99.3242 56.7324C99.2878 56.8757 99.2227 57.015 99.1289 57.1504C99.0378 57.2832 98.9193 57.4043 98.7734 57.5137C98.6276 57.6204 98.4544 57.7064 98.2539 57.7715C98.056 57.834 97.8333 57.8652 97.5859 57.8652ZM103.844 57.8652C103.578 57.8652 103.339 57.8145 103.125 57.7129C102.914 57.6113 102.746 57.4668 102.621 57.2793C102.499 57.0918 102.438 56.8704 102.438 56.6152V56.6074C102.438 56.3574 102.497 56.1439 102.617 55.9668C102.737 55.7871 102.911 55.6465 103.141 55.5449C103.37 55.4434 103.647 55.3835 103.973 55.3652L105.52 55.2715V55.8145L104.055 55.9082C103.734 55.9264 103.5 55.9928 103.352 56.1074C103.206 56.222 103.133 56.3835 103.133 56.5918V56.5996C103.133 56.8132 103.214 56.9798 103.375 57.0996C103.536 57.2168 103.74 57.2754 103.984 57.2754C104.216 57.2754 104.422 57.2298 104.602 57.1387C104.781 57.0449 104.922 56.9186 105.023 56.7598C105.128 56.6009 105.18 56.4212 105.18 56.2207V54.9082C105.18 54.6478 105.1 54.4499 104.941 54.3145C104.785 54.1764 104.549 54.1074 104.234 54.1074C103.982 54.1074 103.775 54.153 103.613 54.2441C103.452 54.3327 103.344 54.459 103.289 54.623L103.285 54.6348H102.605L102.609 54.6113C102.646 54.39 102.737 54.1973 102.883 54.0332C103.031 53.8665 103.223 53.7376 103.457 53.6465C103.691 53.5527 103.958 53.5059 104.258 53.5059C104.602 53.5059 104.892 53.5618 105.129 53.6738C105.368 53.7858 105.549 53.9473 105.672 54.1582C105.797 54.3665 105.859 54.6165 105.859 54.9082V57.791H105.18V57.1699H105.117C105.029 57.3184 104.921 57.4447 104.793 57.5488C104.668 57.653 104.526 57.7324 104.367 57.7871C104.208 57.8392 104.034 57.8652 103.844 57.8652ZM108.824 57.8652C108.431 57.8652 108.09 57.7754 107.801 57.5957C107.512 57.416 107.288 57.1621 107.129 56.834C106.97 56.5059 106.891 56.1191 106.891 55.6738V55.666C106.891 55.2285 106.969 54.8483 107.125 54.5254C107.284 54.2025 107.508 53.9525 107.797 53.7754C108.086 53.5957 108.427 53.5059 108.82 53.5059C109.161 53.5059 109.456 53.5658 109.703 53.6855C109.951 53.8053 110.148 53.9668 110.297 54.1699C110.445 54.3704 110.54 54.5957 110.582 54.8457L110.586 54.8691H109.91L109.906 54.8574C109.854 54.6491 109.736 54.472 109.551 54.3262C109.366 54.1803 109.122 54.1074 108.82 54.1074C108.568 54.1074 108.349 54.1712 108.164 54.2988C107.979 54.4264 107.836 54.6074 107.734 54.8418C107.635 55.0736 107.586 55.3483 107.586 55.666V55.6738C107.586 55.9967 107.637 56.278 107.738 56.5176C107.84 56.7546 107.983 56.9382 108.168 57.0684C108.353 57.1986 108.57 57.2637 108.82 57.2637C109.104 57.2637 109.336 57.2025 109.516 57.0801C109.695 56.9577 109.824 56.7793 109.902 56.5449L109.91 56.5215L110.582 56.5176L110.574 56.5605C110.517 56.8132 110.415 57.0384 110.27 57.2363C110.124 57.4316 109.931 57.5853 109.691 57.6973C109.452 57.8092 109.163 57.8652 108.824 57.8652ZM113.152 57.8223C112.72 57.8223 112.406 57.735 112.211 57.5605C112.018 57.3861 111.922 57.0983 111.922 56.6973V54.1426H111.258V53.5801H111.922V52.4902H112.625V53.5801H113.547V54.1426H112.625V56.5254C112.625 56.7728 112.672 56.9512 112.766 57.0605C112.859 57.1673 113.016 57.2207 113.234 57.2207C113.294 57.2207 113.345 57.2194 113.387 57.2168C113.431 57.2142 113.484 57.2103 113.547 57.2051V57.7832C113.482 57.7936 113.417 57.8027 113.352 57.8105C113.286 57.8184 113.22 57.8223 113.152 57.8223ZM114.578 57.791V53.5801H115.258V57.791H114.578ZM114.922 52.7676C114.794 52.7676 114.684 52.722 114.59 52.6309C114.499 52.5371 114.453 52.4264 114.453 52.2988C114.453 52.1686 114.499 52.0579 114.59 51.9668C114.684 51.8757 114.794 51.8301 114.922 51.8301C115.052 51.8301 115.163 51.8757 115.254 51.9668C115.345 52.0579 115.391 52.1686 115.391 52.2988C115.391 52.4264 115.345 52.5371 115.254 52.6309C115.163 52.722 115.052 52.7676 114.922 52.7676ZM118.27 57.8652C117.871 57.8652 117.526 57.778 117.234 57.6035C116.945 57.4264 116.721 57.1751 116.562 56.8496C116.406 56.5241 116.328 56.1374 116.328 55.6895V55.6816C116.328 55.2311 116.406 54.8431 116.562 54.5176C116.721 54.1921 116.945 53.9421 117.234 53.7676C117.526 53.5931 117.871 53.5059 118.27 53.5059C118.671 53.5059 119.016 53.5931 119.305 53.7676C119.594 53.9421 119.816 54.1921 119.973 54.5176C120.132 54.8431 120.211 55.2311 120.211 55.6816V55.6895C120.211 56.1374 120.132 56.5241 119.973 56.8496C119.816 57.1751 119.594 57.4264 119.305 57.6035C119.016 57.778 118.671 57.8652 118.27 57.8652ZM118.27 57.2637C118.535 57.2637 118.76 57.2012 118.945 57.0762C119.13 56.9512 119.271 56.7715 119.367 56.5371C119.466 56.3027 119.516 56.0202 119.516 55.6895V55.6816C119.516 55.3483 119.466 55.0645 119.367 54.8301C119.271 54.5957 119.13 54.4173 118.945 54.2949C118.76 54.1699 118.535 54.1074 118.27 54.1074C118.004 54.1074 117.779 54.1699 117.594 54.2949C117.409 54.4173 117.267 54.5957 117.168 54.8301C117.072 55.0645 117.023 55.3483 117.023 55.6816V55.6895C117.023 56.0202 117.072 56.3027 117.168 56.5371C117.267 56.7715 117.409 56.9512 117.594 57.0762C117.779 57.2012 118.004 57.2637 118.27 57.2637ZM121.266 57.791V53.5801H121.945V54.2129H122.008C122.115 53.9889 122.268 53.8158 122.469 53.6934C122.669 53.5684 122.924 53.5059 123.234 53.5059C123.708 53.5059 124.072 53.6413 124.324 53.9121C124.579 54.1803 124.707 54.5645 124.707 55.0645V57.791H124.027V55.2285C124.027 54.8483 123.947 54.5671 123.785 54.3848C123.626 54.1999 123.379 54.1074 123.043 54.1074C122.819 54.1074 122.625 54.1556 122.461 54.252C122.297 54.3483 122.169 54.485 122.078 54.6621C121.99 54.8392 121.945 55.0514 121.945 55.2988V57.791H121.266ZM126.84 56.0488V55.6895C126.84 55.5176 126.867 55.3626 126.922 55.2246C126.977 55.084 127.062 54.9551 127.18 54.8379C127.297 54.7207 127.444 54.6087 127.621 54.502C127.772 54.4082 127.893 54.3171 127.984 54.2285C128.078 54.1374 128.146 54.0384 128.188 53.9316C128.229 53.8249 128.25 53.7025 128.25 53.5645V53.5566C128.25 53.3952 128.211 53.252 128.133 53.127C128.055 53.002 127.944 52.903 127.801 52.8301C127.658 52.7572 127.488 52.7207 127.293 52.7207C127.098 52.7207 126.927 52.7572 126.781 52.8301C126.635 52.903 126.52 53.0072 126.434 53.1426C126.35 53.278 126.302 53.4382 126.289 53.623L126.281 53.627L125.617 53.6309V53.623C125.633 53.3444 125.706 53.0905 125.836 52.8613C125.966 52.6322 126.155 52.4499 126.402 52.3145C126.65 52.179 126.956 52.1113 127.32 52.1113C127.648 52.1113 127.936 52.1738 128.184 52.2988C128.434 52.4212 128.628 52.5892 128.766 52.8027C128.906 53.0137 128.977 53.2533 128.977 53.5215V53.5293C128.977 53.7324 128.943 53.9173 128.875 54.084C128.81 54.248 128.716 54.3952 128.594 54.5254C128.471 54.6556 128.327 54.7715 128.16 54.873C127.996 54.9694 127.867 55.0618 127.773 55.1504C127.682 55.2389 127.617 55.334 127.578 55.4355C127.542 55.5371 127.523 55.6569 127.523 55.7949V56.0488H126.84ZM127.234 57.8613C127.076 57.8613 126.945 57.8105 126.844 57.709C126.742 57.6074 126.691 57.4772 126.691 57.3184C126.691 57.1569 126.742 57.0254 126.844 56.9238C126.945 56.8223 127.076 56.7715 127.234 56.7715C127.393 56.7715 127.522 56.8223 127.621 56.9238C127.723 57.0254 127.773 57.1569 127.773 57.3184C127.773 57.4772 127.723 57.6074 127.621 57.709C127.522 57.8105 127.393 57.8613 127.234 57.8613Z" fill="white"/>
<path d="M41.0566 42.8945V42.1182H43.2344C43.765 42.1182 44.167 42.0124 44.4404 41.8008C44.7139 41.5892 44.8506 41.2816 44.8506 40.8779V40.8682C44.8506 40.598 44.7871 40.3717 44.6602 40.1895C44.5332 40.0072 44.3428 39.8704 44.0889 39.7793C43.8382 39.6882 43.5257 39.6426 43.1514 39.6426H41.0566V38.8857H42.9023C43.4362 38.8857 43.8366 38.7913 44.1035 38.6025C44.3737 38.4137 44.5088 38.1338 44.5088 37.7627V37.7529C44.5088 37.3949 44.3867 37.1182 44.1426 36.9229C43.9017 36.7243 43.5632 36.625 43.127 36.625H41.0566V35.8486H43.3125C43.7454 35.8486 44.1165 35.9202 44.4258 36.0635C44.7383 36.2067 44.9775 36.4102 45.1436 36.6738C45.3128 36.9342 45.3975 37.2435 45.3975 37.6016V37.6113C45.3975 37.8555 45.3421 38.085 45.2314 38.2998C45.124 38.5146 44.9792 38.6953 44.7969 38.8418C44.6146 38.9883 44.4095 39.0827 44.1816 39.125V39.2031C44.5039 39.2422 44.7822 39.3382 45.0166 39.4912C45.251 39.6442 45.4316 39.8428 45.5586 40.0869C45.6888 40.3278 45.7539 40.6029 45.7539 40.9121V40.9219C45.7539 41.332 45.6579 41.6852 45.4658 41.9814C45.277 42.2744 45.0052 42.5007 44.6504 42.6602C44.2956 42.8164 43.8675 42.8945 43.3662 42.8945H41.0566ZM40.6172 42.8945V35.8486H41.4961V42.8945H40.6172ZM49.2451 42.9873C48.7471 42.9873 48.3158 42.8783 47.9512 42.6602C47.5898 42.4388 47.3099 42.1247 47.1113 41.7178C46.916 41.3109 46.8184 40.8275 46.8184 40.2676V40.2578C46.8184 39.6947 46.916 39.2096 47.1113 38.8027C47.3099 38.3958 47.5898 38.0833 47.9512 37.8652C48.3158 37.6471 48.7471 37.5381 49.2451 37.5381C49.7464 37.5381 50.1777 37.6471 50.5391 37.8652C50.9004 38.0833 51.1787 38.3958 51.374 38.8027C51.5726 39.2096 51.6719 39.6947 51.6719 40.2578V40.2676C51.6719 40.8275 51.5726 41.3109 51.374 41.7178C51.1787 42.1247 50.9004 42.4388 50.5391 42.6602C50.1777 42.8783 49.7464 42.9873 49.2451 42.9873ZM49.2451 42.2354C49.5771 42.2354 49.8587 42.1572 50.0898 42.001C50.321 41.8447 50.4967 41.6201 50.6172 41.3271C50.7409 41.0342 50.8027 40.681 50.8027 40.2676V40.2578C50.8027 39.8411 50.7409 39.4863 50.6172 39.1934C50.4967 38.9004 50.321 38.6774 50.0898 38.5244C49.8587 38.3682 49.5771 38.29 49.2451 38.29C48.9131 38.29 48.6315 38.3682 48.4004 38.5244C48.1693 38.6774 47.9919 38.9004 47.8682 39.1934C47.7477 39.4863 47.6875 39.8411 47.6875 40.2578V40.2676C47.6875 40.681 47.7477 41.0342 47.8682 41.3271C47.9919 41.6201 48.1693 41.8447 48.4004 42.001C48.6315 42.1572 48.9131 42.2354 49.2451 42.2354ZM54.7529 42.9873C54.3558 42.9873 54.0221 42.9124 53.752 42.7627C53.4818 42.6097 53.2783 42.3883 53.1416 42.0986C53.0081 41.8057 52.9414 41.4525 52.9414 41.0391V37.6309H53.791V40.834C53.791 41.306 53.8822 41.6576 54.0645 41.8887C54.25 42.1198 54.5527 42.2354 54.9727 42.2354C55.2038 42.2354 55.4072 42.2012 55.583 42.1328C55.762 42.0645 55.9118 41.9668 56.0322 41.8398C56.1527 41.7096 56.2422 41.5534 56.3008 41.3711C56.3626 41.1855 56.3936 40.9772 56.3936 40.7461V37.6309H57.2432V42.8945H56.3936V42.1084H56.3154C56.2308 42.2939 56.1152 42.4535 55.9688 42.5869C55.8223 42.7171 55.6465 42.8164 55.4414 42.8848C55.2396 42.9531 55.0101 42.9873 54.7529 42.9873ZM60.998 44.75C60.5749 44.75 60.2054 44.6898 59.8896 44.5693C59.5739 44.4521 59.3216 44.2845 59.1328 44.0664C58.9473 43.8516 58.8317 43.6009 58.7861 43.3145L58.7959 43.3096H59.6748L59.6797 43.3145C59.7253 43.513 59.862 43.6758 60.0898 43.8027C60.3177 43.9329 60.6204 43.998 60.998 43.998C61.4701 43.998 61.8379 43.8906 62.1016 43.6758C62.3685 43.4642 62.502 43.1647 62.502 42.7773V41.7129H62.4238C62.3132 41.9049 62.1748 42.0693 62.0088 42.2061C61.8428 42.3428 61.6556 42.4469 61.4473 42.5186C61.2389 42.5869 61.0143 42.6211 60.7734 42.6211C60.321 42.6211 59.9287 42.5137 59.5967 42.2988C59.2679 42.0807 59.014 41.7812 58.835 41.4004C58.6559 41.0195 58.5664 40.5833 58.5664 40.0918V40.082C58.5664 39.5905 58.6559 39.1543 58.835 38.7734C59.0173 38.3893 59.2744 38.0882 59.6064 37.8701C59.9385 37.6488 60.334 37.5381 60.793 37.5381C61.0404 37.5381 61.2682 37.5771 61.4766 37.6553C61.6849 37.7334 61.8688 37.8441 62.0283 37.9873C62.1911 38.1305 62.3262 38.3014 62.4336 38.5H62.4922V37.6309H63.3418V42.8213C63.3418 43.2119 63.2458 43.5521 63.0537 43.8418C62.8649 44.1315 62.5947 44.3545 62.2432 44.5107C61.8916 44.6702 61.4766 44.75 60.998 44.75ZM60.959 41.8691C61.2845 41.8691 61.5628 41.7943 61.7939 41.6445C62.0283 41.4915 62.2074 41.2816 62.3311 41.0146C62.458 40.7477 62.5215 40.4401 62.5215 40.0918V40.082C62.5215 39.7337 62.458 39.4245 62.3311 39.1543C62.2074 38.8841 62.0283 38.6725 61.7939 38.5195C61.5628 38.3665 61.2845 38.29 60.959 38.29C60.6335 38.29 60.3568 38.3665 60.1289 38.5195C59.9043 38.6725 59.7318 38.8841 59.6113 39.1543C59.4941 39.4245 59.4355 39.7337 59.4355 40.082V40.0918C59.4355 40.4401 59.4941 40.7477 59.6113 41.0146C59.7318 41.2816 59.9043 41.4915 60.1289 41.6445C60.3568 41.7943 60.6335 41.8691 60.959 41.8691ZM64.9727 42.8945V35.541H65.8223V38.4219H65.9004C66.0339 38.1419 66.2259 37.9255 66.4766 37.7725C66.7272 37.6162 67.0462 37.5381 67.4336 37.5381C67.8275 37.5381 68.1611 37.6146 68.4346 37.7676C68.708 37.9173 68.9163 38.137 69.0596 38.4268C69.2028 38.7165 69.2744 39.0697 69.2744 39.4863V42.8945H68.4248V39.6914C68.4248 39.2161 68.3239 38.8646 68.1221 38.6367C67.9235 38.4056 67.6143 38.29 67.1943 38.29C66.9144 38.29 66.6719 38.3503 66.4668 38.4707C66.2617 38.5911 66.1022 38.762 65.9883 38.9834C65.8776 39.2048 65.8223 39.4701 65.8223 39.7793V42.8945H64.9727ZM72.6826 42.9336C72.1423 42.9336 71.75 42.8245 71.5059 42.6064C71.265 42.3883 71.1445 42.0286 71.1445 41.5273V38.334H70.3145V37.6309H71.1445V36.2686H72.0234V37.6309H73.1758V38.334H72.0234V41.3125C72.0234 41.6217 72.082 41.8447 72.1992 41.9814C72.3164 42.1149 72.5117 42.1816 72.7852 42.1816C72.86 42.1816 72.9235 42.18 72.9756 42.1768C73.0309 42.1735 73.0977 42.1686 73.1758 42.1621V42.8848C73.0944 42.8978 73.013 42.9092 72.9316 42.9189C72.8503 42.9287 72.7673 42.9336 72.6826 42.9336ZM78.9766 42.8945V36.8252H78.8984L77.1064 38.124V37.1963L78.9814 35.8486H79.8555V42.8945H78.9766ZM85.2559 42.8945V42.1182H87.4336C87.9642 42.1182 88.3662 42.0124 88.6396 41.8008C88.9131 41.5892 89.0498 41.2816 89.0498 40.8779V40.8682C89.0498 40.598 88.9863 40.3717 88.8594 40.1895C88.7324 40.0072 88.542 39.8704 88.2881 39.7793C88.0374 39.6882 87.7249 39.6426 87.3506 39.6426H85.2559V38.8857H87.1016C87.6354 38.8857 88.0358 38.7913 88.3027 38.6025C88.5729 38.4137 88.708 38.1338 88.708 37.7627V37.7529C88.708 37.3949 88.5859 37.1182 88.3418 36.9229C88.1009 36.7243 87.7624 36.625 87.3262 36.625H85.2559V35.8486H87.5117C87.9447 35.8486 88.3158 35.9202 88.625 36.0635C88.9375 36.2067 89.1768 36.4102 89.3428 36.6738C89.512 36.9342 89.5967 37.2435 89.5967 37.6016V37.6113C89.5967 37.8555 89.5413 38.085 89.4307 38.2998C89.3232 38.5146 89.1784 38.6953 88.9961 38.8418C88.8138 38.9883 88.6087 39.0827 88.3809 39.125V39.2031C88.7031 39.2422 88.9814 39.3382 89.2158 39.4912C89.4502 39.6442 89.6309 39.8428 89.7578 40.0869C89.888 40.3278 89.9531 40.6029 89.9531 40.9121V40.9219C89.9531 41.332 89.8571 41.6852 89.665 41.9814C89.4762 42.2744 89.2044 42.5007 88.8496 42.6602C88.4948 42.8164 88.0667 42.8945 87.5654 42.8945H85.2559ZM84.8164 42.8945V35.8486H85.6953V42.8945H84.8164ZM93.2197 42.8945V36.6396H90.9492V35.8486H96.3691V36.6396H94.0986V42.8945H93.2197ZM100.271 43.0605C99.6325 43.0605 99.0807 42.9108 98.6152 42.6113C98.1497 42.3118 97.79 41.887 97.5361 41.3369C97.2855 40.7868 97.1602 40.1341 97.1602 39.3789V39.3691C97.1602 38.6107 97.2855 37.9564 97.5361 37.4062C97.79 36.8561 98.1481 36.4313 98.6104 36.1318C99.0758 35.8324 99.6276 35.6826 100.266 35.6826C100.76 35.6826 101.21 35.7803 101.613 35.9756C102.02 36.1676 102.355 36.4362 102.619 36.7812C102.883 37.123 103.049 37.5186 103.117 37.9678L103.112 37.9775H102.229L102.224 37.9678C102.146 37.665 102.014 37.4046 101.828 37.1865C101.643 36.9652 101.416 36.7943 101.149 36.6738C100.886 36.5534 100.591 36.4932 100.266 36.4932C99.8164 36.4932 99.4258 36.6104 99.0938 36.8447C98.765 37.0791 98.5111 37.4111 98.332 37.8408C98.153 38.2705 98.0635 38.7799 98.0635 39.3691V39.3789C98.0635 39.9648 98.153 40.4727 98.332 40.9023C98.5111 41.332 98.765 41.6641 99.0938 41.8984C99.4258 42.1328 99.818 42.25 100.271 42.25C100.599 42.25 100.897 42.1979 101.164 42.0938C101.431 41.9863 101.656 41.835 101.838 41.6396C102.02 41.4411 102.147 41.2067 102.219 40.9365L102.229 40.9268H103.117V40.9365C103.039 41.3662 102.87 41.7406 102.609 42.0596C102.349 42.3753 102.019 42.6211 101.618 42.7969C101.221 42.9727 100.772 43.0605 100.271 43.0605Z" fill="#35FDAC"/>
</svg>
