<svg width="44" height="44" viewBox="0 0 44 44" fill="none" xmlns="http://www.w3.org/2000/svg">
<circle cx="22" cy="22" r="21.5" stroke="#35FDAC"/>
<path d="M15.269 20.4999C15.269 19.616 15.4431 18.7407 15.7814 17.924C16.1197 17.1073 16.6155 16.3653 17.2406 15.7402C17.8656 15.1152 18.6077 14.6193 19.4244 14.2811C20.241 13.9428 21.1163 13.7687 22.0003 13.7687C22.8842 13.7687 23.7596 13.9428 24.5762 14.2811C25.3929 14.6193 26.1349 15.1152 26.76 15.7402C27.3851 16.3653 27.8809 17.1073 28.2192 17.924C28.5574 18.7407 28.7315 19.616 28.7315 20.4999V20.4999C28.7315 23.8562 29.4347 25.8062 30.0534 26.8749C30.1191 26.9887 30.1538 27.1178 30.1539 27.2493C30.154 27.3807 30.1196 27.5098 30.0541 27.6238C29.9886 27.7377 29.8943 27.8324 29.7806 27.8985C29.667 27.9645 29.538 27.9995 29.4065 27.9999H14.594C14.4626 27.9995 14.3336 27.9645 14.22 27.8985C14.1063 27.8324 14.012 27.7377 13.9465 27.6238C13.881 27.5098 13.8466 27.3807 13.8467 27.2493C13.8468 27.1178 13.8814 26.9887 13.9472 26.8749C14.5659 25.8062 15.269 23.8562 15.269 20.4999Z" stroke="#35FDAC" stroke-width="1.5" stroke-linecap="round" stroke-linejoin="round"/>
<path d="M19 28V28.75C19 29.5456 19.3161 30.3087 19.8787 30.8713C20.4413 31.4339 21.2044 31.75 22 31.75C22.7956 31.75 23.5587 31.4339 24.1213 30.8713C24.6839 30.3087 25 29.5456 25 28.75V28" stroke="#35FDAC" stroke-width="1.5" stroke-linecap="round" stroke-linejoin="round"/>
<path d="M27.1943 12.25C28.7214 13.2139 29.9538 14.5794 30.7568 16.1969" stroke="#35FDAC" stroke-width="1.5" stroke-linecap="round" stroke-linejoin="round"/>
<path d="M13.2432 16.1969C14.0462 14.5794 15.2786 13.2139 16.8057 12.25" stroke="#35FDAC" stroke-width="1.5" stroke-linecap="round" stroke-linejoin="round"/>
</svg>
