<svg width="77" height="75" viewBox="0 0 77 75" fill="none" xmlns="http://www.w3.org/2000/svg">
<mask id="path-1-inside-1_1_12047" fill="white">
<path d="M37.4888 68.7029C19.6316 68.1614 5.60799 53.6817 6.16623 36.3616C6.72447 19.0414 21.6531 5.43959 39.5104 5.98104C57.3676 6.52249 71.3912 21.0022 70.8329 38.3223C70.2747 55.6425 55.346 69.2443 37.4888 68.7029ZM39.3891 9.74435C23.6747 9.26787 10.5375 21.2375 10.0462 36.4792C9.55498 51.721 21.8957 64.4631 37.6101 64.9396C53.3244 65.4161 66.4617 53.4464 66.9529 38.2047C67.4442 22.963 55.1034 10.2208 39.3891 9.74435Z"/>
</mask>
<path d="M37.4888 68.7029C19.6316 68.1614 5.60799 53.6817 6.16623 36.3616C6.72447 19.0414 21.6531 5.43959 39.5104 5.98104C57.3676 6.52249 71.3912 21.0022 70.8329 38.3223C70.2747 55.6425 55.346 69.2443 37.4888 68.7029ZM39.3891 9.74435C23.6747 9.26787 10.5375 21.2375 10.0462 36.4792C9.55498 51.721 21.8957 64.4631 37.6101 64.9396C53.3244 65.4161 66.4617 53.4464 66.9529 38.2047C67.4442 22.963 55.1034 10.2208 39.3891 9.74435Z" stroke="#363C52" stroke-width="20" mask="url(#path-1-inside-1_1_12047)"/>
<mask id="path-2-inside-2_1_12047" fill="white">
<path d="M8.88158 24.7239C11.1247 19.7707 14.65 15.4642 19.1155 12.2225C23.5809 8.98081 28.8346 6.91403 34.3666 6.22285C39.8986 5.53167 45.5208 6.23958 50.6875 8.27783C55.8542 10.3161 60.3897 13.6155 63.8538 17.8556L60.8113 20.1939C57.7629 16.4626 53.7716 13.5592 49.225 11.7655C44.6783 9.97186 39.7307 9.34891 34.8626 9.95714C29.9944 10.5654 25.3711 12.3841 21.4416 15.2369C17.512 18.0896 14.4096 21.8793 12.4357 26.2381L8.88158 24.7239Z"/>
</mask>
<path d="M8.88158 24.7239C11.1247 19.7707 14.65 15.4642 19.1155 12.2225C23.5809 8.98081 28.8346 6.91403 34.3666 6.22285C39.8986 5.53167 45.5208 6.23958 50.6875 8.27783C55.8542 10.3161 60.3897 13.6155 63.8538 17.8556L60.8113 20.1939C57.7629 16.4626 53.7716 13.5592 49.225 11.7655C44.6783 9.97186 39.7307 9.34891 34.8626 9.95714C29.9944 10.5654 25.3711 12.3841 21.4416 15.2369C17.512 18.0896 14.4096 21.8793 12.4357 26.2381L8.88158 24.7239Z" stroke="#41EA85" stroke-width="20" mask="url(#path-2-inside-2_1_12047)"/>
<mask id="path-3-inside-3_1_12047" fill="white">
<path d="M65.9832 20.7926C68.8351 25.248 70.4901 30.3257 70.797 35.5615C71.1038 40.7974 70.0527 46.0243 67.7397 50.7645C65.4268 55.5047 61.9257 59.607 57.5566 62.6963C53.1875 65.7857 48.0897 67.7636 42.7292 68.4492C37.3687 69.1348 31.9166 68.5063 26.8711 66.6211C21.8256 64.7359 17.3479 61.6541 13.847 57.6575C10.3462 53.6609 7.93407 48.877 6.83106 43.743C5.72806 38.609 5.9694 33.2887 7.53302 28.2685L11.2491 29.3574C9.87307 33.7752 9.66069 38.457 10.6313 42.9749C11.602 47.4928 13.7247 51.7027 16.8054 55.2197C19.8861 58.7367 23.8266 61.4486 28.2666 63.1076C32.7066 64.7666 37.5045 65.3197 42.2217 64.7164C46.9389 64.113 51.425 62.3725 55.2698 59.6538C59.1146 56.9352 62.1956 53.3252 64.231 49.1538C66.2664 44.9824 67.1914 40.3828 66.9213 35.7752C66.6513 31.1677 65.1949 26.6993 62.6852 22.7785L65.9832 20.7926Z"/>
</mask>
<path d="M65.9832 20.7926C68.8351 25.248 70.4901 30.3257 70.797 35.5615C71.1038 40.7974 70.0527 46.0243 67.7397 50.7645C65.4268 55.5047 61.9257 59.607 57.5566 62.6963C53.1875 65.7857 48.0897 67.7636 42.7292 68.4492C37.3687 69.1348 31.9166 68.5063 26.8711 66.6211C21.8256 64.7359 17.3479 61.6541 13.847 57.6575C10.3462 53.6609 7.93407 48.877 6.83106 43.743C5.72806 38.609 5.9694 33.2887 7.53302 28.2685L11.2491 29.3574C9.87307 33.7752 9.66069 38.457 10.6313 42.9749C11.602 47.4928 13.7247 51.7027 16.8054 55.2197C19.8861 58.7367 23.8266 61.4486 28.2666 63.1076C32.7066 64.7666 37.5045 65.3197 42.2217 64.7164C46.9389 64.113 51.425 62.3725 55.2698 59.6538C59.1146 56.9352 62.1956 53.3252 64.231 49.1538C66.2664 44.9824 67.1914 40.3828 66.9213 35.7752C66.6513 31.1677 65.1949 26.6993 62.6852 22.7785L65.9832 20.7926Z" stroke="#BB57F7" stroke-width="20" mask="url(#path-3-inside-3_1_12047)"/>
</svg>
