<svg width="29" height="13" viewBox="0 0 29 13" fill="none" xmlns="http://www.w3.org/2000/svg">
<path d="M4.5625 12C6.96094 12 8.40625 10.7969 8.40625 8.8125C8.40625 7.3125 7.375 6.22656 5.84375 6.05469V5.99219C6.96875 5.80469 7.85156 4.73438 7.85156 3.53906C7.85156 1.83594 6.53906 0.726562 4.53906 0.726562H0.0390625V12H4.5625ZM1.78906 2.15625H4.11719C5.38281 2.15625 6.10156 2.73438 6.10156 3.78125C6.10156 4.89844 5.26562 5.52344 3.75 5.52344H1.78906V2.15625ZM1.78906 10.5703V6.85938H4.10156C5.75781 6.85938 6.61719 7.48438 6.61719 8.70312C6.61719 9.92188 5.78125 10.5703 4.20312 10.5703H1.78906ZM14.4609 12V2.23438H17.9062V0.726562H9.25781V2.23438H12.7109V12H14.4609ZM23.4219 12.1875C26.0156 12.1875 27.7812 10.8203 28.2109 8.49219H26.4688C26.1172 9.85156 25 10.6562 23.4297 10.6562C21.3594 10.6562 20.0469 8.99219 20.0469 6.35938C20.0469 3.75 21.375 2.07031 23.4219 2.07031C24.9531 2.07031 26.1562 3.01562 26.4688 4.46094H28.2031C27.9062 2.10938 25.9766 0.539062 23.4219 0.539062C20.2734 0.539062 18.2578 2.78906 18.2578 6.35938C18.2578 9.95312 20.2578 12.1875 23.4219 12.1875Z" fill="white" fill-opacity="0.9"/>
</svg>
