<svg width="32" height="32" viewBox="0 0 32 32" fill="none" xmlns="http://www.w3.org/2000/svg">
<path d="M31.9132 16.0003C31.9132 24.7904 24.7877 31.9161 15.9977 31.9161C7.20769 31.9161 0.0820312 24.7904 0.0820312 16.0003C0.0820312 7.21037 7.20769 0.0847168 15.9977 0.0847168C24.7876 0.0847168 31.9132 7.21037 31.9132 16.0003Z" fill="#627EEA"/>
<g opacity="0.8">
<path d="M15.9468 8.61536L15.8485 8.94949V18.6452L15.9468 18.7434L20.4475 16.083L15.9468 8.61536Z" fill="#C1CCF7"/>
<path d="M15.9468 8.61536L11.4462 16.083L15.9468 18.7434V14.0374V8.61536Z" fill="white"/>
<path d="M15.9468 20.2077L15.8914 20.2752V23.7291L15.9468 23.8909L20.4501 17.5487L15.9468 20.2077Z" fill="#C1CCF7"/>
<path d="M15.9468 23.8909V20.2077L11.4462 17.5487L15.9468 23.8909Z" fill="#FDFDFE"/>
<path d="M15.9468 18.7433L20.4474 16.083L15.9468 14.0374V18.7433Z" fill="#8198EE"/>
<path d="M11.4462 16.083L15.9468 18.7433V14.0374L11.4462 16.083Z" fill="#C1CCF7"/>
</g>
</svg>
