<svg width="51" height="51" viewBox="0 0 51 51" fill="none" xmlns="http://www.w3.org/2000/svg">
<rect x="0.575267" y="7.63091" width="43" height="43" rx="9.5" transform="rotate(-9.44427 0.575267 7.63091)" stroke="#35FDAC"/>
<path d="M22.2962 25.1094C26.3822 24.4297 29.4466 22.3881 29.1408 20.5494C28.8349 18.7108 25.2746 17.7712 21.1886 18.4509C17.1026 19.1305 14.0382 21.1721 14.3441 23.0108C14.6499 24.8495 18.2102 25.789 22.2962 25.1094Z" stroke="#35FDAC" stroke-width="1.5" stroke-linecap="round" stroke-linejoin="round"/>
<path d="M14.3441 23.0107L14.9594 26.7099C15.2656 28.5503 18.824 29.4884 22.9116 28.8085C26.9992 28.1286 30.0623 26.0889 29.7561 24.2486L29.1408 20.5494" stroke="#35FDAC" stroke-width="1.5" stroke-linecap="round" stroke-linejoin="round"/>
<path d="M19.2908 25.3242L19.9061 29.0234" stroke="#35FDAC" stroke-width="1.5" stroke-linecap="round" stroke-linejoin="round"/>
<path d="M29.3362 21.7238C32.764 21.4768 35.5303 22.3947 35.7979 24.0038C36.1041 25.8442 33.041 27.8838 28.9534 28.5637C27.1408 28.8653 25.4269 28.8462 24.0615 28.5792" stroke="#35FDAC" stroke-width="1.5" stroke-linecap="round" stroke-linejoin="round"/>
<path d="M21.4212 28.9899L21.6166 30.1644C21.9227 32.0047 25.4811 32.9429 29.5687 32.263C33.6563 31.583 36.7194 29.5434 36.4132 27.7031L35.7979 24.0039" stroke="#35FDAC" stroke-width="1.5" stroke-linecap="round" stroke-linejoin="round"/>
<path d="M31.8666 27.7942L32.4819 31.4934" stroke="#35FDAC" stroke-width="1.5" stroke-linecap="round" stroke-linejoin="round"/>
<path d="M25.2095 24.3397L26.5632 32.4779" stroke="#35FDAC" stroke-width="1.5" stroke-linecap="round" stroke-linejoin="round"/>
</svg>
