<svg width="79" height="12" viewBox="0 0 79 12" fill="none" xmlns="http://www.w3.org/2000/svg">
<path d="M0.992619 11V1.13574H7.25434V2.45508H2.52387V5.33301H7.00141V6.61816H2.52387V9.68066H7.25434V11H0.992619ZM9.0582 11L12.3395 6.03711V6.0166L9.09238 1.13574H10.9176L13.358 4.95703H13.4195L15.8668 1.13574H17.5963L14.2535 6.06445V6.0918L17.5348 11H15.7438L13.2828 7.2334H13.2281L10.7535 11H9.0582ZM23.283 11.1641C20.4871 11.1641 18.7097 9.19531 18.7097 6.06445V6.05762C18.7097 2.92676 20.4871 0.97168 23.283 0.97168C25.4568 0.97168 27.0906 2.31152 27.3982 4.25977L27.4119 4.32129H25.8943L25.8533 4.18457C25.5252 3.0293 24.6091 2.3252 23.283 2.3252C21.4509 2.3252 20.2752 3.77441 20.2752 6.05762V6.06445C20.2752 8.34766 21.4578 9.81055 23.283 9.81055C24.5955 9.81055 25.5047 9.12695 25.8738 7.87598L25.8943 7.81445H27.4119L27.405 7.88281C27.0974 9.84473 25.4636 11.1641 23.283 11.1641ZM29.6396 11V1.13574H31.1708V5.30566H36.2363V1.13574H37.7675V11H36.2363V6.63184H31.1708V11H29.6396ZM39.6876 11L43.2764 1.13574H44.9307L48.5128 11H46.9063L46.004 8.33398H42.2032L41.294 11H39.6876ZM44.0899 2.76953L42.6134 7.10352H45.587L44.1173 2.76953H44.0899ZM50.4465 11V1.13574H51.8616L56.9338 8.42969H56.9748V1.13574H58.4924V11H57.0842L52.0051 3.69238H51.9641V11H50.4465ZM65.4027 11.1641C62.5795 11.1641 60.8022 9.19531 60.8022 6.02344V6.0166C60.8022 2.90625 62.5795 0.97168 65.3822 0.97168C67.6928 0.97168 69.142 2.30469 69.5522 4.08203L69.5795 4.20508H68.0072L67.9867 4.12988C67.5697 2.98828 66.6742 2.3252 65.3891 2.3252C63.5023 2.3252 62.3607 3.69922 62.3607 6.00977V6.0166C62.3607 8.375 63.5365 9.81055 65.4164 9.81055C67.016 9.81055 68.1234 8.79883 68.1439 7.30176V7.1377H65.5531V5.88672H69.6547V6.89844C69.6547 9.57129 68.0756 11.1641 65.4027 11.1641ZM71.9918 11V1.13574H78.2535V2.45508H73.523V5.33301H78.0005V6.61816H73.523V9.68066H78.2535V11H71.9918Z" fill="#35FDAC"/>
</svg>
