<svg width="181" height="37" viewBox="0 0 181 37" fill="none" xmlns="http://www.w3.org/2000/svg">
<g clip-path="url(#clip0_1_2573)">
<path d="M36.0336 22.6702C33.5357 32.4553 23.3453 38.4203 13.2724 35.9938C3.1999 33.5676 -2.94024 23.6674 -0.442412 13.8822C2.05542 4.09662 12.2459 -1.86879 22.3183 0.557791C22.3353 0.561898 22.3526 0.566006 22.3695 0.570524C32.4153 3.01969 38.5272 12.9039 36.0336 22.6702Z" fill="#747580"/>
<path d="M22.0583 15.6192C21.4711 17.9012 17.8892 16.7314 16.7265 16.4521L17.7539 12.459C18.8988 12.733 22.6456 13.2575 22.0406 15.6192H22.0583ZM21.4182 22.0717C20.784 24.5583 16.4741 23.2127 15.0764 22.8755L16.2095 18.4659C17.6072 18.8081 22.0816 19.4755 21.4182 22.0717ZM26.1158 15.6537C26.4857 13.2234 24.5832 11.9173 22.0055 11.0502L22.851 7.75866L20.7667 7.25675L19.9448 10.4629C19.4045 10.3319 18.8468 10.2062 18.2947 10.0863L19.1166 6.84603L17.0555 6.34412L16.2099 9.63569L14.8946 9.35064L12.0467 8.66021L11.5005 10.7997C11.5005 10.7997 13.0272 11.1418 12.998 11.1648C13.581 11.2334 14.0063 11.7366 13.9611 12.3058L12.998 16.0537C13.0703 16.0697 13.1413 16.0923 13.2094 16.1223L12.9921 16.0652L11.6472 21.3193C11.5212 21.7037 11.0984 21.9152 10.7022 21.7928H10.7018C10.7018 21.8212 9.19839 21.4334 9.19839 21.4334L8.17651 23.7154L10.8599 24.3603L12.3279 24.7312L11.4764 28.0568L13.5375 28.5587L14.383 25.2672C14.9386 25.4154 15.4852 25.5522 16.0213 25.6779L15.1876 28.981L17.2487 29.4771L18.1002 26.1572C21.6233 26.8025 24.2598 26.5449 25.3755 23.4534C26.2739 20.966 25.3286 19.5342 23.4789 18.5986C24.8293 18.2963 25.8279 17.4576 26.1154 15.6549L26.1158 15.6537Z" fill="#1A1B2E"/>
<path d="M47.9244 30.8045C49.0219 30.8078 50.1017 30.5363 51.0602 30.0172C52.0466 29.5062 52.9141 28.8027 53.6088 27.952C54.3326 27.0525 54.9016 26.045 55.294 24.9685C55.7079 23.8563 55.918 22.6828 55.9163 21.5003C55.9823 20.3006 55.7185 19.1054 55.1528 18.0375C54.648 17.2103 53.7081 16.7885 52.3459 16.7885C51.7523 16.8082 51.1621 16.8866 50.5841 17.0222C49.8667 17.1778 49.2029 17.5122 48.6579 17.9919L45.5458 30.6333L46.0451 30.7245C46.1935 30.7598 46.3453 30.7828 46.4971 30.793C46.692 30.8165 46.8881 30.8259 47.0843 30.8214L47.924 30.8041L47.9244 30.8045ZM54.1076 11.044C55.4669 11.0136 56.8164 11.2831 58.0535 11.8314C59.1274 12.3288 60.0711 13.0562 60.8135 13.9594C61.5736 14.8934 62.1326 15.9658 62.4577 17.1138C62.8137 18.3796 62.9891 19.6866 62.9803 20.9988C62.9786 25.0815 61.3496 29.0043 58.4353 31.946C57.0223 33.3539 55.3413 34.481 53.4853 35.2659C51.5392 36.098 49.4342 36.5223 47.308 36.5096H45.8045C44.9873 36.4837 44.1713 36.4155 43.3617 36.3042C42.3728 36.165 41.3927 35.9748 40.4258 35.7337C39.412 35.5 38.4277 35.1595 37.49 34.7184L45.7403 1.14137L53.1099 0.000366211L50.174 11.9172C50.7854 11.6486 51.42 11.433 52.0707 11.2728C52.7412 11.1143 53.4299 11.0354 54.1199 11.0391L54.1081 11.0448L54.1076 11.044Z" fill="#747580"/>
<path d="M74.0195 8.59646C73.0589 8.6055 72.1224 8.30649 71.3534 7.74666C70.5382 7.1203 70.0977 6.14072 70.1789 5.13402C70.1755 4.50602 70.3133 3.88459 70.5839 3.31409C70.8431 2.75837 71.2071 2.25523 71.6586 1.83095C72.1097 1.41447 72.6323 1.0785 73.2031 0.838221C73.7967 0.590552 74.4363 0.464458 75.0819 0.467333C76.0357 0.464458 76.9633 0.765111 77.7243 1.32288C78.5378 1.95047 78.9779 2.92924 78.8989 3.93552C78.9039 4.56517 78.7678 5.18824 78.4997 5.76079C78.2406 6.31363 77.8782 6.81431 77.4309 7.23818C76.9811 7.6563 76.4585 7.99228 75.8865 8.23091C75.2929 8.47858 74.6532 8.60303 74.0076 8.59605H74.0195V8.59646ZM70.5962 35.8589H63.5496L69.5037 11.557H76.5913L70.5957 35.8589H70.5962Z" fill="#747580"/>
<path d="M82.7574 5.50494L90.1266 4.39844L88.2947 11.5578H96.1873L94.7655 17.1938H86.938L84.8477 25.6709C84.6668 26.3198 84.5547 26.9852 84.5129 27.6567C84.4697 28.1997 84.5526 28.7452 84.7534 29.2532C84.95 29.7091 85.314 30.0776 85.7753 30.2858C86.4391 30.5708 87.1637 30.7006 87.8892 30.6624C88.6325 30.6649 89.3741 30.5938 90.103 30.4513C90.8365 30.3121 91.559 30.1215 92.2638 29.8808L92.7923 35.1517C91.7806 35.5049 90.7469 35.7969 89.6975 36.0245C88.4008 36.2919 87.0771 36.4163 85.7516 36.3954C83.5612 36.3954 81.87 36.0758 80.6604 35.4482C79.529 34.8892 78.6226 33.9774 78.0886 32.8582C77.5673 31.6708 77.3398 30.3811 77.4252 29.093C77.5043 27.582 77.7263 26.0812 78.0886 24.6091L82.757 5.48194V5.50494H82.7574Z" fill="#747580"/>
<path d="M95.929 26.1552C95.9142 24.1393 96.2676 22.1358 96.9741 20.2399C97.6366 18.447 98.6542 16.798 99.9687 15.3855C101.294 13.9845 102.906 12.8693 104.701 12.1103C106.66 11.2889 108.775 10.8785 110.908 10.9073C112.196 10.8925 113.481 11.0244 114.737 11.3004C115.792 11.5435 116.819 11.8914 117.802 12.3387L115.354 17.6839C114.719 17.4329 114.061 17.2169 113.38 17.0165C112.568 16.7967 111.727 16.6949 110.885 16.7142C108.755 16.6394 106.708 17.5139 105.324 19.0874C103.95 20.6576 103.26 22.7683 103.257 25.4195C103.192 26.7643 103.557 28.095 104.302 29.2307C104.998 30.2004 106.283 30.6847 108.154 30.6847C109.051 30.6855 109.944 30.5918 110.82 30.4054C111.601 30.2435 112.366 30.0127 113.104 29.7149L113.627 35.2146C112.666 35.5678 111.686 35.8689 110.691 36.1153C109.427 36.3921 108.134 36.5227 106.839 36.5039C105.12 36.5523 103.408 36.271 101.801 35.6762C100.523 35.176 99.3726 34.4112 98.4302 33.4349C97.536 32.4886 96.8752 31.3566 96.4985 30.1257C96.0998 28.8302 95.9019 27.4843 95.9112 26.1326L95.929 26.1556V26.1552Z" fill="#747580"/>
<path d="M130.697 16.7371C129.703 16.7235 128.732 17.0303 127.937 17.6099C127.131 18.2161 126.454 18.9706 125.946 19.829C125.388 20.7429 124.968 21.7311 124.702 22.7621C124.443 23.7503 124.309 24.7648 124.303 25.7846C124.239 27.0295 124.5 28.2691 125.06 29.39C125.571 30.2513 126.487 30.685 127.82 30.685C128.815 30.7014 129.788 30.3921 130.58 29.8064C131.388 29.2002 132.066 28.4457 132.576 27.5881C133.127 26.673 133.536 25.6852 133.792 24.6551C134.048 23.6648 134.182 22.6479 134.191 21.626C134.257 20.3819 133.995 19.1411 133.433 18.0206C132.923 17.1651 132.001 16.7313 130.673 16.7313L130.697 16.7371H130.697ZM127.174 36.5091C125.677 36.5428 124.19 36.2906 122.793 35.7673C121.618 35.3172 120.569 34.6066 119.728 33.6907C118.901 32.7682 118.278 31.6909 117.896 30.5248C117.481 29.2175 117.282 27.8538 117.309 26.4861C117.313 24.6025 117.624 22.7308 118.231 20.9413C118.82 19.1403 119.74 17.4575 120.943 15.9727C122.153 14.4884 123.656 13.2545 125.365 12.3448C127.204 11.3841 129.266 10.8986 131.355 10.9356C132.842 10.9093 134.322 11.1615 135.712 11.6773C136.888 12.1201 137.943 12.8212 138.794 13.7252C139.616 14.6502 140.238 15.7271 140.621 16.8911C141.039 18.1997 141.237 19.5654 141.208 20.9355C141.202 22.8175 140.899 24.688 140.31 26.4804C139.731 28.2839 138.828 29.9732 137.644 31.472C136.452 32.9625 134.954 34.1963 133.245 35.0946C131.378 36.0602 129.289 36.5473 127.174 36.5091Z" fill="#747580"/>
<path d="M152.335 8.59657C151.376 8.60643 150.441 8.30742 149.675 7.74678C148.86 7.12042 148.419 6.14083 148.501 5.13414C148.498 4.50614 148.635 3.8847 148.905 3.3142C149.157 2.76136 149.511 2.25904 149.951 1.83107C150.405 1.41582 150.929 1.07984 151.501 0.838336C152.093 0.591078 152.73 0.464984 153.375 0.467449C154.335 0.459234 155.274 0.760708 156.041 1.32299C156.854 1.95059 157.294 2.92935 157.215 3.93563C157.217 4.5661 157.076 5.18918 156.804 5.76091C156.549 6.31416 156.188 6.81566 155.741 7.2383C155.291 7.65642 154.769 7.99239 154.197 8.23103C153.608 8.47623 152.975 8.60068 152.335 8.59616L152.335 8.59657ZM148.918 35.859H141.872L147.814 11.5571H154.908L148.918 35.859Z" fill="#747580"/>
<path d="M159.98 12.664C160.515 12.5157 161.108 12.3329 161.742 12.1337C162.376 11.9341 163.116 11.7514 163.932 11.5632C164.827 11.3788 165.73 11.24 166.639 11.1468C167.769 11.0309 168.904 10.9755 170.039 10.9812C173.751 10.9812 176.311 12.0286 177.72 14.1245C178.564 15.3797 178.991 16.9109 179.001 18.7185V18.8487C178.995 20.0242 178.814 21.3152 178.46 22.7211L175.224 35.8414H168.155L171.296 22.9942C171.484 22.1962 171.637 21.4203 171.748 20.6617C171.87 20.0049 171.87 19.3326 171.748 18.6766C171.632 18.1283 171.32 17.6379 170.868 17.2904C170.241 16.8912 169.495 16.7047 168.748 16.7598C167.807 16.7614 166.868 16.8551 165.947 17.0395L161.331 35.8644H154.219L159.98 12.664Z" fill="#747580"/>
</g>
<defs>
<clipPath id="clip0_1_2573">
<rect width="179.75" height="36.5347" fill="#747580" transform="translate(0.379639)"/>
</clipPath>
</defs>
</svg>
