<svg width="201" height="35" viewBox="0 0 201 35" fill="none" xmlns="http://www.w3.org/2000/svg">
<g clip-path="url(#clip0_1_2528)">
<path d="M4.85698 5.3772L14.217 0L23.577 5.3772L20.065 7.26756L14.217 3.92369L8.21698 7.26756L4.85698 5.3772ZM23.433 12.057L20.065 10.1666L14.217 13.5105L8.21698 10.1666L4.84898 12.057V15.9807L10.705 19.3246V26.1553L14.073 28.1886L17.441 26.1553V19.4755L23.297 16.1316V12.0649H23.433V12.057ZM23.433 22.8114V18.8877L20.065 20.9211V24.6938L23.433 22.8114ZM25.921 24.114L20.073 27.4579V31.3816L29.441 26.0044V15.2579L25.929 17.4342L25.921 24.114ZM22.553 8.72108L25.921 10.7544V14.6781L29.289 12.6448V8.72108L25.921 6.68775L22.553 8.72108ZM10.705 28.9114V32.8351L14.073 34.8684L17.441 32.8351V28.9114L14.073 30.9447L10.705 28.9114ZM4.84898 22.8114L8.21698 24.7018V20.7781L4.84898 18.7448V22.8114ZM10.705 8.72108L14.073 10.7544L17.585 8.72108L14.217 6.68775L10.705 8.72108ZM2.36898 10.7544L5.88098 8.72108L2.36898 6.68775L-0.999023 8.72108V12.6448L2.36898 14.6781V10.7544ZM2.36898 17.4342L-0.999023 15.4009V26.1473L8.36898 31.5245V27.6009L2.51298 24.257V17.4263L2.36898 17.4342Z" fill="#747580"/>
<path d="M56.3534 21.9377C56.3534 19.3246 54.8894 18.0141 52.6974 17.1404C54.1614 16.4176 55.3294 15.107 55.3294 12.9307C55.3294 9.88074 52.8414 7.84741 48.8894 7.84741H39.8174V27.315H49.1774C53.4254 27.164 56.3534 25.4246 56.3534 21.9377ZM50.9374 13.6535C50.9374 15.107 49.7694 15.6868 47.8654 15.6868H43.9134V11.4772H48.1534C50.0654 11.4772 50.9374 12.2079 50.9374 13.6535ZM52.1134 21.3579C52.1134 22.8114 50.9454 23.5342 49.0414 23.5342H43.9214V19.3246H48.8974C51.0894 19.1737 52.1134 20.0474 52.1134 21.3579Z" fill="#747580"/>
<path d="M77.5689 27.164V7.84741H73.3209V19.7615L64.1049 7.84741H60.1609V27.315H64.4009V14.9641L73.9129 27.315H77.5689V27.164Z" fill="#747580"/>
<path d="M99.0729 21.9377C99.0729 19.3246 97.6089 18.0141 95.4169 17.1404C96.8809 16.4176 98.0489 15.107 98.0489 12.9307C98.0489 9.88074 95.5609 7.84741 91.6089 7.84741H82.5369V27.315H91.8969C96.1449 27.164 99.0729 25.4246 99.0729 21.9377ZM93.8089 13.6535C93.8089 15.107 92.6409 15.6868 90.7369 15.6868H86.7849V11.4772H91.0249C92.7849 11.4772 93.8089 12.2079 93.8089 13.6535ZM94.8329 21.3579C94.8329 22.8114 93.6649 23.5342 91.7609 23.5342H86.6409V19.3246H91.6169C93.8089 19.1737 94.8329 20.0474 94.8329 21.3579Z" fill="#747580"/>
<path d="M124.969 23.8281L122.777 21.6518C121.169 23.2483 119.561 24.122 117.217 24.122C113.409 24.122 110.777 21.072 110.777 17.1483C110.777 13.3676 113.561 10.3255 117.217 10.3255C119.409 10.3255 121.169 11.3422 122.633 12.7957L124.825 10.1826C122.921 8.44311 120.729 7.13257 117.217 7.13257C111.361 7.13257 107.121 11.6361 107.121 17.1562C107.121 22.8194 111.361 27.1799 117.073 27.1799C120.729 27.164 122.921 25.8614 124.969 23.8281Z" fill="#747580"/>
<path d="M141.649 18.7447V26.8781H145.017V7.41052H141.649V15.5438H132.289V7.41052H128.921V26.8781H132.289V18.7447H141.649Z" fill="#747580"/>
<path d="M160.521 7.41052H157.305L148.673 27.021H152.185L154.233 22.3746H163.449L165.497 27.021H169.153L160.521 7.41052ZM162.281 19.1736H155.553L158.921 11.4772L162.281 19.1736Z" fill="#747580"/>
<path d="M172.961 7.41052V26.8781H176.321V7.41052H172.961Z" fill="#747580"/>
<path d="M195.489 20.921L184.953 7.55349H181.881V27.021H185.249V13.0737L196.073 26.8781H199.001V7.41052H195.633V20.921H195.489Z" fill="#747580"/>
</g>
<defs>
<clipPath id="clip0_1_2528">
<rect width="199.722" height="34.8684" fill="#747580" transform="translate(0.929688)"/>
</clipPath>
</defs>
</svg>
