<svg width="201" height="50" viewBox="0 0 201 50" fill="none" xmlns="http://www.w3.org/2000/svg">
<g clip-path="url(#clip0_1_2545)">
<path d="M55.7037 28.6233C55.7007 28.7962 55.629 28.961 55.5041 29.0816C55.3791 29.2021 55.2112 29.2687 55.037 29.2667H42.7592C43.074 32.2817 45.3518 35.0392 48.574 35.0392C50.7777 35.0392 52.4074 34.2119 53.6296 32.4655C53.6865 32.3737 53.7652 32.2973 53.8589 32.2428C53.9525 32.1883 54.0582 32.1574 54.1666 32.153C54.2475 32.1507 54.328 32.1648 54.4032 32.1945C54.4784 32.2242 54.5467 32.2688 54.6039 32.3256C54.6611 32.3824 54.706 32.4502 54.7359 32.5248C54.7658 32.5994 54.78 32.6793 54.7777 32.7596C54.7782 32.8705 54.746 32.9791 54.6852 33.0722C53.4444 35.2047 50.9814 36.2525 48.574 36.2525C44.4444 36.2525 41.4814 32.5758 41.4814 28.6601C41.4814 24.7444 44.4259 21.0676 48.574 21.0676C52.7222 21.0676 55.6852 24.7076 55.7037 28.6233ZM54.3889 28.0534C54.1296 25.0385 51.7963 22.2809 48.574 22.2809C45.3518 22.2809 43.074 25.0385 42.7592 28.0534H54.3889Z" fill="#747580"/>
<path d="M70.6295 21.3618C70.7901 21.3664 70.9429 21.4318 71.0565 21.5446C71.1701 21.6574 71.236 21.809 71.2407 21.9684C71.243 22.0487 71.2287 22.1286 71.1988 22.2033C71.1689 22.2779 71.124 22.3457 71.0668 22.4025C71.0096 22.4593 70.9413 22.5039 70.8661 22.5336C70.7909 22.5632 70.7104 22.5774 70.6295 22.5751H67.3332V35.4253C67.3318 35.5857 67.267 35.7392 67.1527 35.8526C67.0384 35.9661 66.8838 36.0305 66.7221 36.0319C66.5615 36.0273 66.4088 35.9619 66.2952 35.8491C66.1816 35.7363 66.1157 35.5847 66.111 35.4253V22.5751H62.9444C62.8635 22.5774 62.783 22.5632 62.7078 22.5336C62.6326 22.5039 62.5643 22.4593 62.5071 22.4025C62.4499 22.3457 62.405 22.2779 62.3751 22.2033C62.3452 22.1286 62.3309 22.0487 62.3332 21.9684C62.3347 21.808 62.3995 21.6545 62.5138 21.541C62.6281 21.4276 62.7827 21.3632 62.9444 21.3618H66.111V16.6739C66.1113 16.5186 66.1675 16.3685 66.2693 16.2505C66.3711 16.1326 66.512 16.0546 66.6666 16.0305C66.753 16.0191 66.8409 16.0264 66.9242 16.0518C67.0075 16.0772 67.0843 16.1202 67.1494 16.1778C67.2144 16.2354 67.2662 16.3062 67.3011 16.3855C67.3361 16.4648 67.3533 16.5506 67.3518 16.6372V21.3618H70.6295Z" fill="#747580"/>
<path d="M90.7226 27.5754V35.3517C90.718 35.5112 90.6521 35.6628 90.5385 35.7756C90.4249 35.8884 90.2721 35.9538 90.1115 35.9584C90.0307 35.9607 89.9502 35.9465 89.875 35.9169C89.7998 35.8872 89.7315 35.8426 89.6743 35.7858C89.6171 35.729 89.5721 35.6612 89.5422 35.5866C89.5124 35.5119 89.4981 35.432 89.5004 35.3517V27.5754C89.5004 24.9466 88.0004 22.3361 85.056 22.3361C81.2782 22.3361 79.6486 25.6084 79.8708 28.9726C79.8708 29.0645 79.9078 29.4506 79.9078 29.5057V35.3333C79.9075 35.4887 79.8514 35.6388 79.7496 35.7567C79.6477 35.8747 79.5069 35.9527 79.3523 35.9768C79.2659 35.9882 79.178 35.9809 79.0947 35.9555C79.0113 35.9301 78.9345 35.8871 78.8695 35.8295C78.8044 35.7719 78.7527 35.701 78.7177 35.6217C78.6828 35.5425 78.6655 35.4566 78.6671 35.3701V9.79843C78.6685 9.63798 78.7334 9.48451 78.8477 9.37105C78.962 9.25759 79.1166 9.19321 79.2782 9.19177C79.4388 9.1964 79.5915 9.2618 79.7052 9.37458C79.8188 9.48737 79.8846 9.639 79.8893 9.79843V24.248C80.9449 22.3729 82.8338 21.1044 85.0375 21.1044C88.6671 21.1044 90.7226 24.248 90.7226 27.5754Z" fill="#747580"/>
<path d="M112.778 28.6233C112.775 28.7962 112.703 28.961 112.578 29.0816C112.453 29.2021 112.285 29.2687 112.111 29.2667H99.8334C100.148 32.2817 102.426 35.0392 105.648 35.0392C107.852 35.0392 109.482 34.2119 110.704 32.4655C110.761 32.3737 110.839 32.2973 110.933 32.2428C111.027 32.1883 111.132 32.1574 111.241 32.153C111.322 32.1507 111.402 32.1648 111.477 32.1945C111.553 32.2242 111.621 32.2688 111.678 32.3256C111.735 32.3824 111.78 32.4502 111.81 32.5248C111.84 32.5994 111.854 32.6793 111.852 32.7596C111.852 32.8705 111.82 32.9791 111.759 33.0722C110.519 35.2047 108.056 36.2525 105.648 36.2525C101.519 36.2525 98.5557 32.5758 98.5557 28.6601C98.5557 24.7444 101.5 21.0676 105.648 21.0676C109.759 21.0676 112.759 24.7076 112.778 28.6233ZM111.445 28.0534C111.185 25.0385 108.852 22.2809 105.63 22.2809C102.408 22.2809 100.13 25.0385 99.8149 28.0534H111.445Z" fill="#747580"/>
<path d="M127.87 21.9317C127.882 22.0949 127.828 22.2561 127.721 22.3801C127.613 22.5041 127.46 22.5808 127.296 22.5935C123.685 23.1266 122.055 26.0497 122.055 29.4506V35.2782C122.055 35.4336 121.999 35.5837 121.897 35.7017C121.795 35.8196 121.654 35.8976 121.5 35.9217C121.413 35.9331 121.325 35.9258 121.242 35.9004C121.159 35.875 121.082 35.832 121.017 35.7744C120.952 35.7168 120.9 35.6459 120.865 35.5667C120.83 35.4874 120.813 35.4015 120.815 35.315V22.0236C120.815 21.8683 120.871 21.7182 120.973 21.6002C121.075 21.4823 121.216 21.4043 121.37 21.3802C121.457 21.3688 121.544 21.3761 121.628 21.4015C121.711 21.4269 121.788 21.4699 121.853 21.5275C121.918 21.5851 121.97 21.6559 122.005 21.7352C122.04 21.8145 122.057 21.9003 122.055 21.9869V24.6893C123.074 22.9796 125.092 21.3618 127.203 21.3618C127.518 21.3618 127.87 21.5824 127.87 21.9317Z" fill="#747580"/>
<path d="M148.055 28.6233C148.052 28.7962 147.981 28.961 147.856 29.0816C147.731 29.2021 147.563 29.2687 147.389 29.2667H135.111C135.426 32.2817 137.703 35.0392 140.926 35.0392C143.129 35.0392 144.759 34.2119 145.981 32.4655C146.038 32.3737 146.117 32.2973 146.21 32.2428C146.304 32.1883 146.41 32.1574 146.518 32.153C146.599 32.1507 146.68 32.1648 146.755 32.1945C146.83 32.2242 146.898 32.2688 146.955 32.3256C147.013 32.3824 147.058 32.4502 147.087 32.5248C147.117 32.5994 147.132 32.6793 147.129 32.7596C147.13 32.8705 147.098 32.9791 147.037 33.0722C145.796 35.2047 143.333 36.2525 140.926 36.2525C136.796 36.2525 133.833 32.5758 133.833 28.6601C133.833 24.7444 136.777 21.0676 140.926 21.0676C145.074 21.0676 148.037 24.7076 148.055 28.6233ZM146.74 28.0534C146.481 25.0385 144.148 22.2809 140.926 22.2809C137.703 22.2809 135.426 25.0385 135.111 28.0534H146.74Z" fill="#747580"/>
<path d="M167.907 22.0788V35.4253C167.903 35.5848 167.837 35.7364 167.723 35.8492C167.61 35.962 167.457 36.0274 167.296 36.032C167.215 36.0343 167.135 36.0202 167.06 35.9905C166.985 35.9608 166.916 35.9162 166.859 35.8594C166.802 35.8026 166.757 35.7348 166.727 35.6602C166.697 35.5855 166.683 35.5056 166.685 35.4253V32.8884C165.667 34.8922 163.87 36.3445 161.574 36.3445C157.926 36.3445 155.907 33.2009 155.907 29.8735V22.0604C155.909 21.9 155.974 21.7465 156.088 21.633C156.202 21.5196 156.357 21.4552 156.519 21.4538C156.679 21.4584 156.832 21.5238 156.946 21.6366C157.059 21.7493 157.125 21.901 157.13 22.0604V29.8735C157.13 32.5023 158.63 35.1128 161.574 35.1128C165.704 35.1128 166.685 31.2706 166.685 27.024V22.042C166.687 21.9437 166.712 21.8471 166.758 21.7603C166.805 21.6736 166.872 21.5992 166.954 21.5434C167.035 21.4876 167.129 21.452 167.227 21.4396C167.326 21.4272 167.426 21.4384 167.519 21.4721C167.635 21.5258 167.733 21.6115 167.802 21.719C167.871 21.8265 167.908 21.9514 167.907 22.0788Z" fill="#747580"/>
<path d="M199 27.5204V35.3334C198.996 35.4929 198.93 35.6445 198.816 35.7573C198.703 35.8701 198.55 35.9355 198.389 35.9401C198.308 35.9424 198.228 35.9283 198.153 35.8986C198.078 35.8689 198.009 35.8243 197.952 35.7675C197.895 35.7107 197.85 35.6429 197.82 35.5683C197.79 35.4936 197.776 35.4137 197.778 35.3334V27.5204C197.778 24.8915 196.278 22.3178 193.334 22.3178C189.63 22.3178 188.223 26.2519 188.223 29.3036V35.3334C188.218 35.4929 188.152 35.6445 188.038 35.7573C187.925 35.8701 187.772 35.9355 187.612 35.9401C187.531 35.9424 187.45 35.9283 187.375 35.8986C187.3 35.8689 187.232 35.8243 187.174 35.7675C187.117 35.7107 187.072 35.6429 187.042 35.5683C187.012 35.4936 186.998 35.4137 187 35.3334V27.5204C187 24.8915 185.5 22.3178 182.556 22.3178C178.815 22.3178 177.278 25.2408 177.408 29.1382C177.408 29.2301 177.445 29.3955 177.408 29.4507V35.3151C177.408 35.4704 177.351 35.6205 177.25 35.7385C177.148 35.8564 177.007 35.9344 176.852 35.9585C176.766 35.9699 176.678 35.9626 176.595 35.9372C176.511 35.9118 176.435 35.8688 176.369 35.8112C176.304 35.7536 176.253 35.6828 176.218 35.6035C176.183 35.5242 176.166 35.4384 176.167 35.3518V22.0237C176.167 21.8683 176.224 21.7182 176.325 21.6003C176.427 21.4823 176.568 21.4043 176.723 21.3802C176.809 21.3689 176.897 21.3761 176.98 21.4015C177.064 21.427 177.14 21.4699 177.205 21.5275C177.27 21.5851 177.322 21.656 177.357 21.7353C177.392 21.8146 177.409 21.9004 177.408 21.9869V24.2113C178.463 22.3362 180.352 21.1045 182.556 21.1045C185.056 21.1045 187 22.6855 187.797 24.9834C188.815 22.7039 190.797 21.1045 193.334 21.1045C196.945 21.1045 199 24.2113 199 27.5204Z" fill="#747580"/>
<path opacity="0.6" d="M14.3704 18.4021L-1 25.3327L14.3704 34.3591L29.7593 25.3327L14.3704 18.4021Z" fill="#747580"/>
<path opacity="0.45" d="M-1 25.3327L14.3704 34.3591V0L-1 25.3327Z" fill="#747580"/>
<path opacity="0.8" d="M14.3701 0V34.3591L29.759 25.3327L14.3701 0Z" fill="#747580"/>
<path opacity="0.45" d="M-1 28.2373L14.3704 49.7462V37.2453L-1 28.2373Z" fill="#747580"/>
<path opacity="0.8" d="M14.3701 37.2453V49.7462L29.759 28.2373L14.3701 37.2453Z" fill="#747580"/>
</g>
<defs>
<clipPath id="clip0_1_2545">
<rect width="199.722" height="49.7462" fill="#747580" transform="translate(0.383789)"/>
</clipPath>
</defs>
</svg>
