<svg width="181" height="51" viewBox="0 0 181 51" fill="none" xmlns="http://www.w3.org/2000/svg">
<path d="M28.501 8C18.2846 8 10.001 16.2836 10.001 26.5C10.001 36.7164 18.2846 45 28.501 45C38.7174 45 47.001 36.7164 47.001 26.5C46.9797 16.2836 38.7174 8 28.501 8ZM28.7771 27.0947L26.8655 33.5941H37.1456C37.5067 33.5941 37.7404 33.934 37.6554 34.2738L36.7633 37.3536C36.6784 37.651 36.4022 37.8634 36.0836 37.8634H20.3661L23.0211 28.8789L20.09 29.7922L20.7272 27.6682L23.6795 26.7549L27.4177 14.1383C27.5027 13.841 27.7788 13.6286 28.0974 13.6286H32.0693C32.4304 13.6286 32.664 13.9684 32.579 14.3083L29.4143 24.9707L32.3454 24.0574L31.7082 26.2026L28.7771 27.0947Z" fill="white"/>
<path d="M65.3767 7.83496H63.8077C63.5172 7.83496 63.3138 8.00972 63.2557 8.30098L59.1879 40.602C59.1588 40.9223 59.246 41.068 59.5656 41.068H61.1346C61.4542 41.068 61.6285 40.9223 61.6866 40.602L65.7835 8.30098C65.8707 7.98059 65.6963 7.83496 65.3767 7.83496Z" fill="white"/>
<path d="M73.5991 17.1554H72.0301C71.7395 17.1554 71.5362 17.301 71.4781 17.6214L68.5725 40.6311C68.5434 40.9515 68.7178 41.0971 69.0083 41.0971H70.5773C70.8679 41.0971 71.0713 40.9515 71.1294 40.6311L74.0059 17.6505C74.0349 17.3302 73.9187 17.1554 73.5991 17.1554Z" fill="white"/>
<path d="M142.345 16.7767C140.165 16.7767 138.277 17.3884 136.679 18.6408C135.081 19.8932 134.035 21.5243 133.512 23.5631C133.076 25.2233 132.698 27.5534 132.524 29.1262C132.291 31.2525 132.088 33 132.088 34.6894C132.117 36.7573 132.785 38.3884 134.035 39.6408C135.313 40.8641 137.056 41.5049 139.265 41.5049C141.415 41.5049 143.303 40.8932 144.901 39.6408C146.5 38.4175 147.546 36.7573 148.069 34.6894C148.417 33.3204 148.766 31.4855 149.056 29.1262C149.347 26.6796 149.492 24.8156 149.492 23.534C149.492 21.4952 148.853 19.8641 147.575 18.6408C146.267 17.3884 144.524 16.7767 142.345 16.7767ZM146.761 26.8835C146.616 28.0486 146.529 28.8059 146.5 29.1262C146.209 31.5146 145.947 33.2039 145.715 34.2233C145.366 35.7379 144.611 36.9612 143.478 37.8932C142.345 38.8253 141.008 39.2622 139.526 39.2622C138.015 39.2622 136.824 38.7962 135.923 37.8932C135.023 36.9903 134.587 35.7962 134.587 34.3107C134.587 33.5243 134.674 32.534 134.819 31.369C134.964 30.2039 135.052 29.4466 135.081 29.1262C135.371 26.8544 135.633 25.1651 135.865 24.0292C136.214 22.5146 136.969 21.2913 138.102 20.3593C139.236 19.4272 140.572 18.9903 142.054 18.9903C143.565 18.9903 144.756 19.4563 145.657 20.3301C146.558 21.233 146.993 22.4272 146.993 23.9127C146.993 24.7573 146.906 25.7185 146.761 26.8835Z" fill="white"/>
<path d="M158.442 17.1554H156.902C156.611 17.1554 156.408 17.3302 156.35 17.6214L153.415 40.6311C153.386 40.9515 153.561 41.0971 153.851 41.0971H155.42C155.711 41.0971 155.914 40.9515 155.972 40.6311L158.849 17.6505C158.878 17.3302 158.761 17.1554 158.442 17.1554Z" fill="white"/>
<path d="M178.258 18.5243C177.183 17.3884 175.672 16.835 173.696 16.835C172.418 16.835 171.255 17.068 170.18 17.5631C169.105 18.0583 168.205 18.7864 167.449 19.7767C167.304 19.8932 167.246 19.8641 167.246 19.6893L167.478 17.6505C167.507 17.3592 167.391 17.1845 167.1 17.1845H165.531C165.241 17.1845 165.038 17.3592 164.979 17.6505L162.103 40.6311C162.074 40.9223 162.161 41.0971 162.481 41.0971H164.05C164.34 41.0971 164.544 40.9223 164.573 40.6311L166.665 24.1456C167.013 22.602 167.74 21.3495 168.815 20.4466C169.89 19.5437 171.168 19.0777 172.679 19.0777C174.074 19.0777 175.178 19.5146 175.992 20.3884C176.805 21.2621 177.212 22.4272 177.212 23.9126C177.212 24.3495 177.183 24.699 177.154 24.9612L175.149 40.6311C175.149 40.7767 175.149 40.8641 175.207 40.9515C175.294 41.0388 175.41 41.0971 175.585 41.0971H177.154C177.444 41.0971 177.648 40.9515 177.677 40.6311L179.682 24.5825C179.74 23.9418 179.769 23.4757 179.769 23.1553C179.856 21.1748 179.333 19.6311 178.258 18.5243Z" fill="white"/>
<path d="M74.6163 7.86408C73.6865 7.36894 72.4952 7.71845 72.0303 8.67962C71.5364 9.61166 71.9141 10.8058 72.8439 11.301C73.7737 11.7961 74.9359 11.4175 75.4298 10.4854C75.9238 9.52428 75.5751 8.35923 74.6163 7.86408Z" fill="white"/>
<path d="M159.575 7.86408C158.645 7.36894 157.454 7.71845 156.989 8.67962C156.495 9.61166 156.873 10.8058 157.803 11.301C158.733 11.7961 159.924 11.4175 160.418 10.4854C160.883 9.52428 160.505 8.35923 159.575 7.86408Z" fill="white"/>
<path d="M121.889 16.7767C119.71 16.7767 117.822 17.4175 116.224 18.6408C114.626 19.8932 113.58 21.5243 113.057 23.5631C112.621 25.2233 112.214 27.8447 112.069 29.1262C111.865 30.9903 111.633 33 111.633 34.6894C111.662 36.7573 112.33 38.3884 113.58 39.6408C114.858 40.8641 116.601 41.5049 118.81 41.5049C120.96 41.5049 122.848 40.8932 124.446 39.6408C126.044 38.4175 127.09 36.7573 127.613 34.6894C127.642 34.5146 127.701 34.3398 127.73 34.1651C127.759 34.0195 127.642 33.9029 127.526 33.9029H125.58C125.463 33.9029 125.318 33.9612 125.289 34.136C125.289 34.1651 125.26 34.2233 125.26 34.2233C124.911 35.7379 124.156 36.9612 123.023 37.8932C121.889 38.8253 120.553 39.2622 119.071 39.2622C117.56 39.2622 116.369 38.7962 115.468 37.8932C114.567 36.9903 114.132 35.7962 114.132 34.3107C114.132 33.5243 114.219 32.534 114.364 31.369C114.48 30.3787 114.596 29.4466 114.626 29.1262C114.916 26.8544 115.178 25.1651 115.41 24.0292C115.759 22.5146 116.514 21.2913 117.647 20.3593C118.781 19.4272 120.117 18.9903 121.599 18.9903C123.081 18.9903 124.301 19.4272 125.202 20.3301C126.103 21.233 126.538 22.4272 126.538 23.9127V23.9418C126.538 24.1457 126.713 24.3204 126.916 24.3204H128.747C128.892 24.3204 129.037 24.2039 129.037 24.0292C129.037 23.8253 129.037 23.6505 129.037 23.4758C129.037 21.4369 128.398 19.8059 127.119 18.5826C125.812 17.3884 124.098 16.7767 121.889 16.7767Z" fill="white"/>
<path d="M106.112 18.6408C104.833 17.4175 103.09 16.7767 100.911 16.7767C98.7318 16.7767 96.8432 17.3884 95.2451 18.6408C93.647 19.8932 92.601 21.5243 92.078 23.5631C91.6422 25.2233 91.4388 26.7088 91.0901 29.1262C90.7705 31.5146 90.6543 33 90.6543 34.6894C90.6834 36.7573 91.3516 38.3884 92.601 39.6408C93.8795 40.8641 95.6228 41.5049 97.8311 41.5049C99.9812 41.5049 101.87 40.8932 103.468 39.6408C105.066 38.4175 106.112 36.7573 106.635 34.6894C106.664 34.5146 106.722 34.3398 106.751 34.1651C106.78 34.0195 106.693 33.9029 106.548 33.9029H104.601C104.485 33.9029 104.34 33.9612 104.31 34.136C104.31 34.1651 104.281 34.2233 104.281 34.2233C103.933 35.7379 103.177 36.9612 102.044 37.8932C100.911 38.8253 99.5744 39.2622 98.0926 39.2622C96.5817 39.2622 95.3904 38.7962 94.4897 37.8932C93.5889 36.9903 93.1531 35.7962 93.1531 34.3107C93.1531 33.6117 93.2112 32.7379 93.3274 31.7476L107.448 27.3495C107.739 27.2622 107.855 27.1165 107.913 26.767C108.001 26.0389 108.059 24.7864 108.059 23.5049C108.03 21.6699 107.39 19.8641 106.112 18.6408ZM105.56 25.2525C105.56 25.3981 105.473 25.5146 105.327 25.5437L93.618 29.1845C93.618 29.1554 93.618 29.1554 93.618 29.1262C93.9085 26.8544 94.17 25.1651 94.4025 24.0292C94.7511 22.5146 95.5066 21.2913 96.6398 20.3593C97.7729 19.4272 99.1095 18.9903 100.591 18.9903C102.102 18.9903 103.294 19.4563 104.194 20.3301C105.618 21.8156 105.647 23.3301 105.56 25.2525Z" fill="white"/>
<path d="M85.2795 38.5631C85.5701 38.4175 85.8897 38.6214 85.8316 38.9418L85.6282 40.5146C85.5991 40.7185 85.4539 40.8932 85.2795 40.9806C83.8849 41.5049 81.9381 41.7379 80.3691 41.0388C78.5677 40.2233 78.1028 38.4466 78.3643 36.233L80.4272 19.3689L80.7178 16.9515L81.4151 11.5922C81.4442 11.2719 81.6476 11.1262 81.9672 11.1262H83.4781C83.8267 11.1262 83.9139 11.3301 83.8558 11.5922L82.9551 19.2233H87.8655C88.156 19.2233 88.2723 19.3981 88.2723 19.6893L88.127 20.7961C88.0979 20.9709 88.0689 21.0583 87.9817 21.1748C87.8945 21.2621 87.7202 21.2913 87.604 21.2913H82.7226L81.0083 35.1262C80.834 36.6117 80.6306 37.9515 81.3861 38.6796C82.374 39.4952 84.2916 39.0291 85.2795 38.5631Z" fill="white"/>
</svg>
