<svg width="178" height="27" viewBox="0 0 178 27" fill="none" xmlns="http://www.w3.org/2000/svg">
<path opacity="0.6" d="M0.549599 18.1558V13.7979H7.64188V7.21826H11.9998V13.7979H19.1092V18.1558H11.9998V24.7183H7.64188V18.1558H0.549599ZM39.3094 26.4272C33.9432 26.4272 30.3885 23.2998 30.0808 19.1812L30.0638 18.9248H34.8318L34.866 19.0444C35.2249 20.9072 36.951 22.3428 39.3265 22.3428C42.0266 22.3428 43.9236 20.4971 43.9236 17.8652V17.8311C43.9065 15.2334 42.0096 13.4048 39.3435 13.4048C38.0789 13.4048 37.0022 13.7808 36.1648 14.4473C35.6692 14.8232 35.2762 15.3018 34.9856 15.8145H30.491L31.6189 1.33936H47.3587V5.44092H35.7205L35.1224 12.3794H35.2249C36.2503 10.7217 38.284 9.71338 40.7791 9.71338C45.4617 9.71338 48.8455 13.0801 48.8455 17.7285V17.7627C48.8455 22.9238 44.949 26.4272 39.3094 26.4272ZM61.4578 26.4272C55.2029 26.4272 51.409 21.5225 51.409 13.6782V13.644C51.409 5.7998 55.2029 0.912109 61.4578 0.912109C67.7127 0.912109 71.5066 5.7998 71.5066 13.644V13.6782C71.5066 21.5225 67.7127 26.4272 61.4578 26.4272ZM61.4578 22.2915C64.534 22.2915 66.2942 19.0957 66.2942 13.6782V13.644C66.2942 8.22656 64.534 5.04785 61.4578 5.04785C58.3816 5.04785 56.6214 8.22656 56.6214 13.644V13.6782C56.6214 19.0957 58.3816 22.2915 61.4578 22.2915ZM81.9314 26V1.33936H87.8958L94.9026 19.0615H95.0052L102.012 1.33936H107.976V26H103.379V9.32031H103.225L96.5774 26H93.3304L86.6653 9.32031H86.5286V26H81.9314ZM123.203 26.4272C115.872 26.4272 111.309 21.5225 111.309 13.6782V13.644C111.309 5.7998 115.906 0.912109 123.203 0.912109C130.518 0.912109 135.098 5.81689 135.098 13.644V13.6782C135.098 21.5225 130.535 26.4272 123.203 26.4272ZM123.203 22.0522C127.305 22.0522 129.834 18.7881 129.834 13.6782V13.644C129.834 8.5 127.254 5.28711 123.203 5.28711C119.17 5.28711 116.573 8.48291 116.573 13.644V13.6782C116.573 18.8394 119.153 22.0522 123.203 22.0522ZM138.43 26V1.33936H148.616C154.153 1.33936 157.434 4.27881 157.434 9.23486V9.26904C157.434 12.5161 155.708 15.2163 152.974 16.293L158.169 26H152.324L147.727 17.062H143.592V26H138.43ZM143.592 13.1484H148.052C150.616 13.1484 152.154 11.6958 152.154 9.26904V9.23486C152.154 6.87646 150.53 5.37256 147.984 5.37256H143.592V13.1484ZM160.852 26V1.33936H177.19V5.59473H166.013V11.5078H176.558V15.541H166.013V21.7446H177.19V26H160.852Z" fill="white"/>
</svg>
