<svg width="92" height="14" viewBox="0 0 92 14" fill="none" xmlns="http://www.w3.org/2000/svg">
<path opacity="0.6" d="M0.174805 8.96582V6.72461H3.82227V3.34082H6.06348V6.72461H9.71973V8.96582H6.06348V12.3408H3.82227V8.96582H0.174805ZM20.1084 13.2197C17.3486 13.2197 15.5205 11.6113 15.3623 9.49316L15.3535 9.36133H17.8057L17.8232 9.42285C18.0078 10.3809 18.8955 11.1191 20.1172 11.1191C21.5059 11.1191 22.4814 10.1699 22.4814 8.81641V8.79883C22.4727 7.46289 21.4971 6.52246 20.126 6.52246C19.4756 6.52246 18.9219 6.71582 18.4912 7.05859C18.2363 7.25195 18.0342 7.49805 17.8848 7.76172H15.5732L16.1533 0.317383H24.248V2.42676H18.2627L17.9551 5.99512H18.0078C18.5352 5.14258 19.5811 4.62402 20.8643 4.62402C23.2725 4.62402 25.0127 6.35547 25.0127 8.74609V8.76367C25.0127 11.418 23.0088 13.2197 20.1084 13.2197ZM31.499 13.2197C28.2822 13.2197 26.3311 10.6973 26.3311 6.66309V6.64551C26.3311 2.61133 28.2822 0.0976562 31.499 0.0976562C34.7158 0.0976562 36.667 2.61133 36.667 6.64551V6.66309C36.667 10.6973 34.7158 13.2197 31.499 13.2197ZM31.499 11.0928C33.0811 11.0928 33.9863 9.44922 33.9863 6.66309V6.64551C33.9863 3.85938 33.0811 2.22461 31.499 2.22461C29.917 2.22461 29.0117 3.85938 29.0117 6.64551V6.66309C29.0117 9.44922 29.917 11.0928 31.499 11.0928ZM42.0283 13V0.317383H45.0957L48.6992 9.43164H48.752L52.3555 0.317383H55.4229V13H53.0586V4.42188H52.9795L49.5605 13H47.8906L44.4629 4.42188H44.3926V13H42.0283ZM63.2539 13.2197C59.4834 13.2197 57.1367 10.6973 57.1367 6.66309V6.64551C57.1367 2.61133 59.501 0.0976562 63.2539 0.0976562C67.0156 0.0976562 69.3711 2.62012 69.3711 6.64551V6.66309C69.3711 10.6973 67.0244 13.2197 63.2539 13.2197ZM63.2539 10.9697C65.3633 10.9697 66.6641 9.29102 66.6641 6.66309V6.64551C66.6641 4 65.3369 2.34766 63.2539 2.34766C61.1797 2.34766 59.8438 3.99121 59.8438 6.64551V6.66309C59.8438 9.31738 61.1709 10.9697 63.2539 10.9697ZM71.085 13V0.317383H76.3232C79.1709 0.317383 80.8584 1.8291 80.8584 4.37793V4.39551C80.8584 6.06543 79.9707 7.4541 78.5645 8.00781L81.2363 13H78.2305L75.8662 8.40332H73.7393V13H71.085ZM73.7393 6.39062H76.0332C77.3516 6.39062 78.1426 5.64355 78.1426 4.39551V4.37793C78.1426 3.16504 77.3076 2.3916 75.998 2.3916H73.7393V6.39062ZM82.6162 13V0.317383H91.0186V2.50586H85.2705V5.54688H90.6934V7.62109H85.2705V10.8115H91.0186V13H82.6162Z" fill="white"/>
</svg>
