<svg width="201" height="41" viewBox="0 0 201 41" fill="none" xmlns="http://www.w3.org/2000/svg">
<g clip-path="url(#clip0_1_2540)">
<path d="M20.4928 40.5594C31.81 40.5594 40.9846 31.4798 40.9846 20.2797C40.9846 9.07953 31.81 0 20.4928 0C9.17546 0 0.000976562 9.07953 0.000976562 20.2797C0.000976562 31.4798 9.17546 40.5594 20.4928 40.5594Z" fill="white"/>
<path d="M14.514 25.6577C13.4478 25.7027 12.3957 25.4038 11.5162 24.8058C11.1362 24.5186 10.8326 24.144 10.6318 23.7145C10.4309 23.2852 10.3387 22.8139 10.3633 22.3412C10.3679 22.066 10.3937 21.7912 10.4402 21.5199C10.5734 20.7884 10.763 19.9111 11.0089 18.8878C11.7059 16.0985 13.5044 14.7038 16.4047 14.7038C17.1316 14.6921 17.8533 14.8267 18.526 15.0995C19.1232 15.3311 19.637 15.7337 20.0018 16.2557C20.3697 16.7937 20.5576 17.4323 20.5393 18.0816C20.534 18.3518 20.5084 18.6213 20.4624 18.8878C20.3085 19.7905 20.1241 20.6677 19.9091 21.5199C19.5508 22.9092 18.9307 23.9488 18.049 24.6385C17.1682 25.318 15.9899 25.6577 14.514 25.6577ZM14.7294 23.4669C15.2618 23.4815 15.7813 23.303 16.19 22.965C16.6417 22.5596 16.949 22.0206 17.0661 21.4284C17.3019 20.4752 17.4811 19.6437 17.6036 18.9333C17.6448 18.7176 17.6654 18.4986 17.6651 18.2791C17.6651 17.3559 17.1783 16.8945 16.2048 16.8947C15.668 16.882 15.1444 17.0601 14.729 17.3967C14.2857 17.8064 13.9843 18.3442 13.868 18.9333C13.6835 19.6129 13.4991 20.4444 13.3148 21.4284C13.273 21.6389 13.2524 21.8528 13.2533 22.0674C13.2533 23.0005 13.7453 23.4669 14.7294 23.4669Z" fill="#1A1B2E"/>
<path d="M21.2474 25.5058C21.1986 25.5086 21.1496 25.5005 21.1045 25.4821C21.0592 25.4638 21.0187 25.4354 20.9861 25.3995C20.9349 25.3176 20.9183 25.2193 20.94 25.1256L23.0615 15.2363C23.0801 15.1272 23.1402 15.0292 23.2293 14.9624C23.3117 14.8951 23.4148 14.8576 23.5217 14.856H27.6109C28.5738 14.8092 29.5281 15.0533 30.3474 15.5558C30.6842 15.7742 30.9578 16.0757 31.1412 16.4305C31.3244 16.7853 31.4113 17.1813 31.3929 17.5795C31.3914 17.8458 31.3605 18.1111 31.3004 18.3707C31.131 19.3958 30.5765 20.3197 29.7478 20.9573C28.9791 21.515 27.9236 21.794 26.581 21.794H24.506L23.7988 25.1258C23.7799 25.2349 23.7199 25.3328 23.6308 25.3997C23.5486 25.4671 23.4455 25.5046 23.339 25.5062L21.2474 25.5058ZM26.6896 19.6939C27.0922 19.7027 27.4867 19.5797 27.8119 19.3441C28.1463 19.1011 28.3767 18.7429 28.4574 18.3401C28.4861 18.1896 28.5015 18.0368 28.5035 17.8837C28.5123 17.7599 28.4933 17.6358 28.4482 17.5201C28.4031 17.4043 28.3326 17.2999 28.2422 17.2141C27.9857 17.0266 27.6681 16.9399 27.3506 16.9707H25.506L24.9217 19.6939H26.6896Z" fill="#1A1B2E"/>
<path d="M57.821 30.422C56.639 30.422 55.5415 30.2642 54.5283 29.9485C53.5152 29.6329 52.6617 29.1594 51.9675 28.5281C51.2732 27.8968 50.7761 27.1077 50.4759 26.1608C50.1945 25.214 50.157 24.1091 50.3634 22.8465C50.5134 22.0481 50.673 21.2497 50.8419 20.4515C51.0294 19.653 51.2171 18.8453 51.4046 18.0284C52.0238 15.5218 53.14 13.6187 54.7535 12.319C56.3671 11.0192 58.5433 10.3694 61.2824 10.3694C62.4644 10.3694 63.5527 10.5365 64.547 10.8707C65.5601 11.1864 66.4138 11.6691 67.1078 12.319C67.8208 12.9688 68.3181 13.7672 68.5994 14.7141C68.8997 15.6611 68.9372 16.7658 68.7119 18.0284C68.5806 18.8453 68.4212 19.653 68.2337 20.4515C68.0648 21.2497 67.8865 22.0481 67.6988 22.8465C67.0609 25.3902 65.9353 27.2935 64.3218 28.5561C62.7085 29.8 60.5415 30.422 57.821 30.422ZM58.1869 26.4115C59.2001 26.4115 60.0913 26.1144 60.8603 25.5202C61.6296 24.926 62.1736 23.9791 62.4927 22.6794C62.699 21.8626 62.8773 21.0919 63.0273 20.3679C63.1962 19.6437 63.3462 18.8917 63.4775 18.1119C63.7216 16.8122 63.6089 15.8653 63.1398 15.2711C62.6708 14.677 61.9298 14.3799 60.9167 14.3799C59.9035 14.3799 59.0124 14.677 58.2431 15.2711C57.4927 15.8653 56.9581 16.8122 56.639 18.1119C56.4326 18.8917 56.2451 19.6437 56.0763 20.3679C55.9261 21.0919 55.7761 21.8626 55.6259 22.6794C55.4009 23.9791 55.5134 24.926 55.9636 25.5202C56.414 26.1144 57.155 26.4115 58.1869 26.4115ZM71.6927 30.1436C71.505 30.1436 71.355 30.0785 71.2425 29.9485C71.1298 29.8185 71.0923 29.6514 71.1298 29.4472L75.0134 11.3442C75.0509 11.1399 75.1542 10.9728 75.323 10.8429C75.4919 10.7129 75.6701 10.6479 75.8576 10.6479H83.3435C84.488 10.6479 85.5197 10.7779 86.4392 11.0378C87.3771 11.2977 88.1558 11.697 88.7749 12.2354C89.3941 12.7738 89.8255 13.4516 90.0695 14.2685C90.3134 15.0669 90.3228 16.0046 90.0976 17.0814C89.6285 19.2167 88.6718 20.7948 87.2271 21.8161C85.8013 22.8372 83.8781 23.3478 81.4581 23.3478H77.6589L76.3642 29.4472C76.3267 29.6514 76.2236 29.8185 76.0548 29.9485C75.9046 30.0785 75.7263 30.1436 75.5199 30.1436H71.6927ZM78.3904 19.5045H81.6269C82.396 19.5045 83.0808 19.3002 83.6812 18.8917C84.3003 18.4833 84.7038 17.8613 84.8913 17.0257C84.9851 16.543 85.004 16.1159 84.9476 15.7446C84.8913 15.3733 84.6943 15.0762 84.3566 14.8534C84.0378 14.6306 83.5404 14.5192 82.865 14.5192H79.488L78.3904 19.5045ZM95.2978 30.1436C95.0912 30.1436 94.9318 30.0785 94.8193 29.9485C94.7068 29.8185 94.6691 29.6514 94.7068 29.4472L97.8306 15.0205H92.8212C92.6337 15.0205 92.4835 14.9555 92.371 14.8255C92.2585 14.677 92.2208 14.5099 92.2585 14.3242L92.9056 11.3442C92.9431 11.1399 93.0369 10.9728 93.1871 10.8429C93.356 10.7129 93.5435 10.6479 93.7499 10.6479H108.89C109.097 10.6479 109.247 10.7129 109.34 10.8429C109.453 10.9728 109.49 11.1399 109.453 11.3442L108.806 14.3242C108.768 14.5099 108.665 14.677 108.496 14.8255C108.346 14.9555 108.168 15.0205 107.962 15.0205H102.952L99.8568 29.4472C99.8191 29.6514 99.716 29.8185 99.5472 29.9485C99.397 30.0785 99.2189 30.1436 99.0126 30.1436H95.2978ZM110.043 30.1436C109.836 30.1436 109.677 30.0785 109.564 29.9485C109.452 29.8185 109.414 29.6514 109.452 29.4472L113.364 11.3442C113.401 11.1399 113.504 10.9728 113.673 10.8429C113.842 10.7129 114.02 10.6479 114.208 10.6479H118.007C118.195 10.6479 118.345 10.7129 118.457 10.8429C118.57 10.9728 118.607 11.1399 118.57 11.3442L114.658 29.4472C114.621 29.6514 114.517 29.8185 114.348 29.9485C114.198 30.0785 114.03 30.1436 113.842 30.1436H110.043ZM121.588 30.1436C121.381 30.1436 121.222 30.0785 121.109 29.9485C120.997 29.8185 120.959 29.6514 120.997 29.4472L124.88 11.3442C124.918 11.1399 125.021 10.9728 125.19 10.8429C125.358 10.7129 125.546 10.6479 125.753 10.6479H128.792C129.092 10.6479 129.298 10.7315 129.411 10.8986C129.542 11.0471 129.627 11.1678 129.664 11.2606L132.704 20.0615L139.57 11.2606C139.626 11.1678 139.739 11.0471 139.908 10.8986C140.096 10.7315 140.339 10.6479 140.64 10.6479H143.679C143.885 10.6479 144.045 10.7129 144.157 10.8429C144.27 10.9728 144.307 11.1399 144.27 11.3442L140.386 29.4472C140.349 29.6514 140.246 29.8185 140.077 29.9485C139.908 30.0785 139.72 30.1436 139.514 30.1436H136.137C135.949 30.1436 135.799 30.0785 135.687 29.9485C135.574 29.8185 135.537 29.6514 135.574 29.4472L137.769 19.1703L133.463 24.824C133.332 24.9724 133.173 25.1211 132.985 25.2695C132.816 25.3995 132.6 25.4646 132.338 25.4646H130.874C130.612 25.4646 130.424 25.3995 130.312 25.2695C130.199 25.1396 130.115 24.9911 130.058 24.824L128.06 18.9196L125.781 29.4472C125.743 29.6514 125.64 29.8185 125.471 29.9485C125.321 30.0785 125.152 30.1436 124.965 30.1436H121.588ZM146.412 30.1436C146.206 30.1436 146.046 30.0785 145.934 29.9485C145.821 29.8185 145.784 29.6514 145.821 29.4472L149.733 11.3442C149.771 11.1399 149.874 10.9728 150.043 10.8429C150.212 10.7129 150.39 10.6479 150.577 10.6479H154.376C154.564 10.6479 154.714 10.7129 154.827 10.8429C154.939 10.9728 154.977 11.1399 154.939 11.3442L151.027 29.4472C150.99 29.6514 150.887 29.8185 150.718 29.9485C150.568 30.0785 150.399 30.1436 150.212 30.1436H146.412ZM164.204 30.422C162.328 30.422 160.789 30.162 159.589 29.6423C158.407 29.1223 157.553 28.4352 157.028 27.5812C156.521 26.7086 156.343 25.7895 156.493 24.824C156.531 24.6753 156.606 24.5456 156.718 24.434C156.849 24.304 157 24.2391 157.168 24.2391H160.771C161.033 24.2391 161.221 24.2856 161.333 24.3785C161.446 24.4711 161.559 24.5918 161.671 24.7404C161.746 25.0189 161.896 25.2882 162.121 25.5482C162.347 25.808 162.656 26.0215 163.05 26.1886C163.463 26.3373 163.97 26.4115 164.57 26.4115C165.658 26.4115 166.53 26.2444 167.187 25.9102C167.844 25.576 168.228 25.1211 168.341 24.5456C168.453 24.1369 168.378 23.8027 168.116 23.5429C167.872 23.2643 167.431 23.023 166.793 22.8187C166.174 22.5959 165.339 22.3732 164.288 22.1503C162.919 21.8532 161.793 21.4448 160.911 20.9248C160.03 20.3864 159.41 19.7087 159.054 18.8917C158.716 18.0562 158.669 17.0629 158.913 15.9117C159.288 14.2035 160.217 12.8574 161.699 11.8733C163.181 10.8707 165.105 10.3694 167.468 10.3694C168.688 10.3694 169.767 10.5365 170.705 10.8707C171.662 11.2049 172.459 11.6505 173.097 12.2075C173.735 12.7646 174.194 13.3587 174.476 13.99C174.757 14.6027 174.851 15.2062 174.757 15.8003C174.738 15.9488 174.663 16.0881 174.532 16.2181C174.401 16.3295 174.251 16.3852 174.082 16.3852H170.311C170.123 16.3852 169.954 16.348 169.804 16.2738C169.673 16.1995 169.56 16.0788 169.466 15.9117C169.466 15.5032 169.251 15.1505 168.819 14.8534C168.388 14.5377 167.815 14.3799 167.103 14.3799C166.296 14.3799 165.62 14.5285 165.076 14.8255C164.532 15.104 164.195 15.5404 164.063 16.1345C163.97 16.5059 164.016 16.8308 164.204 17.1093C164.41 17.3878 164.785 17.6292 165.33 17.8334C165.892 18.0377 166.662 18.2512 167.637 18.474C169.288 18.7896 170.583 19.2167 171.521 19.7551C172.459 20.275 173.088 20.9341 173.406 21.7326C173.744 22.531 173.791 23.5056 173.547 24.6569C173.134 26.5508 172.131 27.9897 170.536 28.9738C168.96 29.9392 166.849 30.422 164.204 30.422ZM177.012 30.1436C176.805 30.1436 176.646 30.0785 176.533 29.9485C176.421 29.8185 176.383 29.6514 176.421 29.4472L180.304 11.3442C180.342 11.1399 180.445 10.9728 180.614 10.8429C180.783 10.7129 180.97 10.6479 181.176 10.6479H184.216C184.516 10.6479 184.722 10.7315 184.835 10.8986C184.966 11.0471 185.051 11.1678 185.088 11.2606L188.128 20.0615L194.994 11.2606C195.051 11.1678 195.163 11.0471 195.332 10.8986C195.52 10.7315 195.764 10.6479 196.064 10.6479H199.103C199.309 10.6479 199.469 10.7129 199.581 10.8429C199.694 10.9728 199.732 11.1399 199.694 11.3442L195.81 29.4472C195.773 29.6514 195.67 29.8185 195.501 29.9485C195.332 30.0785 195.144 30.1436 194.938 30.1436H191.561C191.373 30.1436 191.223 30.0785 191.111 29.9485C190.998 29.8185 190.961 29.6514 190.998 29.4472L193.193 19.1703L188.888 24.824C188.756 24.9724 188.597 25.1211 188.409 25.2695C188.24 25.3995 188.024 25.4646 187.762 25.4646H186.298C186.036 25.4646 185.848 25.3995 185.735 25.2695C185.623 25.1396 185.539 24.9911 185.482 24.824L183.484 18.9196L181.205 29.4472C181.167 29.6514 181.064 29.8185 180.895 29.9485C180.745 30.0785 180.576 30.1436 180.389 30.1436H177.012Z" fill="white"/>
</g>
<defs>
<clipPath id="clip0_1_2540">
<rect width="199.722" height="40.5594" fill="white" transform="translate(0.850586)"/>
</clipPath>
</defs>
</svg>
