<svg width="201" height="51" viewBox="0 0 201 51" fill="none" xmlns="http://www.w3.org/2000/svg">
<path d="M71.5163 26.6853H77.9415C78.845 26.6853 79.5771 27.4287 79.5771 28.3365C79.5771 29.2521 78.845 29.9877 77.9415 29.9877H70.1923C70.0677 29.9877 69.9509 30.0346 69.8652 30.1129L67.5288 32.1397C67.1705 32.4527 67.3886 33.0396 67.8559 33.0396H77.5521C77.5521 33.0396 77.5599 33.0396 77.5599 33.0318C77.5599 33.024 77.5677 33.024 77.5677 33.024C77.6923 33.0318 77.8091 33.0396 77.9338 33.0396C80.5038 33.0396 82.5911 30.9346 82.5911 28.3365C82.5911 25.8714 80.7141 23.8446 78.3154 23.649C78.3154 23.649 78.3076 23.649 78.3076 23.6411C78.3076 23.6333 78.3076 23.6333 78.2998 23.6333H71.3839C70.4805 23.6333 69.7484 22.8899 69.7484 21.9821C69.7484 21.0665 70.4805 20.3309 71.3839 20.3309H79.1175C79.2422 20.3309 79.3668 20.284 79.4602 20.1979L81.6331 18.171C81.9758 17.8502 81.7499 17.2789 81.2904 17.2789H71.5163C71.4774 17.2789 71.4306 17.2789 71.3917 17.2789C68.8216 17.2789 66.7344 19.384 66.7344 21.9821C66.7344 24.5802 68.8216 26.6853 71.3917 26.6853C71.4306 26.6853 71.4696 26.6853 71.5163 26.6853Z" fill="#747580"/>
<path d="M108.915 17.271C108.635 17.271 108.409 17.498 108.409 17.7875V32.5309C108.409 32.8126 108.635 33.0474 108.915 33.0474H120.676C120.816 33.0474 120.948 32.9848 121.049 32.883L122.521 31.2944C122.825 30.9658 122.599 30.4258 122.147 30.4258H111.883C111.602 30.4258 111.376 30.1989 111.376 29.9093V17.7797C111.376 17.498 111.151 17.2632 110.87 17.2632H108.915V17.271Z" fill="#747580"/>
<path fill-rule="evenodd" clip-rule="evenodd" d="M90.0831 17.271C90.0831 17.2788 90.0831 17.2788 90.0831 17.271C88.58 17.3414 87.3728 18.5544 87.3027 20.0647V29.9797C87.3027 30.0189 87.3027 30.0658 87.3027 30.1049C87.3027 31.6779 88.5333 32.9613 90.0831 33.0239H100.753C102.295 32.9535 103.533 31.6701 103.533 30.1049C103.533 30.0658 103.533 30.0189 103.533 29.9797V20.0726C103.471 18.5622 102.264 17.3414 100.761 17.2788H90.0831V17.271ZM92.0769 20.0726C92.0691 20.0726 92.0691 20.0726 92.0769 20.0726C91.1345 20.1117 90.3791 20.8786 90.3401 21.8333V28.0703C90.3401 28.0938 90.3401 28.1251 90.3401 28.1486C90.3401 29.1346 91.1111 29.9484 92.0769 29.9876H98.7669C99.7326 29.9484 100.504 29.1346 100.504 28.1486C100.504 28.1251 100.504 28.0938 100.504 28.0703V21.8333C100.465 20.8786 99.7093 20.1195 98.7669 20.0726H92.0769Z" fill="#747580"/>
<path fill-rule="evenodd" clip-rule="evenodd" d="M139.617 32.531C139.617 32.8127 139.843 33.0475 140.123 33.0475H142.117C142.397 33.0475 142.623 32.8205 142.623 32.531V20.3309C142.623 20.2918 142.623 20.2448 142.623 20.2057C142.623 18.6327 141.4 17.3493 139.874 17.2867H129.632C129.593 17.2867 129.547 17.2867 129.508 17.2867C127.919 17.2867 126.634 18.5936 126.634 20.2135C126.634 20.2526 126.634 20.2996 126.634 20.3387V32.5388C126.634 32.8205 126.86 33.0553 127.14 33.0553H129.134C129.414 33.0553 129.64 32.8283 129.64 32.5388V27.46C129.64 27.1783 129.866 26.9435 130.146 26.9435H139.134C139.414 26.9435 139.64 27.1704 139.64 27.46V32.531H139.617ZM129.624 24.1341V21.5986C129.624 20.6126 130.411 19.8144 131.377 19.8144H137.872C138.838 19.8144 139.624 20.6126 139.624 21.5986V24.1341C139.624 24.4158 139.399 24.6506 139.118 24.6506H130.131C129.85 24.6506 129.624 24.4237 129.624 24.1341Z" fill="#747580"/>
<path fill-rule="evenodd" clip-rule="evenodd" d="M181.711 33.0475C181.431 33.0475 181.205 32.8205 181.205 32.531V27.4522C181.205 27.1705 180.979 26.9357 180.699 26.9357H171.61C171.33 26.9357 171.104 27.1626 171.104 27.4522V32.531C171.104 32.8127 170.878 33.0475 170.598 33.0475H168.588C168.308 33.0475 168.082 32.8205 168.082 32.531V20.3309C168.082 20.2918 168.082 20.2448 168.082 20.2057C168.082 18.5936 169.383 17.2789 170.987 17.2789C171.026 17.2789 171.073 17.2789 171.112 17.2789H181.462C183.004 17.3494 184.242 18.6328 184.242 20.1979C184.242 20.237 184.242 20.284 184.242 20.3231V32.5232C184.242 32.8049 184.017 33.0396 183.736 33.0396H181.711V33.0475ZM171.104 21.5986V24.1341C171.104 24.4159 171.33 24.6506 171.61 24.6506H180.699C180.979 24.6506 181.205 24.4237 181.205 24.1341V21.5986C181.205 20.6126 180.411 19.8144 179.437 19.8144H172.872C171.89 19.8144 171.104 20.6126 171.104 21.5986Z" fill="#747580"/>
<path d="M150.13 17.271C150.278 17.271 150.418 17.3336 150.512 17.451L159.452 28.1642C159.756 28.5242 160.34 28.3051 160.34 27.8277V17.7875C160.34 17.5058 160.566 17.271 160.846 17.271H162.84C163.121 17.271 163.346 17.4979 163.346 17.7875V32.5309C163.346 32.8126 163.121 33.0474 162.84 33.0474H160.364C160.356 33.0474 160.348 33.0395 160.348 33.0317C160.348 33.0239 160.348 33.0239 160.34 33.0161L151.244 22.3811C150.94 22.0211 150.356 22.2481 150.356 22.7176V32.5387C150.356 32.8204 150.13 33.0552 149.85 33.0552H147.84C147.56 33.0552 147.334 32.8282 147.334 32.5387V17.7875C147.334 17.5058 147.56 17.271 147.84 17.271H150.13Z" fill="#747580"/>
<path d="M20.3717 33.5873C20.621 33.3369 20.9559 33.196 21.3063 33.196H53.744C54.3359 33.196 54.6319 33.916 54.2113 34.3308L47.8017 40.7712C47.5524 41.0216 47.2175 41.1625 46.8671 41.1625H14.4294C13.8375 41.1625 13.5415 40.4425 13.9621 40.0278L20.3717 33.5873Z" fill="#747580"/>
<path d="M20.3717 9.54716C20.621 9.29674 20.9559 9.15588 21.3063 9.15588H53.744C54.3359 9.15588 54.6319 9.87584 54.2113 10.2906L47.8017 16.7232C47.5524 16.9736 47.2175 17.1145 46.8671 17.1145H14.4294C13.8375 17.1145 13.5415 16.3945 13.9621 15.9798L20.3717 9.54716Z" fill="#747580"/>
<path d="M47.8017 21.4891C47.5524 21.2386 47.2175 21.0978 46.8671 21.0978H14.4294C13.8375 21.0978 13.5415 21.8177 13.9621 22.2325L20.3717 28.6651C20.621 28.9155 20.9559 29.0564 21.3063 29.0564H53.744C54.3359 29.0564 54.6319 28.3364 54.2113 27.9217L47.8017 21.4891Z" fill="#747580"/>
</svg>
