<svg width="181" height="69" viewBox="0 0 181 69" fill="none" xmlns="http://www.w3.org/2000/svg">
<path d="M74.5805 29.9138H71.9165V47.3485H74.5805V29.9138Z" fill="white"/>
<path d="M86.5143 22.5286H64.8003V25.1988H86.5143V22.5286Z" fill="white"/>
<path d="M79.392 29.9138H76.728V47.3485H79.392V29.9138Z" fill="white"/>
<path d="M152.989 47.3666H155.677V36.8661L152.989 33.8711V47.3666Z" fill="white"/>
<path d="M167.142 22.5286V41.996L148.128 20.8146V47.3665H150.81V27.8931L169.836 49.0805V22.5286H167.142Z" fill="white"/>
<path d="M130.723 22.5166C123.889 22.5166 118.333 28.0856 118.333 34.9356C118.333 41.7856 123.889 47.3546 130.723 47.3546C137.557 47.3546 143.113 41.7856 143.113 34.9356C143.113 28.0916 137.557 22.5166 130.723 22.5166ZM130.723 44.6783C125.365 44.6783 121.003 40.3121 121.003 34.9356C121.003 29.559 125.359 25.1928 130.723 25.1928C136.081 25.1928 140.443 29.559 140.443 34.9356C140.443 40.3061 136.081 44.6783 130.723 44.6783Z" fill="white"/>
<path d="M130.723 33.1494C129.739 33.1494 128.941 33.9493 128.941 34.9356C128.941 35.9219 129.739 36.7217 130.723 36.7217C131.707 36.7217 132.505 35.9219 132.505 34.9356C132.505 33.9493 131.707 33.1494 130.723 33.1494Z" fill="white"/>
<path d="M113.671 30.1483C113.671 25.9505 110.287 22.5345 106.129 22.5345H91.9565V47.3725H94.6025V25.2288H106.129C108.799 25.2288 110.971 27.436 110.971 30.1483C110.971 32.8486 108.829 35.0437 106.183 35.0738L96.7805 35.0678V47.3725H99.4265V37.7621H105.625L110.689 47.3665H113.767L108.481 37.3832C111.535 36.3668 113.671 33.4079 113.671 30.1483Z" fill="white"/>
<path d="M46.4825 17.6091L10.3745 10.9515L29.3765 58.8714L55.8485 26.5399L46.4825 17.6091ZM45.9065 20.5439L51.4325 25.8062L36.3245 28.5486L45.9065 20.5439ZM33.0425 28.0013L17.1185 14.7644L43.1405 19.5636L33.0425 28.0013ZM31.9025 30.3468L29.3105 51.859L15.3125 16.5446L31.9025 30.3468ZM34.3025 31.4834L51.0305 28.4464L31.8485 51.877L34.3025 31.4834Z" fill="white"/>
</svg>
