<svg width="25" height="9" viewBox="0 0 25 9" fill="none" xmlns="http://www.w3.org/2000/svg">
<path d="M0.566406 5.55859V4.76758H5.73242V5.55859H0.566406ZM2.75391 7.79492V2.53125H3.54492V7.79492H2.75391ZM8.80859 8V1.93066H8.73047L6.93848 3.22949V2.30176L8.81348 0.954102H9.6875V8H8.80859ZM13.4473 8V1.93066H13.3691L11.5771 3.22949V2.30176L13.4521 0.954102H14.3262V8H13.4473ZM17.6758 4.66016C17.3763 4.66016 17.1191 4.58366 16.9043 4.43066C16.6895 4.27441 16.5234 4.05469 16.4062 3.77148C16.2923 3.48503 16.2354 3.14811 16.2354 2.76074V2.75586C16.2354 2.36523 16.2923 2.02832 16.4062 1.74512C16.5234 1.46191 16.6895 1.24382 16.9043 1.09082C17.1191 0.937826 17.3763 0.861328 17.6758 0.861328C17.9753 0.861328 18.2324 0.937826 18.4473 1.09082C18.6654 1.24382 18.8314 1.46191 18.9453 1.74512C19.0625 2.02832 19.1211 2.36523 19.1211 2.75586V2.76074C19.1211 3.14811 19.0625 3.48503 18.9453 3.77148C18.8314 4.05469 18.6654 4.27441 18.4473 4.43066C18.2324 4.58366 17.9753 4.66016 17.6758 4.66016ZM17.6758 4.0791C17.9167 4.0791 18.1038 3.96354 18.2373 3.73242C18.374 3.49805 18.4424 3.17415 18.4424 2.76074V2.75586C18.4424 2.34245 18.374 2.02018 18.2373 1.78906C18.1038 1.55794 17.9167 1.44238 17.6758 1.44238C17.4349 1.44238 17.2477 1.55794 17.1143 1.78906C16.9808 2.02018 16.9141 2.34245 16.9141 2.75586V2.76074C16.9141 3.17415 16.9808 3.49805 17.1143 3.73242C17.2477 3.96354 17.4349 4.0791 17.6758 4.0791ZM18.2031 8H17.4121L22.207 0.954102H22.998L18.2031 8ZM22.7246 8.09277C22.4251 8.09277 22.168 8.01628 21.9531 7.86328C21.7383 7.70703 21.5723 7.4873 21.4551 7.2041C21.3411 6.9209 21.2842 6.58398 21.2842 6.19336V6.18848C21.2842 5.79785 21.3411 5.46094 21.4551 5.17773C21.5723 4.89453 21.7383 4.67643 21.9531 4.52344C22.168 4.37044 22.4251 4.29395 22.7246 4.29395C23.0241 4.29395 23.2812 4.37044 23.4961 4.52344C23.7142 4.67643 23.8802 4.89453 23.9941 5.17773C24.1113 5.46094 24.1699 5.79785 24.1699 6.18848V6.19336C24.1699 6.58398 24.1113 6.9209 23.9941 7.2041C23.8802 7.4873 23.7142 7.70703 23.4961 7.86328C23.2812 8.01628 23.0241 8.09277 22.7246 8.09277ZM22.7246 7.51172C22.9655 7.51172 23.1527 7.39616 23.2861 7.16504C23.4229 6.93066 23.4912 6.60677 23.4912 6.19336V6.18848C23.4912 5.77507 23.4229 5.4528 23.2861 5.22168C23.1527 4.99056 22.9655 4.875 22.7246 4.875C22.4837 4.875 22.2965 4.99056 22.1631 5.22168C22.0296 5.4528 21.9629 5.77507 21.9629 6.18848V6.19336C21.9629 6.60677 22.0296 6.93066 22.1631 7.16504C22.2965 7.39616 22.4837 7.51172 22.7246 7.51172Z" fill="#35FDAC"/>
</svg>
