<svg width="35" height="16" viewBox="0 0 35 16" fill="none" xmlns="http://www.w3.org/2000/svg">
<rect width="35" height="16" rx="8" fill="#35FDAC" fill-opacity="0.1"/>
<path d="M5.56641 9.55859V8.76758H10.7324V9.55859H5.56641ZM7.75391 11.7949V6.53125H8.54492V11.7949H7.75391ZM13.8086 12V5.93066H13.7305L11.9385 7.22949V6.30176L13.8135 4.9541H14.6875V12H13.8086ZM18.4473 12V5.93066H18.3691L16.5771 7.22949V6.30176L18.4521 4.9541H19.3262V12H18.4473ZM22.6758 8.66016C22.3763 8.66016 22.1191 8.58366 21.9043 8.43066C21.6895 8.27441 21.5234 8.05469 21.4062 7.77148C21.2923 7.48503 21.2354 7.14811 21.2354 6.76074V6.75586C21.2354 6.36523 21.2923 6.02832 21.4062 5.74512C21.5234 5.46191 21.6895 5.24382 21.9043 5.09082C22.1191 4.93783 22.3763 4.86133 22.6758 4.86133C22.9753 4.86133 23.2324 4.93783 23.4473 5.09082C23.6654 5.24382 23.8314 5.46191 23.9453 5.74512C24.0625 6.02832 24.1211 6.36523 24.1211 6.75586V6.76074C24.1211 7.14811 24.0625 7.48503 23.9453 7.77148C23.8314 8.05469 23.6654 8.27441 23.4473 8.43066C23.2324 8.58366 22.9753 8.66016 22.6758 8.66016ZM22.6758 8.0791C22.9167 8.0791 23.1038 7.96354 23.2373 7.73242C23.374 7.49805 23.4424 7.17415 23.4424 6.76074V6.75586C23.4424 6.34245 23.374 6.02018 23.2373 5.78906C23.1038 5.55794 22.9167 5.44238 22.6758 5.44238C22.4349 5.44238 22.2477 5.55794 22.1143 5.78906C21.9808 6.02018 21.9141 6.34245 21.9141 6.75586V6.76074C21.9141 7.17415 21.9808 7.49805 22.1143 7.73242C22.2477 7.96354 22.4349 8.0791 22.6758 8.0791ZM23.2031 12H22.4121L27.207 4.9541H27.998L23.2031 12ZM27.7246 12.0928C27.4251 12.0928 27.168 12.0163 26.9531 11.8633C26.7383 11.707 26.5723 11.4873 26.4551 11.2041C26.3411 10.9209 26.2842 10.584 26.2842 10.1934V10.1885C26.2842 9.79785 26.3411 9.46094 26.4551 9.17773C26.5723 8.89453 26.7383 8.67643 26.9531 8.52344C27.168 8.37044 27.4251 8.29395 27.7246 8.29395C28.0241 8.29395 28.2812 8.37044 28.4961 8.52344C28.7142 8.67643 28.8802 8.89453 28.9941 9.17773C29.1113 9.46094 29.1699 9.79785 29.1699 10.1885V10.1934C29.1699 10.584 29.1113 10.9209 28.9941 11.2041C28.8802 11.4873 28.7142 11.707 28.4961 11.8633C28.2812 12.0163 28.0241 12.0928 27.7246 12.0928ZM27.7246 11.5117C27.9655 11.5117 28.1527 11.3962 28.2861 11.165C28.4229 10.9307 28.4912 10.6068 28.4912 10.1934V10.1885C28.4912 9.77507 28.4229 9.4528 28.2861 9.22168C28.1527 8.99056 27.9655 8.875 27.7246 8.875C27.4837 8.875 27.2965 8.99056 27.1631 9.22168C27.0296 9.4528 26.9629 9.77507 26.9629 10.1885V10.1934C26.9629 10.6068 27.0296 10.9307 27.1631 11.165C27.2965 11.3962 27.4837 11.5117 27.7246 11.5117Z" fill="#35FDAC"/>
</svg>
