<svg width="184" height="157" viewBox="0 0 184 157" fill="none" xmlns="http://www.w3.org/2000/svg">
<rect x="0.460453" y="25.3327" width="164.879" height="131.742" rx="7.67819" transform="rotate(-8.67644 0.460453 25.3327)" fill="#0E1330" stroke="#282D45" stroke-width="0.80823"/>
<path d="M14.1418 46.2271L12.8663 37.8688L15.7335 37.4312C16.5599 37.3051 17.2919 37.3634 17.9295 37.6059C18.5704 37.8439 19.0947 38.25 19.5023 38.824C19.91 39.3979 20.1807 40.1232 20.3145 40.9998L20.3162 41.0114C20.45 41.8879 20.4082 42.6629 20.1909 43.3362C19.973 44.0056 19.5959 44.5512 19.0596 44.9728C18.5228 45.3906 17.8392 45.6629 17.009 45.7896L14.1418 46.2271ZM15.0412 45.1296L16.7963 44.8618C17.418 44.7669 17.9295 44.5585 18.3308 44.2364C18.7322 43.9144 19.0118 43.4944 19.1699 42.9763C19.3279 42.4583 19.3554 41.8614 19.2522 41.1856L19.2505 41.174C19.1467 40.4944 18.9403 39.9312 18.6311 39.4844C18.3251 39.0332 17.9326 38.7138 17.4535 38.5261C16.9738 38.3346 16.425 38.2859 15.8072 38.3802L14.0521 38.648L15.0412 45.1296ZM24.3646 44.7797C23.9708 44.8398 23.604 44.8187 23.2644 44.7164C22.9286 44.6136 22.6468 44.4373 22.4191 44.1875C22.1951 43.9372 22.0543 43.6228 21.9966 43.2444L21.9948 43.2328C21.9382 42.8621 21.9787 42.5319 22.1163 42.2422C22.2532 41.9486 22.4801 41.7006 22.797 41.4982C23.1138 41.2957 23.5115 41.1441 23.9901 41.0434L26.2626 40.5544L26.3855 41.3595L24.2346 41.83C23.7637 41.9295 23.4312 42.081 23.237 42.2845C23.0467 42.4874 22.9751 42.7434 23.0223 43.0523L23.0241 43.0639C23.0724 43.3805 23.2298 43.6094 23.4963 43.7505C23.7623 43.8877 24.0767 43.9286 24.4397 43.8732C24.7834 43.8208 25.0781 43.7067 25.3239 43.5309C25.5692 43.3512 25.7491 43.1321 25.8638 42.8735C25.9823 42.6144 26.0189 42.3362 25.9735 42.0388L25.6765 40.0926C25.6176 39.7065 25.455 39.431 25.1888 39.2661C24.9259 39.0968 24.5608 39.0478 24.0936 39.1191C23.719 39.1763 23.4223 39.2907 23.2035 39.4624C22.9841 39.6302 22.8525 39.8419 22.8085 40.0976L22.8053 40.1159L21.7975 40.2697L21.798 40.234C21.8019 39.8975 21.8935 39.5912 22.0726 39.3149C22.255 39.0342 22.5097 38.7997 22.8366 38.6115C23.1629 38.4195 23.5481 38.2895 23.9922 38.2218C24.5019 38.144 24.9451 38.1613 25.3219 38.2737C25.7025 38.3856 26.0074 38.584 26.2366 38.8691C26.4691 39.1498 26.6184 39.5063 26.6844 39.9388L27.3367 44.2136L26.3288 44.3674L26.1883 43.4464L26.0956 43.4605C25.9979 43.7007 25.8662 43.9124 25.7006 44.0957C25.5388 44.2785 25.3463 44.4284 25.1231 44.5454C24.8994 44.6586 24.6465 44.7367 24.3646 44.7797ZM31.3386 43.7155C30.8752 43.7862 30.4553 43.7791 30.0788 43.6943C29.7017 43.6057 29.3856 43.4504 29.1305 43.2285C28.8792 43.0061 28.7081 42.726 28.617 42.3882L29.648 42.2309C29.7725 42.4766 29.9703 42.6598 30.2416 42.7804C30.5129 42.901 30.8474 42.931 31.2452 42.8703C31.5271 42.8273 31.768 42.749 31.968 42.6355C32.1713 42.5176 32.3238 42.3777 32.4256 42.216C32.5268 42.0504 32.5629 41.873 32.5341 41.6838L32.5323 41.6722C32.4999 41.4598 32.3875 41.2932 32.1952 41.1724C32.0023 41.0477 31.7057 40.9685 31.3055 40.9347L30.3028 40.8507C29.8986 40.8175 29.5598 40.7467 29.2864 40.6383C29.0125 40.526 28.7991 40.3708 28.6464 40.1729C28.4931 39.971 28.3938 39.7214 28.3484 39.4241L28.3475 39.4183C28.2945 39.0708 28.3475 38.7446 28.5064 38.4398C28.6692 38.1344 28.9143 37.8757 29.2415 37.6637C29.5688 37.4518 29.9525 37.3122 30.3927 37.2451C30.8291 37.1785 31.2258 37.189 31.583 37.2768C31.9434 37.3601 32.2451 37.5116 32.4881 37.7314C32.7349 37.9506 32.9074 38.2265 33.0056 38.5593L32.0151 38.7104C31.9118 38.4733 31.7305 38.2955 31.4714 38.177C31.2123 38.0585 30.8935 38.0281 30.5151 38.0858C30.2679 38.1235 30.054 38.1977 29.8733 38.3082C29.692 38.4149 29.556 38.5463 29.4652 38.7024C29.3744 38.8585 29.3432 39.0293 29.3715 39.2146L29.3733 39.2262C29.3945 39.3652 29.45 39.4832 29.5399 39.5801C29.6297 39.677 29.7581 39.7543 29.9249 39.8118C30.0918 39.8693 30.3015 39.9104 30.5543 39.9351L31.5511 40.02C32.1599 40.0733 32.6275 40.2114 32.9539 40.4342C33.2842 40.6565 33.4835 40.9916 33.5518 41.4395L33.5536 41.4511C33.6102 41.8218 33.5502 42.1669 33.3737 42.4862C33.1966 42.8017 32.9309 43.0675 32.5767 43.2835C32.2263 43.499 31.8136 43.643 31.3386 43.7155ZM35.4459 42.9761L34.1148 34.2528L35.1226 34.099L35.6441 37.5165L35.7368 37.5024C35.8445 37.1461 36.0331 36.8546 36.3027 36.6277C36.5718 36.397 36.9361 36.2465 37.3956 36.1764C37.8629 36.1051 38.2725 36.1355 38.6246 36.2674C38.9761 36.3956 39.263 36.6185 39.4853 36.9363C39.7077 37.254 39.8566 37.66 39.932 38.1543L40.549 42.1973L39.5411 42.3511L38.9613 38.5514C38.8752 37.9876 38.6919 37.5888 38.4112 37.355C38.1338 37.1168 37.7461 37.0357 37.2479 37.1117C36.9158 37.1624 36.639 37.2778 36.4176 37.4578C36.1961 37.6378 36.0378 37.8694 35.9427 38.1526C35.8515 38.4352 35.8339 38.7599 35.8899 39.1268L36.4538 42.8223L35.4459 42.9761ZM45.495 41.5552C45.2054 41.5994 44.9303 41.5959 44.6696 41.5448C44.4089 41.4937 44.1696 41.4018 43.9518 41.2691C43.7334 41.1325 43.5428 40.9581 43.38 40.7459L43.2873 40.76L43.4393 41.7563L42.4315 41.9101L41.1003 33.1868L42.1082 33.033L42.6367 36.4968L42.7294 36.4827C42.8111 36.2411 42.9361 36.0244 43.1044 35.8328C43.2766 35.6405 43.4814 35.4808 43.7189 35.3537C43.9596 35.2222 44.2228 35.1346 44.5086 35.091C45.0376 35.0102 45.5175 35.0733 45.9481 35.2803C46.3827 35.4866 46.7449 35.8146 47.0348 36.2643C47.3247 36.714 47.5195 37.2652 47.619 37.9178L47.6208 37.9293C47.7198 38.5781 47.6983 39.1622 47.5563 39.6818C47.4137 40.1975 47.1658 40.6186 46.8126 40.9452C46.4633 41.2711 46.0241 41.4745 45.495 41.5552ZM45.1272 40.6985C45.5095 40.6402 45.8217 40.4977 46.0637 40.2711C46.3051 40.0407 46.4708 39.7408 46.5606 39.3714C46.6537 38.9976 46.6634 38.5694 46.5898 38.0867L46.588 38.0751C46.5138 37.5885 46.3768 37.1827 46.177 36.8575C45.9811 36.5318 45.7338 36.2969 45.4352 36.1528C45.136 36.0048 44.7953 35.96 44.413 36.0183C44.0346 36.0761 43.7227 36.2205 43.4774 36.4515C43.2321 36.6826 43.0626 36.9831 42.9689 37.353C42.8752 37.723 42.8652 38.1493 42.9389 38.632L42.9406 38.6435C43.0137 39.1224 43.1504 39.5263 43.3508 39.8553C43.5505 40.1805 43.802 40.4167 44.105 40.5641C44.408 40.7115 44.7488 40.7563 45.1272 40.6985ZM52.2431 40.5254C51.6523 40.6156 51.1209 40.5643 50.6489 40.3716C50.1802 40.1744 49.7912 39.8525 49.482 39.4057C49.1767 38.9584 48.9733 38.4026 48.872 37.7384L48.8702 37.7268C48.7682 37.0588 48.7963 36.4657 48.9543 35.9477C49.1162 35.429 49.3917 35.0077 49.7809 34.6835C50.1739 34.3588 50.6658 34.1514 51.2566 34.0612C51.8513 33.9705 52.3827 34.0217 52.8508 34.2151C53.3189 34.4084 53.7057 34.7287 54.011 35.176C54.3202 35.6228 54.5258 36.1802 54.6278 36.8482L54.6295 36.8598C54.7309 37.524 54.7006 38.1154 54.5387 38.634C54.3807 39.1521 54.1074 39.5751 53.7188 39.9031C53.3297 40.2272 52.8378 40.4347 52.2431 40.5254ZM52.107 39.6334C52.5008 39.5733 52.8207 39.4297 53.0666 39.2025C53.3125 38.9753 53.4804 38.677 53.5702 38.3077C53.6639 37.9377 53.6733 37.5076 53.5985 37.0171L53.5967 37.0056C53.5213 36.5113 53.3837 36.1016 53.1839 35.7764C52.988 35.4507 52.7391 35.218 52.4373 35.0783C52.1348 34.9348 51.7866 34.8931 51.3928 34.9532C50.9989 35.0133 50.679 35.157 50.4331 35.3842C50.1866 35.6075 50.0166 35.9041 49.9228 36.2741C49.833 36.6434 49.8258 37.0752 49.9012 37.5695L49.903 37.5811C49.9778 38.0715 50.1132 38.4796 50.3091 38.8053C50.5089 39.1305 50.76 39.3648 51.0625 39.5083C51.3649 39.6518 51.7131 39.6935 52.107 39.6334ZM58.4003 39.5858C58.0064 39.6459 57.6397 39.6249 57.3001 39.5226C56.9643 39.4197 56.6825 39.2434 56.4547 38.9937C56.2308 38.7433 56.09 38.4289 56.0322 38.0505L56.0305 38.0389C55.9739 37.6682 56.0144 37.338 56.1519 37.0483C56.2889 36.7548 56.5158 36.5068 56.8327 36.3043C57.1495 36.1018 57.5472 35.9503 58.0258 35.8496L60.2983 35.3605L60.4212 36.1657L58.2703 36.6362C57.7994 36.7357 57.4669 36.8872 57.2727 37.0907C57.0824 37.2936 57.0108 37.5495 57.058 37.8584L57.0597 37.87C57.108 38.1866 57.2655 38.4155 57.532 38.5566C57.7979 38.6938 58.1124 38.7348 58.4754 38.6794C58.819 38.6269 59.1138 38.5128 59.3596 38.337C59.6049 38.1573 59.7848 37.9382 59.8995 37.6797C60.018 37.4205 60.0545 37.1423 60.0092 36.845L59.7122 34.8988C59.6532 34.5126 59.4907 34.2371 59.2245 34.0722C58.9616 33.9029 58.5965 33.8539 58.1292 33.9252C57.7547 33.9824 57.458 34.0968 57.2392 34.2685C57.0198 34.4363 56.8881 34.6481 56.8442 34.9037L56.841 34.922L55.8332 35.0758L55.8336 35.0402C55.8376 34.7037 55.9292 34.3973 56.1083 34.121C56.2907 33.8403 56.5453 33.6058 56.8723 33.4176C57.1986 33.2256 57.5838 33.0957 58.0279 33.0279C58.5376 32.9501 58.9808 32.9674 59.3576 33.0799C59.7382 33.1917 60.0431 33.3902 60.2723 33.6753C60.5048 33.9559 60.654 34.3125 60.72 34.745L61.3724 39.0197L60.3645 39.1735L60.224 38.2525L60.1313 38.2666C60.0336 38.5068 59.9019 38.7185 59.7363 38.9019C59.5745 39.0846 59.382 39.2345 59.1588 39.3515C58.935 39.4647 58.6822 39.5428 58.4003 39.5858ZM63.2143 38.7386L62.2615 32.4945L63.2693 32.3407L63.4108 33.2675L63.5034 33.2533C63.573 32.9068 63.7369 32.621 63.9949 32.3959C64.253 32.1708 64.5925 32.0261 65.0134 31.9619C65.1099 31.9472 65.2054 31.9385 65.2999 31.936C65.3976 31.929 65.4721 31.9255 65.5235 31.9256L65.6729 32.9045C65.5657 32.9011 65.4613 32.9032 65.3597 32.9108C65.2614 32.9139 65.1563 32.924 65.0443 32.9411C64.7238 32.99 64.4497 33.0971 64.222 33.2622C63.9943 33.4273 63.8264 33.6347 63.7183 33.8844C63.614 34.1334 63.5852 34.4105 63.6317 34.7155L64.2222 38.5848L63.2143 38.7386ZM69.8807 37.8339C69.3555 37.9141 68.8757 37.851 68.4411 37.6446C68.0066 37.4383 67.6444 37.1103 67.3545 36.6606C67.064 36.207 66.8692 35.6559 66.7702 35.0071L66.7685 34.9955C66.6689 34.3429 66.6904 33.7588 66.833 33.2431C66.9755 32.7274 67.2215 32.3066 67.5709 31.9806C67.9241 31.6541 68.3652 31.4504 68.8943 31.3697C69.18 31.3261 69.4555 31.3315 69.7206 31.3858C69.989 31.4358 70.2341 31.5268 70.4558 31.6589C70.6774 31.7911 70.8614 31.9606 71.0075 32.1674L71.1002 32.1533L70.5716 28.6895L71.5795 28.5357L72.9107 37.2589L71.9028 37.4127L71.7508 36.4165L71.6581 36.4306C71.566 36.6817 71.4361 36.9051 71.2684 37.1006C71.1 37.2922 70.8991 37.4513 70.6655 37.5778C70.4319 37.7044 70.1703 37.7897 69.8807 37.8339ZM69.9763 36.9066C70.3547 36.8488 70.6666 36.7044 70.9119 36.4733C71.1572 36.2423 71.3267 35.9418 71.4204 35.5719C71.5135 35.1981 71.5235 34.7718 71.4504 34.2929L71.4487 34.2813C71.375 33.7987 71.2383 33.3947 71.0385 33.0696C70.8387 32.7444 70.5873 32.5082 70.2843 32.3608C69.9812 32.2134 69.6405 32.1686 69.2621 32.2264C68.8836 32.2841 68.5718 32.4285 68.3265 32.6596C68.0845 32.8862 67.9166 33.1844 67.8229 33.5544C67.733 33.9237 67.7252 34.3517 67.7995 34.8382L67.8013 34.8498C67.8749 35.3325 68.01 35.7386 68.2065 36.0682C68.4063 36.3934 68.6558 36.6299 68.9549 36.7779C69.2574 36.9214 69.5978 36.9643 69.9763 36.9066Z" fill="#8F9BB7"/>
<line x1="38.4852" y1="62.8824" x2="157.533" y2="44.7156" stroke="#282D45" stroke-width="0.80823"/>
<line x1="42.1055" y1="86.6073" x2="161.154" y2="68.4405" stroke="#282D45" stroke-width="0.80823"/>
<line x1="45.877" y1="111.322" x2="164.925" y2="93.1553" stroke="#282D45" stroke-width="0.80823"/>
<line x1="49.4974" y1="135.047" x2="168.546" y2="116.88" stroke="#282D45" stroke-width="0.80823"/>
<path d="M19.0335 69.294L18.1455 63.4749L18.0706 63.4863L16.5425 64.9938L16.4068 64.1043L18.0073 62.5378L18.8453 62.41L19.8762 69.1654L19.0335 69.294ZM24.1139 68.6816C23.6145 68.7578 23.165 68.6795 22.7654 68.4467C22.3689 68.2133 22.0352 67.8475 21.7643 67.3491C21.493 66.8476 21.3021 66.2348 21.1916 65.5107L21.1901 65.5013C21.0797 64.7772 21.0794 64.137 21.1892 63.5804C21.2991 63.0239 21.5085 62.5752 21.8174 62.2343C22.1294 61.8928 22.535 61.684 23.0344 61.6078C23.5337 61.5316 23.9832 61.6099 24.3828 61.8428C24.7825 62.0756 25.1177 62.4412 25.3886 62.9396C25.6626 63.4376 25.8548 64.0486 25.9653 64.7726L25.9667 64.782C26.0772 65.5061 26.0762 66.1482 25.9637 66.7083C25.8538 67.2648 25.6428 67.7137 25.3309 68.0552C25.0189 68.3966 24.6132 68.6054 24.1139 68.6816ZM24.0017 67.9466C24.3263 67.8971 24.5851 67.741 24.7782 67.4784C24.9744 67.2153 25.1014 66.8654 25.1593 66.4286C25.2203 65.9913 25.207 65.4856 25.1194 64.9113L25.118 64.9019C25.0303 64.3277 24.8924 63.8425 24.7042 63.4465C24.5187 63.0468 24.2933 62.7523 24.028 62.5628C23.7654 62.3697 23.4718 62.298 23.1473 62.3475C22.8258 62.3966 22.567 62.5526 22.3708 62.8157C22.1772 63.0752 22.0515 63.4233 21.9936 63.8601C21.9352 64.2938 21.9499 64.7977 22.0375 65.372L22.0389 65.3814C22.1266 65.9556 22.2632 66.4426 22.4487 66.8422C22.6342 67.2419 22.8583 67.5382 23.1209 67.7313C23.3866 67.9239 23.6802 67.9957 24.0017 67.9466ZM30.153 67.76C29.6537 67.8362 29.2042 67.7579 28.8046 67.5251C28.4081 67.2918 28.0744 66.9259 27.8035 66.4275C27.5322 65.926 27.3412 65.3132 27.2307 64.5891L27.2293 64.5797C27.1188 63.8557 27.1185 63.2154 27.2284 62.6589C27.3383 62.1024 27.5477 61.6536 27.8565 61.3127C28.1685 60.9713 28.5742 60.7624 29.0736 60.6862C29.5729 60.61 30.0224 60.6883 30.422 60.9212C30.8216 61.154 31.1569 61.5196 31.4277 62.018C31.7017 62.516 31.894 63.127 32.0045 63.851L32.0059 63.8604C32.1164 64.5845 32.1154 65.2266 32.0028 65.7867C31.893 66.3432 31.682 66.7921 31.37 67.1336C31.0581 67.475 30.6524 67.6838 30.153 67.76ZM30.0409 67.025C30.3654 66.9755 30.6243 66.8194 30.8173 66.5568C31.0135 66.2937 31.1406 65.9438 31.1985 65.507C31.2595 65.0698 31.2462 64.564 31.1586 63.9897L31.1571 63.9804C31.0695 63.4061 30.9316 62.9209 30.7434 62.5249C30.5579 62.1252 30.3325 61.8307 30.0672 61.6412C29.8046 61.4482 29.511 61.3764 29.1864 61.4259C28.865 61.475 28.6061 61.631 28.41 61.8941C28.2164 62.1536 28.0907 62.5017 28.0328 62.9385C27.9744 63.3722 27.989 63.8762 28.0767 64.4504L28.0781 64.4598C28.1657 65.0341 28.3023 65.521 28.4879 65.9207C28.6734 66.3203 28.8975 66.6167 29.1601 66.8097C29.4258 67.0023 29.7194 67.0741 30.0409 67.025ZM33.9582 67.0165L32.8823 59.9661L33.6969 59.8418L34.7728 66.8922L33.9582 67.0165ZM37.137 66.5314L34.7889 64.3603L35.3088 63.7492L38.1622 66.3749L37.137 66.5314ZM34.3926 65.0914L34.1987 64.0719L34.4141 64.039L36.2592 61.5011L37.247 61.3504L35.203 64.0288L35.0356 64.2508L34.3926 65.0914Z" fill="#8F9BB7"/>
<path d="M28.2072 92.3351C27.8982 92.3823 27.5833 92.3697 27.2624 92.2973C26.9447 92.2244 26.6423 92.0741 26.3553 91.8465C26.0714 91.6183 25.823 91.2985 25.6101 90.8871C25.3967 90.4725 25.2414 89.9469 25.1443 89.3102L25.1429 89.3009C25.0257 88.5331 25.0287 87.862 25.1518 87.2875C25.2744 86.7099 25.5073 86.248 25.8505 85.9018C26.1932 85.5525 26.6377 85.3361 27.1839 85.2528C27.5615 85.1951 27.9124 85.2135 28.2366 85.3077C28.5634 85.3984 28.8473 85.553 29.0883 85.7718C29.3319 85.9869 29.5166 86.2557 29.6425 86.5782L29.6658 86.637L28.8185 86.7663L28.7919 86.7176C28.6942 86.5377 28.5711 86.3904 28.4226 86.2758C28.2768 86.1575 28.1077 86.0747 27.9153 86.0274C27.7259 85.9797 27.5174 85.9732 27.2895 86.0079C26.8807 86.0703 26.5666 86.2412 26.3474 86.5206C26.1276 86.7968 25.9856 87.1427 25.9212 87.5581C25.8595 87.9699 25.8553 88.4129 25.9085 88.887C25.9115 88.9281 25.9164 88.9704 25.9231 89.0141C25.9293 89.0547 25.9357 89.0968 25.9424 89.1405L26.3151 90.2334C26.3604 90.5299 26.4684 90.788 26.6393 91.0079C26.8133 91.2273 27.0267 91.3911 27.2796 91.4994C27.532 91.6046 27.8002 91.6355 28.0842 91.5922C28.3682 91.5489 28.6152 91.4409 28.8252 91.2683C29.0347 91.0927 29.1885 90.876 29.2865 90.6183C29.3876 90.3601 29.4161 90.0859 29.3718 89.7957L29.3703 89.7863C29.3246 89.4867 29.2186 89.2314 29.0523 89.0205C28.8886 88.8059 28.6828 88.6505 28.435 88.5542C28.1867 88.4547 27.9158 88.4274 27.6224 88.4722C27.3322 88.5165 27.08 88.622 26.866 88.7888C26.655 88.9551 26.4985 89.1643 26.3964 89.4162C26.297 89.6645 26.2696 89.9353 26.3144 90.2287L26.3151 90.2334L26.0389 90.2755L25.8532 89.0583L26.017 89.0333C26.0732 88.8363 26.1718 88.6456 26.313 88.4612C26.4541 88.2768 26.6374 88.1179 26.863 87.9845C27.0885 87.851 27.3527 87.7612 27.6554 87.715C28.0799 87.6502 28.4741 87.6907 28.838 87.8364C29.202 87.982 29.5051 88.2104 29.7474 88.5216C29.9928 88.8322 30.1486 89.2045 30.2148 89.6383L30.2163 89.6476C30.2848 90.0971 30.2428 90.5123 30.0902 90.8933C29.9406 91.2738 29.7035 91.5926 29.3786 91.8498C29.0533 92.1038 28.6628 92.2656 28.2072 92.3351ZM34.1855 91.4228C33.6861 91.4991 33.2366 91.4207 32.837 91.1879C32.4405 90.9546 32.1068 90.5887 31.836 90.0903C31.5646 89.5888 31.3737 88.976 31.2632 88.2519L31.2618 88.2426C31.1513 87.5185 31.151 86.8782 31.2609 86.3217C31.3708 85.7652 31.5801 85.3165 31.889 84.9755C32.201 84.6341 32.6066 84.4253 33.106 84.3491C33.6054 84.2729 34.0549 84.3512 34.4545 84.584C34.8541 84.8169 35.1893 85.1825 35.4602 85.6809C35.7342 86.1788 35.9264 86.7898 36.0369 87.5139L36.0384 87.5232C36.1488 88.2473 36.1478 88.8894 36.0353 89.4495C35.9254 90.006 35.7145 90.455 35.4025 90.7964C35.0905 91.1378 34.6848 91.3466 34.1855 91.4228ZM34.0733 90.6878C34.3979 90.6383 34.6567 90.4822 34.8498 90.2196C35.046 89.9566 35.173 89.6066 35.2309 89.1698C35.2919 88.7326 35.2786 88.2268 35.191 87.6525L35.1896 87.6432C35.1019 87.0689 34.964 86.5838 34.7758 86.1877C34.5903 85.7881 34.3649 85.4935 34.0997 85.304C33.8371 85.111 33.5435 85.0392 33.2189 85.0887C32.8974 85.1378 32.6386 85.2939 32.4424 85.5569C32.2489 85.8164 32.1231 86.1646 32.0652 86.6013C32.0069 87.035 32.0215 87.539 32.1091 88.1133L32.1105 88.1226C32.1982 88.6969 32.3348 89.1838 32.5203 89.5835C32.7058 89.9831 32.9299 90.2795 33.1925 90.4725C33.4582 90.6651 33.7518 90.7369 34.0733 90.6878ZM37.9907 90.6793L36.9148 83.6289L37.7294 83.5046L38.8053 90.555L37.9907 90.6793ZM41.1694 90.1942L38.8213 88.0231L39.3412 87.412L42.1947 90.0378L41.1694 90.1942ZM38.4251 88.7543L38.2312 87.7347L38.4465 87.7019L40.2916 85.164L41.2794 85.0132L39.2354 87.6917L39.0681 87.9136L38.4251 88.7543Z" fill="#8F9BB7"/>
<path d="M31.8824 117.015C31.4174 117.086 30.9995 117.069 30.6288 116.962C30.258 116.856 29.9501 116.68 29.7048 116.433C29.4627 116.185 29.2988 115.886 29.2133 115.535L29.2001 115.48L30.01 115.356L30.0218 115.402C30.0775 115.621 30.1853 115.804 30.3452 115.952C30.5082 116.099 30.7111 116.204 30.9537 116.266C31.1989 116.324 31.4713 116.331 31.771 116.285C32.0674 116.24 32.3186 116.149 32.5245 116.012C32.7335 115.875 32.8866 115.706 32.9838 115.506C33.0806 115.303 33.1108 115.083 33.0746 114.845L33.0732 114.836C33.0099 114.421 32.8224 114.124 32.5108 113.945C32.2019 113.762 31.8102 113.707 31.3358 113.779L30.4885 113.908L30.3799 113.197L31.1898 113.073C31.4582 113.032 31.6878 112.946 31.8785 112.815C32.0688 112.68 32.2083 112.517 32.2971 112.324C32.3855 112.129 32.4125 111.919 32.3782 111.694L32.3768 111.685C32.3406 111.448 32.2599 111.254 32.1348 111.104C32.0097 110.954 31.8437 110.849 31.6369 110.792C31.4331 110.733 31.194 110.725 30.9193 110.767C30.654 110.807 30.4237 110.889 30.2284 111.011C30.0358 111.13 29.8897 111.282 29.7901 111.466C29.6905 111.651 29.6456 111.859 29.6554 112.09L29.6578 112.138L28.8479 112.262L28.8455 112.214C28.8267 111.84 28.8931 111.501 29.0447 111.197C29.1994 110.892 29.4258 110.639 29.724 110.437C30.0252 110.234 30.3865 110.101 30.8079 110.037C31.2386 109.971 31.6245 109.989 31.9657 110.09C32.3096 110.188 32.5889 110.354 32.8037 110.59C33.0211 110.822 33.156 111.109 33.2084 111.452L33.2098 111.462C33.2522 111.74 33.229 111.995 33.1401 112.229C33.0513 112.463 32.9101 112.668 32.7167 112.845C32.5232 113.021 32.2906 113.161 32.0187 113.263L32.0216 113.281C32.5209 113.247 32.9443 113.353 33.2918 113.6C33.642 113.844 33.8537 114.206 33.9271 114.687L33.9285 114.696C33.9857 115.07 33.9354 115.421 33.7778 115.749C33.6202 116.076 33.3781 116.353 33.0517 116.578C32.7247 116.801 32.3349 116.946 31.8824 117.015ZM37.8632 116.151C37.3638 116.227 36.9143 116.149 36.5147 115.916C36.1182 115.682 35.7845 115.317 35.5137 114.818C35.2423 114.317 35.0514 113.704 34.9409 112.98L34.9395 112.97C34.829 112.246 34.8287 111.606 34.9386 111.049C35.0485 110.493 35.2578 110.044 35.5667 109.703C35.8787 109.362 36.2843 109.153 36.7837 109.077C37.2831 109.001 37.7326 109.079 38.1322 109.312C38.5318 109.545 38.867 109.91 39.1379 110.409C39.4119 110.907 39.6041 111.518 39.7146 112.242L39.7161 112.251C39.8266 112.975 39.8255 113.617 39.713 114.177C39.6031 114.734 39.3922 115.183 39.0802 115.524C38.7682 115.866 38.3625 116.074 37.8632 116.151ZM37.751 115.416C38.0756 115.366 38.3344 115.21 38.5275 114.947C38.7237 114.684 38.8507 114.334 38.9086 113.898C38.9696 113.46 38.9563 112.955 38.8687 112.38L38.8673 112.371C38.7796 111.797 38.6417 111.312 38.4535 110.915C38.268 110.516 38.0426 110.221 37.7774 110.032C37.5148 109.839 37.2212 109.767 36.8966 109.817C36.5751 109.866 36.3163 110.022 36.1201 110.285C35.9266 110.544 35.8008 110.892 35.7429 111.329C35.6846 111.763 35.6992 112.267 35.7868 112.841L35.7883 112.85C35.8759 113.425 36.0125 113.912 36.198 114.311C36.3836 114.711 36.6076 115.007 36.8702 115.2C37.136 115.393 37.4295 115.465 37.751 115.416ZM41.6684 115.407L40.5925 108.357L41.4071 108.232L42.483 115.283L41.6684 115.407ZM44.8471 114.922L42.499 112.751L43.0189 112.14L45.8724 114.766L44.8471 114.922ZM42.1028 113.482L41.9089 112.463L42.1242 112.43L43.9693 109.892L44.9571 109.741L42.9131 112.419L42.7458 112.641L42.1028 113.482Z" fill="#8F9BB7"/>
<path d="M41.0663 139.94C40.567 140.016 40.1175 139.938 39.7179 139.705C39.3214 139.471 38.9877 139.106 38.7168 138.607C38.4455 138.106 38.2545 137.493 38.144 136.769L38.1426 136.759C38.0321 136.035 38.0318 135.395 38.1417 134.839C38.2516 134.282 38.461 133.833 38.7698 133.492C39.0818 133.151 39.4875 132.942 39.9869 132.866C40.4862 132.79 40.9357 132.868 41.3353 133.101C41.7349 133.334 42.0702 133.699 42.341 134.198C42.615 134.696 42.8073 135.307 42.9178 136.031L42.9192 136.04C43.0297 136.764 43.0287 137.406 42.9161 137.966C42.8062 138.523 42.5953 138.972 42.2833 139.313C41.9714 139.655 41.5657 139.864 41.0663 139.94ZM40.9542 139.205C41.2787 139.155 41.5376 138.999 41.7306 138.737C41.9268 138.473 42.0539 138.124 42.1118 137.687C42.1728 137.249 42.1595 136.744 42.0718 136.169L42.0704 136.16C41.9828 135.586 41.8449 135.101 41.6567 134.705C41.4712 134.305 41.2458 134.01 40.9805 133.821C40.7179 133.628 40.4243 133.556 40.0997 133.606C39.7783 133.655 39.5194 133.811 39.3233 134.074C39.1297 134.333 39.004 134.681 38.9461 135.118C38.8877 135.552 38.9023 136.056 38.99 136.63L38.9914 136.64C39.079 137.214 39.2156 137.701 39.4012 138.1C39.5867 138.5 39.8108 138.796 40.0734 138.989C40.3391 139.182 40.6327 139.254 40.9542 139.205ZM44.8715 139.196L43.7956 132.146L44.6102 132.022L45.6861 139.072L44.8715 139.196ZM48.0503 138.711L45.7021 136.54L46.2221 135.929L49.0755 138.555L48.0503 138.711ZM45.3059 137.271L45.112 136.252L45.3274 136.219L47.1725 133.681L48.1603 133.53L46.1163 136.209L45.9489 136.431L45.3059 137.271Z" fill="#8F9BB7"/>
<path d="M49.2517 125.399C54.145 127.105 64.1612 128.296 69.531 124.349C77.2497 118.674 80.8819 109.427 82.1642 94.6228C83.1689 83.0233 85.84 78.5278 95.5834 75.4057C110.676 70.5698 117.86 74.0503 122.404 77.036C126.947 80.0218 129.798 85.3099 139.386 83.8468C148.974 82.3837 147.991 57.1885 155.12 55.6917" stroke="#32CAFD" stroke-width="1.61646" stroke-dasharray="3.23 3.23"/>
<path d="M47.6667 115.013C55.9565 111.295 74.7085 106.307 83.3977 116.101C94.2592 128.342 102.376 125.682 105.235 122.579C108.742 118.774 106.371 97.8784 118.999 97.5866C131.627 97.2947 141.485 76.1684 139.101 65.9036C136.717 55.6388 146.5 44.7435 156.054 45.7384" stroke="#544FFD" stroke-width="1.61646"/>
</svg>
