<svg width="29" height="29" viewBox="0 0 29 29" fill="none" xmlns="http://www.w3.org/2000/svg">
<g clip-path="url(#clip0_1_12276)">
<path d="M23.3796 14.6702C23.3065 16.1657 22.8681 17.6206 22.1028 18.9076C21.3375 20.1945 20.2686 21.2745 18.9895 22.0529C17.7104 22.8313 16.2601 23.2846 14.7654 23.373C13.2707 23.4615 11.777 23.1824 10.4151 22.5603C9.0531 21.9381 7.86428 20.9918 6.95254 19.8041C6.04079 18.6163 5.43389 17.2233 5.18488 15.7468C4.93587 14.2703 5.05234 12.7553 5.5241 11.3343C5.99587 9.91318 6.80857 8.6293 7.89114 7.59487" stroke="#35FDAC" stroke-width="2" stroke-linecap="round" stroke-linejoin="round"/>
<path d="M22.8332 11.0726C22.4191 9.94233 21.7864 8.90465 20.9713 8.01886C20.1561 7.13306 19.1745 6.41649 18.0824 5.91007C16.9903 5.40364 15.8092 5.11727 14.6065 5.06731C13.4037 5.01735 12.2029 5.20478 11.0726 5.6189L14.226 14.2261L22.8332 11.0726Z" stroke="#35FDAC" stroke-width="2" stroke-linecap="round" stroke-linejoin="round"/>
</g>
<defs>
<clipPath id="clip0_1_12276">
<rect width="22" height="22" fill="white" transform="translate(0.113281 7.68164) rotate(-20.1215)"/>
</clipPath>
</defs>
</svg>
