<svg width="22" height="22" viewBox="0 0 22 22" fill="none" xmlns="http://www.w3.org/2000/svg">
<path fill-rule="evenodd" clip-rule="evenodd" d="M1.83329 11C1.83329 5.93735 5.93735 1.83329 11 1.83329C16.0626 1.83329 20.1666 5.93735 20.1666 11C20.1666 16.0626 16.0626 20.1666 11 20.1666C5.93735 20.1666 1.83329 16.0626 1.83329 11ZM11 0.166626C5.01688 0.166626 0.166626 5.01688 0.166626 11C0.166626 16.983 5.01688 21.8333 11 21.8333C16.983 21.8333 21.8333 16.983 21.8333 11C21.8333 5.01688 16.983 0.166626 11 0.166626ZM10.9301 14.6943L16.7196 8.69433L15.2803 7.30559L10.1148 12.659L6.61365 9.93769L5.38627 11.5168L9.59679 14.7895L10.3062 15.3409L10.9301 14.6943Z" fill="#25B179"/>
</svg>
