<svg width="26" height="26" viewBox="0 0 26 26" fill="none" xmlns="http://www.w3.org/2000/svg">
<g clip-path="url(#clip0_1_12039)">
<path d="M13.8634 9.78066C17.8644 10.8527 21.3976 10.6407 21.7549 9.30699C22.1123 7.97332 19.1585 6.02309 15.1575 4.95103C11.1565 3.87897 7.62339 4.09104 7.26604 5.4247C6.90868 6.75837 9.86244 8.7086 13.8634 9.78066Z" stroke="#F8F8FA" stroke-width="1.66667" stroke-linecap="round" stroke-linejoin="round"/>
<path d="M20.2447 14.9415C19.8867 16.2777 16.3779 16.4936 12.3533 15.4152C8.32856 14.3367 5.39783 12.3954 5.75586 11.0592" stroke="#F8F8FA" stroke-width="1.66667" stroke-linecap="round" stroke-linejoin="round"/>
<path d="M7.26562 5.42468L4.24607 16.6938C3.88804 18.03 6.81877 19.9714 10.8435 21.0498C14.8682 22.1282 18.3769 21.9123 18.735 20.5761L21.7545 9.30697" stroke="#F8F8FA" stroke-width="1.66667" stroke-linecap="round" stroke-linejoin="round"/>
</g>
<defs>
<clipPath id="clip0_1_12039">
<rect width="20" height="20" fill="white" transform="translate(5.92969 0.75293) rotate(15)"/>
</clipPath>
</defs>
</svg>
