<svg width="57" height="23" viewBox="0 0 57 23" fill="none" xmlns="http://www.w3.org/2000/svg">
<path d="M8.97656 18.3164C7.33594 18.3164 5.91406 17.9648 4.71094 17.2617C3.50781 16.5508 2.57812 15.543 1.92188 14.2383C1.27344 12.9258 0.949219 11.3594 0.949219 9.53906V9.52734C0.949219 7.70703 1.27344 6.14453 1.92188 4.83984C2.57812 3.53516 3.50781 2.53125 4.71094 1.82812C5.91406 1.125 7.33594 0.773438 8.97656 0.773438C10.3438 0.773438 11.5586 1.03906 12.6211 1.57031C13.6914 2.10156 14.5508 2.83203 15.1992 3.76172C15.8555 4.68359 16.2383 5.74219 16.3477 6.9375L16.3594 7.05469H12.9141L12.8672 6.87891C12.7422 6.25391 12.5039 5.71094 12.1523 5.25C11.8086 4.78125 11.3672 4.41797 10.8281 4.16016C10.2969 3.90234 9.67969 3.77344 8.97656 3.77344C8.07812 3.77344 7.29688 4.00781 6.63281 4.47656C5.97656 4.9375 5.46875 5.59766 5.10938 6.45703C4.75 7.30859 4.57031 8.33203 4.57031 9.52734V9.53906C4.57031 10.7266 4.75 11.7539 5.10938 12.6211C5.46875 13.4883 5.98047 14.1562 6.64453 14.625C7.30859 15.0859 8.08984 15.3164 8.98828 15.3164C9.66797 15.3164 10.2734 15.1914 10.8047 14.9414C11.3359 14.6914 11.7812 14.332 12.1406 13.8633C12.5 13.3945 12.7539 12.832 12.9023 12.1758L12.9258 12.0703H16.3711L16.3594 12.1875C16.25 13.3828 15.8672 14.4414 15.2109 15.3633C14.5547 16.2852 13.6914 17.0078 12.6211 17.5312C11.5586 18.0547 10.3438 18.3164 8.97656 18.3164ZM23.4792 18.2578C22.2058 18.2578 21.1003 17.9961 20.1628 17.4727C19.2253 16.9492 18.5027 16.1992 17.9948 15.2227C17.487 14.2383 17.2331 13.0625 17.2331 11.6953V11.6719C17.2331 10.3125 17.4909 9.14453 18.0066 8.16797C18.5222 7.18359 19.2448 6.42969 20.1745 5.90625C21.112 5.375 22.2136 5.10938 23.4792 5.10938C24.7448 5.10938 25.8425 5.375 26.7722 5.90625C27.7097 6.42969 28.4363 7.17969 28.9519 8.15625C29.4675 9.13281 29.7253 10.3047 29.7253 11.6719V11.6953C29.7253 13.0703 29.4714 14.2461 28.9636 15.2227C28.4558 16.1992 27.7331 16.9492 26.7956 17.4727C25.8659 17.9961 24.7605 18.2578 23.4792 18.2578ZM23.4909 15.5742C24.0613 15.5742 24.5495 15.4219 24.9558 15.1172C25.3698 14.8125 25.6863 14.3711 25.905 13.793C26.1316 13.2148 26.2448 12.5156 26.2448 11.6953V11.6719C26.2448 10.8516 26.1316 10.1523 25.905 9.57422C25.6784 8.99609 25.3581 8.55469 24.9441 8.25C24.53 7.94531 24.0417 7.79297 23.4792 7.79297C22.9245 7.79297 22.4363 7.94922 22.0144 8.26172C21.6003 8.56641 21.28 9.00781 21.0534 9.58594C20.8269 10.1562 20.7136 10.8516 20.7136 11.6719V11.6953C20.7136 12.5156 20.8269 13.2148 21.0534 13.793C21.28 14.3711 21.6003 14.8125 22.0144 15.1172C22.4284 15.4219 22.9206 15.5742 23.4909 15.5742ZM30.9506 22.1367V5.37891H34.3725V7.53516H34.478C34.7045 7.03516 35.0014 6.60547 35.3686 6.24609C35.7436 5.88672 36.1772 5.61328 36.6694 5.42578C37.1694 5.23047 37.7202 5.13281 38.3217 5.13281C39.3842 5.13281 40.2983 5.39453 41.0639 5.91797C41.8373 6.43359 42.4311 7.18359 42.8452 8.16797C43.2592 9.14453 43.4662 10.3164 43.4662 11.6836V11.6953C43.4662 13.0625 43.2592 14.2344 42.8452 15.2109C42.4311 16.1875 41.8412 16.9375 41.0756 17.4609C40.3178 17.9844 39.4116 18.2461 38.3569 18.2461C37.7631 18.2461 37.2123 18.1523 36.7045 17.9648C36.1967 17.7695 35.7553 17.4961 35.3803 17.1445C35.0053 16.793 34.7006 16.3711 34.4662 15.8789H34.3725V22.1367H30.9506ZM37.185 15.4102C37.7553 15.4102 38.2514 15.2617 38.6733 14.9648C39.0952 14.6602 39.4194 14.2305 39.6459 13.6758C39.8725 13.1211 39.9858 12.4609 39.9858 11.6953V11.6836C39.9858 10.9102 39.8686 10.2461 39.6342 9.69141C39.4077 9.13672 39.0834 8.71094 38.6616 8.41406C38.2475 8.11719 37.7553 7.96875 37.185 7.96875C36.6225 7.96875 36.1264 8.12109 35.6967 8.42578C35.2748 8.72266 34.9428 9.14844 34.7006 9.70312C34.4662 10.2578 34.3491 10.918 34.3491 11.6836V11.6953C34.3491 12.4609 34.4702 13.1211 34.7123 13.6758C34.9545 14.2305 35.2866 14.6602 35.7084 14.9648C36.1303 15.2617 36.6225 15.4102 37.185 15.4102ZM46.1564 22.207C45.8517 22.207 45.5509 22.1953 45.2541 22.1719C44.9572 22.1484 44.7072 22.1211 44.5041 22.0898V19.5352C44.6291 19.5586 44.7853 19.5781 44.9728 19.5938C45.1603 19.6172 45.3713 19.6289 45.6056 19.6289C46.1369 19.6289 46.5588 19.5391 46.8713 19.3594C47.1838 19.1797 47.4103 18.8711 47.5509 18.4336L47.6916 18L43.2384 5.37891H46.9884L49.8713 15.9961L49.3673 15.1875H50.0705L49.5548 15.9961L52.4377 5.37891H56.047L51.7228 18.1875C51.3869 19.1953 50.9689 19.9922 50.4689 20.5781C49.9689 21.1719 49.3634 21.5898 48.6525 21.832C47.9494 22.082 47.1173 22.207 46.1564 22.207Z" fill="#544FFD"/>
</svg>
