<svg width="47" height="51" viewBox="0 0 47 51" fill="none" xmlns="http://www.w3.org/2000/svg">
<path d="M31.1944 5.4862C31.1581 6.09097 31.1695 6.69101 31.2285 7.28633C31.7592 12.6441 36.5202 16.5453 41.8519 16.0157C42.4469 15.9566 43.0113 15.8308 43.5969 15.6764L45.5003 34.8907C46.3001 42.9655 42.0139 48.2246 33.9212 49.0285L16.3339 50.7756C8.23887 51.5797 3.00436 47.2663 2.20449 39.1915L0.459208 21.5727C-0.342786 13.4764 3.94113 8.19345 12.0362 7.38932L31.1944 5.4862ZM33.1069 19.9167C32.4548 19.9093 31.8429 20.2586 31.5115 20.8206L26.4922 28.8458L19.3824 24.3099C18.9471 24.0405 18.4591 23.9664 17.988 24.0637C17.5214 24.1822 17.1187 24.4843 16.8684 24.8939L10.7338 34.7637L10.6098 34.9924C10.2804 35.7922 10.5676 36.7496 11.3337 37.2049C11.6882 37.3862 12.0594 37.4936 12.464 37.4534C13.0162 37.4226 13.5089 37.0827 13.7976 36.5995L19.0097 28.3122L26.2983 32.7366L26.5264 32.8558C27.3282 33.185 28.2616 32.9023 28.7381 32.1312L34.7373 22.5682L34.6468 22.6253C34.9757 22.0636 34.9811 21.3897 34.6603 20.8204C34.3419 20.2509 33.7281 19.903 33.1069 19.9167ZM40.6287 0.267985C43.7943 -0.0464815 46.6197 2.26991 46.9334 5.43696C47.2471 8.60402 44.9313 11.4311 41.7656 11.7456C38.6 12.0601 35.7746 9.74367 35.4609 6.57661C35.1472 3.40955 37.463 0.582451 40.6287 0.267985Z" fill="#9AE3FF"/>
</svg>
