<svg width="12" height="12" viewBox="0 0 12 12" fill="none" xmlns="http://www.w3.org/2000/svg">
<path d="M9.22827 7.26551C9.087 7.40242 9.02209 7.60042 9.05427 7.7946L9.53918 10.4782C9.58009 10.7057 9.48409 10.9359 9.29373 11.0673C9.10718 11.2037 8.859 11.2201 8.65555 11.111L6.23973 9.85096C6.15573 9.80624 6.06245 9.78224 5.967 9.77951H5.81918C5.76791 9.78715 5.71773 9.80351 5.67191 9.8286L3.25555 11.0946C3.13609 11.1546 3.00082 11.1759 2.86827 11.1546C2.54536 11.0935 2.32991 10.7859 2.38282 10.4613L2.86827 7.77769C2.90045 7.58187 2.83555 7.38278 2.69427 7.24369L0.724637 5.3346C0.559909 5.17478 0.502637 4.93478 0.577909 4.71824C0.651 4.50224 0.837546 4.3446 1.06282 4.30915L3.77373 3.91587C3.97991 3.8946 4.161 3.76915 4.25373 3.58369L5.44827 1.1346C5.47664 1.08006 5.51318 1.02987 5.55736 0.987328L5.60645 0.949146C5.63209 0.920783 5.66155 0.897328 5.69427 0.878237L5.75373 0.856419L5.84645 0.818237H6.07609C6.28118 0.83951 6.46173 0.962237 6.55609 1.14551L7.76645 3.58369C7.85373 3.76206 8.02336 3.88587 8.21918 3.91587L10.9301 4.30915C11.1592 4.34187 11.3506 4.50006 11.4265 4.71824C11.4979 4.93696 11.4363 5.17696 11.2683 5.3346L9.22827 7.26551Z" fill="#E2E9FF"/>
</svg>
