<svg width="57" height="57" viewBox="0 0 57 57" fill="none" xmlns="http://www.w3.org/2000/svg">
<rect y="14.7256" width="44" height="44" rx="10" transform="rotate(-19.5523 0 14.7256)" fill="#544FFD"/>
<path d="M24.8566 28.7267C24.2833 28.0839 23.8415 27.335 23.5563 26.5222C23.1096 25.2642 23.0458 23.9019 23.3733 22.6077C23.7007 21.3134 24.4046 20.1453 25.3959 19.2511C26.3872 18.3569 27.6214 17.7767 28.9424 17.584C30.2635 17.3912 31.612 17.5945 32.8175 18.1681C34.023 18.7418 35.0313 19.66 35.7149 20.8067C36.3986 21.9534 36.7268 23.2771 36.6582 24.6103C36.5895 25.9436 36.1271 27.2265 35.3293 28.297C34.5315 29.3674 33.4342 30.1772 32.1761 30.624C31.3656 30.9153 30.5058 31.0449 29.6453 31.0055L28.8934 32.5857L26.7731 33.3387L27.5261 35.459L25.4058 36.212L26.1588 38.3323L22.6251 39.5873L21.3701 36.0535L24.8566 28.7267Z" stroke="white" stroke-width="1.5" stroke-linecap="round" stroke-linejoin="round"/>
<path d="M31.4098 21.7434C31.4792 21.9386 31.3771 22.153 31.182 22.2223C30.9868 22.2916 30.7724 22.1896 30.7031 21.9944C30.6338 21.7993 30.7358 21.5849 30.931 21.5156C31.1261 21.4462 31.3405 21.5483 31.4098 21.7434Z" fill="black" stroke="white" stroke-width="1.5"/>
</svg>
