<svg width="189" height="78" viewBox="0 0 189 78" fill="none" xmlns="http://www.w3.org/2000/svg">
<rect x="0.5" y="0.5" width="188" height="77" rx="9.5" fill="#0E1330" stroke="#282D45"/>
<path d="M17.0781 27V18.5449H22.3164V19.4941H18.1328V22.207H22.0996V23.1445H18.1328V26.0508H22.3164V27H17.0781ZM24.0977 27V20.6836H25.1172V21.6328H25.2109C25.3711 21.2969 25.6016 21.0371 25.9023 20.8535C26.2031 20.666 26.5859 20.5723 27.0508 20.5723C27.7617 20.5723 28.3066 20.7754 28.6855 21.1816C29.0684 21.584 29.2598 22.1602 29.2598 22.9102V27H28.2402V23.1562C28.2402 22.5859 28.1191 22.1641 27.877 21.8906C27.6387 21.6133 27.2676 21.4746 26.7637 21.4746C26.4277 21.4746 26.1367 21.5469 25.8906 21.6914C25.6445 21.8359 25.4531 22.041 25.3164 22.3066C25.1836 22.5723 25.1172 22.8906 25.1172 23.2617V27H24.0977ZM33.3496 27.0469C32.7012 27.0469 32.2305 26.916 31.9375 26.6543C31.6484 26.3926 31.5039 25.9609 31.5039 25.3594V21.5273H30.5078V20.6836H31.5039V19.0488H32.5586V20.6836H33.9414V21.5273H32.5586V25.1016C32.5586 25.4727 32.6289 25.7402 32.7695 25.9043C32.9102 26.0645 33.1445 26.1445 33.4727 26.1445C33.5625 26.1445 33.6387 26.1426 33.7012 26.1387C33.7676 26.1348 33.8477 26.1289 33.9414 26.1211V26.9883C33.8438 27.0039 33.7461 27.0176 33.6484 27.0293C33.5508 27.041 33.4512 27.0469 33.3496 27.0469ZM37.9609 27.1113C37.3594 27.1113 36.8418 26.9785 36.4082 26.7129C35.9785 26.4473 35.6465 26.0723 35.4121 25.5879C35.1816 25.0996 35.0664 24.5254 35.0664 23.8652V23.8594C35.0664 23.207 35.1816 22.6348 35.4121 22.1426C35.6465 21.6504 35.9766 21.2656 36.4023 20.9883C36.8281 20.7109 37.3262 20.5723 37.8965 20.5723C38.4707 20.5723 38.9629 20.7051 39.373 20.9707C39.7871 21.2363 40.1035 21.6074 40.3223 22.084C40.5449 22.5566 40.6562 23.1074 40.6562 23.7363V24.1348H35.5938V23.3203H40.1348L39.6309 24.0645V23.6602C39.6309 23.1641 39.5566 22.7559 39.4082 22.4355C39.2598 22.1152 39.0547 21.877 38.793 21.7207C38.5312 21.5605 38.2305 21.4805 37.8906 21.4805C37.5508 21.4805 37.2461 21.5645 36.9766 21.7324C36.7109 21.8965 36.5 22.1406 36.3438 22.4648C36.1875 22.7891 36.1094 23.1875 36.1094 23.6602V24.0645C36.1094 24.5137 36.1855 24.8984 36.3379 25.2188C36.4902 25.5352 36.707 25.7793 36.9883 25.9512C37.2695 26.1191 37.6016 26.2031 37.9844 26.2031C38.2695 26.2031 38.5176 26.1641 38.7285 26.0859C38.9395 26.0078 39.1133 25.9082 39.25 25.7871C39.3867 25.666 39.4824 25.543 39.5371 25.418L39.5605 25.3652H40.5801L40.5684 25.4121C40.5137 25.627 40.416 25.8359 40.2754 26.0391C40.1387 26.2383 39.9609 26.4199 39.7422 26.584C39.5234 26.7441 39.2637 26.873 38.9629 26.9707C38.666 27.0645 38.332 27.1113 37.9609 27.1113ZM42.2383 27V20.6836H43.2578V21.6211H43.3516C43.4727 21.2891 43.6777 21.0312 43.9668 20.8477C44.2559 20.6641 44.6133 20.5723 45.0391 20.5723C45.1367 20.5723 45.2324 20.5781 45.3262 20.5898C45.4238 20.5977 45.498 20.6055 45.5488 20.6133V21.6035C45.4434 21.584 45.3398 21.5703 45.2383 21.5625C45.1406 21.5508 45.0352 21.5449 44.9219 21.5449C44.5977 21.5449 44.3105 21.6094 44.0605 21.7383C43.8105 21.8672 43.6133 22.0469 43.4688 22.2773C43.3281 22.5078 43.2578 22.7773 43.2578 23.0859V27H42.2383ZM51.918 27.1113C51.5195 27.1113 51.1602 27.0352 50.8398 26.8828C50.5234 26.7305 50.2715 26.5137 50.084 26.2324C49.9004 25.9512 49.8086 25.6191 49.8086 25.2363V25.2246C49.8086 24.8496 49.8984 24.5293 50.0781 24.2637C50.2578 23.9941 50.5195 23.7832 50.8633 23.6309C51.207 23.4785 51.623 23.3887 52.1113 23.3613L54.4316 23.2207V24.0352L52.2344 24.1758C51.7539 24.2031 51.4023 24.3027 51.1797 24.4746C50.9609 24.6465 50.8516 24.8887 50.8516 25.2012V25.2129C50.8516 25.5332 50.9727 25.7832 51.2148 25.9629C51.457 26.1387 51.7617 26.2266 52.1289 26.2266C52.4766 26.2266 52.7852 26.1582 53.0547 26.0215C53.3242 25.8809 53.5352 25.6914 53.6875 25.4531C53.8438 25.2148 53.9219 24.9453 53.9219 24.6445V22.6758C53.9219 22.2852 53.8027 21.9883 53.5645 21.7852C53.3301 21.5781 52.9766 21.4746 52.5039 21.4746C52.125 21.4746 51.8145 21.543 51.5723 21.6797C51.3301 21.8125 51.168 22.002 51.0859 22.248L51.0801 22.2656H50.0605L50.0664 22.2305C50.1211 21.8984 50.2578 21.6094 50.4766 21.3633C50.6992 21.1133 50.9863 20.9199 51.3379 20.7832C51.6895 20.6426 52.0898 20.5723 52.5391 20.5723C53.0547 20.5723 53.4902 20.6562 53.8457 20.8242C54.2051 20.9922 54.4766 21.2344 54.6602 21.5508C54.8477 21.8633 54.9414 22.2383 54.9414 22.6758V27H53.9219V26.0684H53.8281C53.6953 26.291 53.5332 26.4805 53.3418 26.6367C53.1543 26.793 52.9414 26.9121 52.7031 26.9941C52.4648 27.0723 52.2031 27.1113 51.918 27.1113ZM56.8047 27V20.6836H57.8242V21.6445H57.918C58.0586 21.3047 58.2734 21.041 58.5625 20.8535C58.8555 20.666 59.209 20.5723 59.623 20.5723C59.9082 20.5723 60.1641 20.6191 60.3906 20.7129C60.6172 20.8066 60.8125 20.9375 60.9766 21.1055C61.1406 21.2695 61.2715 21.4609 61.3691 21.6797H61.4629C61.5762 21.457 61.7285 21.2637 61.9199 21.0996C62.1113 20.9316 62.332 20.8027 62.582 20.7129C62.8359 20.6191 63.1074 20.5723 63.3965 20.5723C63.8262 20.5723 64.1895 20.6523 64.4863 20.8125C64.7871 20.9727 65.0156 21.207 65.1719 21.5156C65.3281 21.8203 65.4062 22.1934 65.4062 22.6348V27H64.3867V22.8691C64.3867 22.5566 64.3379 22.2988 64.2402 22.0957C64.1465 21.8887 64.002 21.7344 63.8066 21.6328C63.6113 21.5273 63.3652 21.4746 63.0684 21.4746C62.7754 21.4746 62.5195 21.541 62.3008 21.6738C62.082 21.8066 61.9121 21.9844 61.791 22.207C61.6699 22.4258 61.6094 22.6699 61.6094 22.9395V27H60.5898V22.7109C60.5898 22.4609 60.5352 22.2441 60.4258 22.0605C60.3203 21.873 60.168 21.7285 59.9688 21.627C59.7734 21.5254 59.543 21.4746 59.2773 21.4746C59.0039 21.4746 58.7559 21.5469 58.5332 21.6914C58.3145 21.8359 58.1406 22.0312 58.0117 22.2773C57.8867 22.5195 57.8242 22.7891 57.8242 23.0859V27H56.8047ZM69.8418 27.1113C69.2441 27.1113 68.7266 26.9805 68.2891 26.7188C67.8555 26.4531 67.5195 26.0762 67.2812 25.5879C67.0469 25.0996 66.9297 24.5195 66.9297 23.8477V23.8359C66.9297 23.1602 67.0469 22.5781 67.2812 22.0898C67.5195 21.6016 67.8555 21.2266 68.2891 20.9648C68.7266 20.7031 69.2441 20.5723 69.8418 20.5723C70.4434 20.5723 70.9609 20.7031 71.3945 20.9648C71.8281 21.2266 72.1621 21.6016 72.3965 22.0898C72.6348 22.5781 72.7539 23.1602 72.7539 23.8359V23.8477C72.7539 24.5195 72.6348 25.0996 72.3965 25.5879C72.1621 26.0762 71.8281 26.4531 71.3945 26.7188C70.9609 26.9805 70.4434 27.1113 69.8418 27.1113ZM69.8418 26.209C70.2402 26.209 70.5781 26.1152 70.8555 25.9277C71.1328 25.7402 71.3438 25.4707 71.4883 25.1191C71.6367 24.7676 71.7109 24.3438 71.7109 23.8477V23.8359C71.7109 23.3359 71.6367 22.9102 71.4883 22.5586C71.3438 22.207 71.1328 21.9395 70.8555 21.7559C70.5781 21.5684 70.2402 21.4746 69.8418 21.4746C69.4434 21.4746 69.1055 21.5684 68.8281 21.7559C68.5508 21.9395 68.3379 22.207 68.1895 22.5586C68.0449 22.9102 67.9727 23.3359 67.9727 23.8359V23.8477C67.9727 24.3438 68.0449 24.7676 68.1895 25.1191C68.3379 25.4707 68.5508 25.7402 68.8281 25.9277C69.1055 26.1152 69.4434 26.209 69.8418 26.209ZM76.4512 27.1113C75.9746 27.1113 75.5742 27.0215 75.25 26.8418C74.9258 26.6582 74.6816 26.3926 74.5176 26.0449C74.3574 25.6934 74.2773 25.2695 74.2773 24.7734V20.6836H75.2969V24.5273C75.2969 25.0938 75.4062 25.5156 75.625 25.793C75.8477 26.0703 76.2109 26.209 76.7148 26.209C76.9922 26.209 77.2363 26.168 77.4473 26.0859C77.6621 26.0039 77.8418 25.8867 77.9863 25.7344C78.1309 25.5781 78.2383 25.3906 78.3086 25.1719C78.3828 24.9492 78.4199 24.6992 78.4199 24.4219V20.6836H79.4395V27H78.4199V26.0566H78.3262C78.2246 26.2793 78.0859 26.4707 77.9102 26.6309C77.7344 26.7871 77.5234 26.9062 77.2773 26.9883C77.0352 27.0703 76.7598 27.1113 76.4512 27.1113ZM81.3438 27V20.6836H82.3633V21.6328H82.457C82.6172 21.2969 82.8477 21.0371 83.1484 20.8535C83.4492 20.666 83.832 20.5723 84.2969 20.5723C85.0078 20.5723 85.5527 20.7754 85.9316 21.1816C86.3145 21.584 86.5059 22.1602 86.5059 22.9102V27H85.4863V23.1562C85.4863 22.5859 85.3652 22.1641 85.123 21.8906C84.8848 21.6133 84.5137 21.4746 84.0098 21.4746C83.6738 21.4746 83.3828 21.5469 83.1367 21.6914C82.8906 21.8359 82.6992 22.041 82.5625 22.3066C82.4297 22.5723 82.3633 22.8906 82.3633 23.2617V27H81.3438ZM90.5957 27.0469C89.9473 27.0469 89.4766 26.916 89.1836 26.6543C88.8945 26.3926 88.75 25.9609 88.75 25.3594V21.5273H87.7539V20.6836H88.75V19.0488H89.8047V20.6836H91.1875V21.5273H89.8047V25.1016C89.8047 25.4727 89.875 25.7402 90.0156 25.9043C90.1562 26.0645 90.3906 26.1445 90.7188 26.1445C90.8086 26.1445 90.8848 26.1426 90.9473 26.1387C91.0137 26.1348 91.0938 26.1289 91.1875 26.1211V26.9883C91.0898 27.0039 90.9922 27.0176 90.8945 27.0293C90.7969 27.041 90.6973 27.0469 90.5957 27.0469Z" fill="#A9A7B6"/>
<path d="M21.0859 52.8359C20.3932 52.8359 19.75 52.7109 19.1562 52.4609C18.5625 52.2109 18.0807 51.8516 17.7109 51.3828C17.3464 50.9141 17.151 50.3516 17.125 49.6953V49.6875L18.4844 49.6797V49.6953C18.5365 50.0547 18.6589 50.3802 18.8516 50.6719C19.0443 50.9635 19.3229 51.1953 19.6875 51.3672C20.0573 51.5339 20.5286 51.6172 21.1016 51.6172C21.6901 51.6172 22.1615 51.5391 22.5156 51.3828C22.875 51.2214 23.1354 51.0078 23.2969 50.7422C23.4583 50.4714 23.5391 50.1745 23.5391 49.8516V49.8359C23.5391 49.4089 23.4036 49.0547 23.1328 48.7734C22.8672 48.487 22.3464 48.25 21.5703 48.0625L20.4062 47.7812C19.7604 47.625 19.2135 47.4219 18.7656 47.1719C18.3229 46.9167 17.987 46.6042 17.7578 46.2344C17.5286 45.8646 17.4141 45.4245 17.4141 44.9141V44.8984C17.4141 44.2891 17.5729 43.7604 17.8906 43.3125C18.2135 42.8594 18.651 42.5104 19.2031 42.2656C19.7552 42.0156 20.3828 41.8906 21.0859 41.8906C21.7578 41.8906 22.3672 42.0182 22.9141 42.2734C23.4661 42.5286 23.9115 42.888 24.25 43.3516C24.5885 43.8099 24.7682 44.349 24.7891 44.9688V44.9766L23.4297 44.9844V44.9688C23.3932 44.5729 23.2682 44.237 23.0547 43.9609C22.8464 43.6849 22.5729 43.474 22.2344 43.3281C21.8958 43.1823 21.513 43.1094 21.0859 43.1094C20.5807 43.1094 20.1562 43.1927 19.8125 43.3594C19.4688 43.5208 19.2083 43.7318 19.0312 43.9922C18.8594 44.2474 18.7734 44.5182 18.7734 44.8047V44.8203C18.7734 45.0703 18.8307 45.3021 18.9453 45.5156C19.0651 45.7292 19.2578 45.9193 19.5234 46.0859C19.7891 46.2526 20.1484 46.3906 20.6016 46.5L21.7656 46.7812C22.7708 47.0208 23.5443 47.3672 24.0859 47.8203C24.6276 48.2734 24.8984 48.9089 24.8984 49.7266V49.7422C24.8984 50.4141 24.7214 50.9818 24.3672 51.4453C24.013 51.9036 23.5469 52.25 22.9688 52.4844C22.3906 52.7188 21.763 52.8359 21.0859 52.8359ZM20.5859 54.1328V40.5938H21.5234V54.1328H20.5859ZM32.4844 53V50.6641H26.9922V49.3828C27.2995 48.8724 27.612 48.3568 27.9297 47.8359C28.2474 47.3099 28.5677 46.7865 28.8906 46.2656C29.2188 45.7396 29.5469 45.2188 29.875 44.7031C30.2031 44.1875 30.5286 43.6797 30.8516 43.1797C31.1797 42.6797 31.5026 42.1953 31.8203 41.7266H33.8594V49.4062H35.4609V50.6641H33.8594V53H32.4844ZM28.4297 49.4141H32.4922V43.0312H32.3984C32.1432 43.4115 31.8828 43.8073 31.6172 44.2188C31.3516 44.625 31.0807 45.0417 30.8047 45.4688C30.5339 45.8958 30.263 46.3255 29.9922 46.7578C29.7214 47.1901 29.4531 47.6224 29.1875 48.0547C28.9271 48.4818 28.6745 48.9036 28.4297 49.3203V49.4141ZM41.3359 53.2656C40.638 53.2656 40.0156 53.1276 39.4688 52.8516C38.9219 52.5755 38.4818 52.2005 38.1484 51.7266C37.8203 51.2474 37.6276 50.7083 37.5703 50.1094L37.5625 50.0234H38.9141L38.9219 50.0859C38.9688 50.4453 39.099 50.7734 39.3125 51.0703C39.5312 51.362 39.8151 51.5938 40.1641 51.7656C40.5182 51.9375 40.9141 52.0234 41.3516 52.0234C41.8516 52.0234 42.2917 51.9141 42.6719 51.6953C43.0521 51.4714 43.349 51.1641 43.5625 50.7734C43.776 50.3828 43.8828 49.9349 43.8828 49.4297V49.4141C43.8828 48.9141 43.7734 48.4714 43.5547 48.0859C43.3411 47.6953 43.0469 47.3906 42.6719 47.1719C42.2969 46.9531 41.8646 46.8438 41.375 46.8438C41 46.8438 40.6536 46.901 40.3359 47.0156C40.0234 47.1302 39.7448 47.3021 39.5 47.5312C39.401 47.625 39.3073 47.7266 39.2188 47.8359C39.1354 47.9453 39.0573 48.0677 38.9844 48.2031H37.7656L38.3594 41.7266H44.6328V42.9844H39.4688L39.0859 46.7969H39.2109C39.3776 46.5417 39.5833 46.3281 39.8281 46.1562C40.0729 45.9844 40.3464 45.8542 40.6484 45.7656C40.9557 45.6719 41.2786 45.625 41.6172 45.625C42.3255 45.625 42.9531 45.7891 43.5 46.1172C44.0469 46.4401 44.4766 46.8854 44.7891 47.4531C45.1016 48.0156 45.2578 48.6615 45.2578 49.3906V49.4062C45.2578 50.1615 45.0885 50.8307 44.75 51.4141C44.4167 51.9922 43.9557 52.4453 43.3672 52.7734C42.7786 53.1016 42.1016 53.2656 41.3359 53.2656ZM51.2969 53.2656C50.4635 53.2656 49.75 53.026 49.1562 52.5469C48.5677 52.0677 48.1146 51.388 47.7969 50.5078C47.4792 49.6224 47.3203 48.5755 47.3203 47.3672V47.3516C47.3203 46.1432 47.4792 45.099 47.7969 44.2188C48.1146 43.3385 48.5677 42.6589 49.1562 42.1797C49.75 41.7005 50.4635 41.4609 51.2969 41.4609C52.1302 41.4609 52.8438 41.7005 53.4375 42.1797C54.0312 42.6589 54.487 43.3385 54.8047 44.2188C55.1276 45.099 55.2891 46.1432 55.2891 47.3516V47.3672C55.2891 48.5755 55.1276 49.6224 54.8047 50.5078C54.487 51.388 54.0312 52.0677 53.4375 52.5469C52.8438 53.026 52.1302 53.2656 51.2969 53.2656ZM51.2969 52.0391C51.8385 52.0391 52.2995 51.849 52.6797 51.4688C53.0651 51.0885 53.3594 50.5495 53.5625 49.8516C53.7708 49.1536 53.875 48.3255 53.875 47.3672V47.3516C53.875 46.3932 53.7708 45.5677 53.5625 44.875C53.3594 44.1771 53.0651 43.6406 52.6797 43.2656C52.2995 42.8854 51.8385 42.6953 51.2969 42.6953C50.7604 42.6953 50.2995 42.8854 49.9141 43.2656C49.5339 43.6406 49.2422 44.1771 49.0391 44.875C48.8359 45.5677 48.7344 46.3932 48.7344 47.3516V47.3672C48.7344 48.3255 48.8359 49.1536 49.0391 49.8516C49.2422 50.5495 49.5339 51.0885 49.9141 51.4688C50.2995 51.849 50.7604 52.0391 51.2969 52.0391ZM56.6406 55.8672L57.3203 51.4219H58.875L57.6484 55.8672H56.6406ZM64.875 53.2656C64.0417 53.2656 63.3281 53.026 62.7344 52.5469C62.1458 52.0677 61.6927 51.388 61.375 50.5078C61.0573 49.6224 60.8984 48.5755 60.8984 47.3672V47.3516C60.8984 46.1432 61.0573 45.099 61.375 44.2188C61.6927 43.3385 62.1458 42.6589 62.7344 42.1797C63.3281 41.7005 64.0417 41.4609 64.875 41.4609C65.7083 41.4609 66.4219 41.7005 67.0156 42.1797C67.6094 42.6589 68.0651 43.3385 68.3828 44.2188C68.7057 45.099 68.8672 46.1432 68.8672 47.3516V47.3672C68.8672 48.5755 68.7057 49.6224 68.3828 50.5078C68.0651 51.388 67.6094 52.0677 67.0156 52.5469C66.4219 53.026 65.7083 53.2656 64.875 53.2656ZM64.875 52.0391C65.4167 52.0391 65.8776 51.849 66.2578 51.4688C66.6432 51.0885 66.9375 50.5495 67.1406 49.8516C67.349 49.1536 67.4531 48.3255 67.4531 47.3672V47.3516C67.4531 46.3932 67.349 45.5677 67.1406 44.875C66.9375 44.1771 66.6432 43.6406 66.2578 43.2656C65.8776 42.8854 65.4167 42.6953 64.875 42.6953C64.3385 42.6953 63.8776 42.8854 63.4922 43.2656C63.112 43.6406 62.8203 44.1771 62.6172 44.875C62.4141 45.5677 62.3125 46.3932 62.3125 47.3516V47.3672C62.3125 48.3255 62.4141 49.1536 62.6172 49.8516C62.8203 50.5495 63.112 51.0885 63.4922 51.4688C63.8776 51.849 64.3385 52.0391 64.875 52.0391ZM74.9531 53.2656C74.1198 53.2656 73.4062 53.026 72.8125 52.5469C72.224 52.0677 71.7708 51.388 71.4531 50.5078C71.1354 49.6224 70.9766 48.5755 70.9766 47.3672V47.3516C70.9766 46.1432 71.1354 45.099 71.4531 44.2188C71.7708 43.3385 72.224 42.6589 72.8125 42.1797C73.4062 41.7005 74.1198 41.4609 74.9531 41.4609C75.7865 41.4609 76.5 41.7005 77.0938 42.1797C77.6875 42.6589 78.1432 43.3385 78.4609 44.2188C78.7839 45.099 78.9453 46.1432 78.9453 47.3516V47.3672C78.9453 48.5755 78.7839 49.6224 78.4609 50.5078C78.1432 51.388 77.6875 52.0677 77.0938 52.5469C76.5 53.026 75.7865 53.2656 74.9531 53.2656ZM74.9531 52.0391C75.4948 52.0391 75.9557 51.849 76.3359 51.4688C76.7214 51.0885 77.0156 50.5495 77.2188 49.8516C77.4271 49.1536 77.5312 48.3255 77.5312 47.3672V47.3516C77.5312 46.3932 77.4271 45.5677 77.2188 44.875C77.0156 44.1771 76.7214 43.6406 76.3359 43.2656C75.9557 42.8854 75.4948 42.6953 74.9531 42.6953C74.4167 42.6953 73.9557 42.8854 73.5703 43.2656C73.1901 43.6406 72.8984 44.1771 72.6953 44.875C72.4922 45.5677 72.3906 46.3932 72.3906 47.3516V47.3672C72.3906 48.3255 72.4922 49.1536 72.6953 49.8516C72.8984 50.5495 73.1901 51.0885 73.5703 51.4688C73.9557 51.849 74.4167 52.0391 74.9531 52.0391Z" fill="#F1F1F1" fill-opacity="0.8"/>
<rect x="109" y="21" width="64" height="28" rx="8" fill="#3571FD"/>
<path d="M131.195 33.0291C131.146 32.5921 130.943 32.2536 130.586 32.0135C130.229 31.7704 129.78 31.6488 129.238 31.6488C128.85 31.6488 128.515 31.7103 128.232 31.8335C127.948 31.9535 127.728 32.1197 127.571 32.332C127.417 32.5413 127.341 32.7798 127.341 33.0476C127.341 33.2723 127.393 33.4661 127.498 33.6293C127.605 33.7924 127.745 33.9293 127.918 34.0401C128.093 34.1478 128.281 34.2386 128.481 34.3125C128.681 34.3833 128.873 34.4418 129.058 34.4879L129.981 34.728C130.283 34.8018 130.592 34.9019 130.909 35.0281C131.226 35.1542 131.52 35.3204 131.791 35.5266C132.062 35.7328 132.28 35.9883 132.446 36.293C132.616 36.5977 132.7 36.9624 132.7 37.3871C132.7 37.9226 132.562 38.3981 132.285 38.8136C132.011 39.229 131.612 39.5568 131.089 39.7969C130.569 40.0369 129.94 40.157 129.201 40.157C128.493 40.157 127.881 40.0446 127.364 39.82C126.847 39.5953 126.442 39.2768 126.15 38.8643C125.857 38.4489 125.696 37.9564 125.665 37.3871H127.096C127.124 37.7287 127.234 38.0134 127.428 38.2411C127.625 38.4658 127.876 38.6335 128.181 38.7443C128.489 38.852 128.826 38.9059 129.192 38.9059C129.595 38.9059 129.953 38.8428 130.267 38.7166C130.584 38.5874 130.834 38.4089 131.015 38.1811C131.197 37.9503 131.288 37.681 131.288 37.3732C131.288 37.0932 131.208 36.8639 131.048 36.6854C130.891 36.5069 130.677 36.3591 130.406 36.2422C130.138 36.1252 129.835 36.0221 129.496 35.9329L128.379 35.6282C127.622 35.422 127.022 35.1188 126.579 34.7188C126.139 34.3187 125.919 33.7893 125.919 33.1307C125.919 32.5859 126.066 32.1104 126.362 31.7042C126.657 31.2979 127.057 30.9825 127.562 30.7578C128.067 30.5301 128.636 30.4162 129.27 30.4162C129.91 30.4162 130.475 30.5285 130.964 30.7532C131.457 30.9779 131.845 31.2872 132.128 31.6811C132.411 32.072 132.559 32.5213 132.571 33.0291H131.195ZM137.35 40.1431C136.652 40.1431 136.05 39.9938 135.545 39.6953C135.044 39.3937 134.656 38.9705 134.382 38.4258C134.111 37.878 133.976 37.2363 133.976 36.5007C133.976 35.7744 134.111 35.1342 134.382 34.5803C134.656 34.0263 135.037 33.5939 135.527 33.283C136.019 32.9722 136.595 32.8168 137.253 32.8168C137.653 32.8168 138.041 32.8829 138.417 33.0153C138.792 33.1476 139.129 33.3554 139.428 33.6385C139.726 33.9216 139.962 34.2894 140.134 34.7418C140.306 35.1912 140.392 35.7375 140.392 36.3807V36.87H134.756V35.8359H139.04C139.04 35.4728 138.966 35.1512 138.818 34.8711C138.671 34.5879 138.463 34.3648 138.195 34.2017C137.93 34.0386 137.62 33.957 137.263 33.957C136.875 33.957 136.536 34.0524 136.247 34.2433C135.961 34.431 135.739 34.6772 135.582 34.9819C135.428 35.2835 135.351 35.6113 135.351 35.9652V36.7731C135.351 37.247 135.434 37.6502 135.601 37.9826C135.77 38.315 136.005 38.5689 136.307 38.7443C136.609 38.9167 136.961 39.0028 137.364 39.0028C137.626 39.0028 137.864 38.9659 138.08 38.892C138.295 38.8151 138.481 38.7012 138.638 38.5504C138.795 38.3996 138.915 38.2134 138.998 37.9918L140.305 38.2273C140.2 38.612 140.012 38.949 139.742 39.2383C139.474 39.5245 139.137 39.7476 138.731 39.9077C138.327 40.0646 137.867 40.1431 137.35 40.1431ZM143.304 35.7898V40H141.924V32.9091H143.249V34.0632H143.337C143.5 33.6877 143.755 33.3861 144.103 33.1584C144.454 32.9306 144.895 32.8168 145.428 32.8168C145.911 32.8168 146.334 32.9183 146.697 33.1214C147.061 33.3215 147.342 33.62 147.542 34.017C147.742 34.4141 147.842 34.9049 147.842 35.4897V40H146.462V35.6559C146.462 35.1419 146.328 34.7403 146.06 34.451C145.793 34.1586 145.425 34.0124 144.957 34.0124C144.637 34.0124 144.352 34.0817 144.103 34.2202C143.857 34.3587 143.661 34.5618 143.517 34.8295C143.375 35.0942 143.304 35.4143 143.304 35.7898ZM152.348 40.1385C151.776 40.1385 151.265 39.9923 150.815 39.6999C150.369 39.4045 150.018 38.9844 149.763 38.4396C149.51 37.8918 149.384 37.2347 149.384 36.4684C149.384 35.7021 149.512 35.0465 149.767 34.5018C150.026 33.957 150.38 33.54 150.829 33.2507C151.279 32.9614 151.788 32.8168 152.357 32.8168C152.797 32.8168 153.151 32.8906 153.419 33.0384C153.69 33.183 153.899 33.3523 154.047 33.5462C154.198 33.7401 154.315 33.9109 154.398 34.0586H154.481V30.5455H155.861V40H154.513V38.8967H154.398C154.315 39.0475 154.195 39.2198 154.038 39.4137C153.884 39.6076 153.671 39.7769 153.401 39.9215C153.13 40.0662 152.779 40.1385 152.348 40.1385ZM152.653 38.9613C153.05 38.9613 153.385 38.8567 153.659 38.6474C153.936 38.435 154.145 38.1411 154.287 37.7656C154.432 37.3902 154.504 36.9531 154.504 36.4545C154.504 35.9621 154.433 35.5312 154.292 35.1619C154.15 34.7926 153.942 34.5049 153.668 34.2987C153.394 34.0924 153.056 33.9893 152.653 33.9893C152.237 33.9893 151.891 34.0971 151.614 34.3125C151.337 34.5279 151.128 34.8219 150.986 35.1942C150.848 35.5666 150.778 35.9867 150.778 36.4545C150.778 36.9285 150.849 37.3548 150.991 37.7333C151.132 38.1119 151.342 38.4119 151.619 38.6335C151.899 38.852 152.243 38.9613 152.653 38.9613Z" fill="white"/>
<rect x="16" y="61" width="157" height="1" fill="#EEEEEE" fill-opacity="0.3"/>
<rect x="0.5" y="0.5" width="188" height="77"/>
</svg>
