<svg width="116" height="53" viewBox="0 0 116 53" fill="none" xmlns="http://www.w3.org/2000/svg">
<rect x="7.14762" y="0.825303" width="109" height="31" rx="7.5" transform="rotate(10.658 7.14762 0.825303)" fill="#0E1330" stroke="#35FDAC"/>
<path d="M19.6632 22.4864L21.2269 14.1772L26.2712 15.1265L26.0957 16.0594L22.0879 15.3051L21.5504 18.1612L25.2299 18.8537L25.0565 19.775L21.377 19.0826L20.6997 22.6815L19.6632 22.4864ZM27.566 24.087C27.1745 24.0133 26.8354 23.872 26.5488 23.663C26.266 23.4548 26.0585 23.1951 25.9262 22.884C25.7978 22.5737 25.769 22.2304 25.8398 21.8542L25.842 21.8427C25.9113 21.4741 26.0589 21.176 26.2846 20.9482C26.511 20.7165 26.8072 20.5576 27.1732 20.4715C27.5392 20.3853 27.9647 20.374 28.4496 20.4374L30.7559 20.7284L30.6053 21.5288L28.4199 21.2606C27.9427 21.1986 27.5787 21.2315 27.3281 21.3592C27.0814 21.4876 26.9291 21.7054 26.8713 22.0125L26.8691 22.0241C26.8099 22.3388 26.8827 22.6069 27.0874 22.8283C27.2929 23.0458 27.5761 23.1886 27.937 23.2565C28.2786 23.3208 28.5945 23.3107 28.8847 23.2262C29.1756 23.1378 29.4179 22.9906 29.6117 22.7846C29.8093 22.5794 29.936 22.3289 29.9916 22.0333L30.3557 20.0986C30.4279 19.7147 30.3658 19.4009 30.1692 19.1572C29.9771 18.9104 29.6488 18.7433 29.1843 18.6559C28.812 18.5858 28.4941 18.5955 28.2309 18.6851C27.9683 18.7708 27.7739 18.927 27.6478 19.1537L27.6388 19.1699L26.6368 18.9813L26.6491 18.9479C26.7643 18.6317 26.9521 18.3729 27.2126 18.1715C27.4776 17.967 27.7955 17.8301 28.1663 17.7607C28.5378 17.6876 28.9443 17.6925 29.3858 17.7756C29.8925 17.8709 30.305 18.034 30.6233 18.2649C30.9454 18.4964 31.1674 18.7846 31.2893 19.1295C31.4158 19.4713 31.4386 19.8572 31.3576 20.2871L30.5579 24.5367L29.556 24.3482L29.7283 23.4326L29.6361 23.4153C29.4644 23.6095 29.2701 23.7657 29.0531 23.8839C28.8399 24.0028 28.6087 24.0805 28.3593 24.117C28.1107 24.1497 27.8463 24.1397 27.566 24.087ZM32.389 24.8813L33.5572 18.6739L34.5592 18.8625L34.3815 19.8068L34.4736 19.8242C34.6746 19.5162 34.9345 19.2968 35.2533 19.166C35.5759 19.0359 35.9406 19.0092 36.3476 19.0857C36.6278 19.1385 36.8706 19.2319 37.0759 19.3659C37.2812 19.4999 37.4489 19.6647 37.5791 19.8601C37.71 20.0517 37.8032 20.264 37.8587 20.497L37.9508 20.5143C38.1034 20.3165 38.2888 20.1546 38.5073 20.0288C38.7264 19.8991 38.9672 19.8133 39.2295 19.7712C39.4964 19.726 39.7718 19.7302 40.0559 19.7836C40.4782 19.8631 40.8204 20.009 41.0825 20.2213C41.3485 20.4343 41.5297 20.7069 41.6262 21.0391C41.7234 21.3674 41.7312 21.7485 41.6495 22.1822L40.8422 26.4722L39.8403 26.2836L40.6043 22.224C40.662 21.9169 40.6617 21.6545 40.6033 21.4368C40.5495 21.216 40.436 21.0377 40.2628 20.9017C40.0904 20.762 39.8583 20.6646 39.5665 20.6097C39.2786 20.5555 39.0149 20.5735 38.7754 20.6635C38.5358 20.7536 38.336 20.8968 38.1758 21.0933C38.0163 21.2858 37.9117 21.5146 37.8618 21.7795L37.1108 25.77L36.1089 25.5814L36.9021 21.3663C36.9484 21.1206 36.9347 20.8975 36.8612 20.6968C36.7922 20.493 36.6692 20.3228 36.4922 20.1862C36.3191 20.0502 36.102 19.9577 35.8409 19.9086C35.5722 19.858 35.3151 19.8832 35.0695 19.984C34.8278 20.0856 34.6209 20.2454 34.4487 20.4634C34.281 20.6783 34.1698 20.9316 34.1149 21.2234L33.391 25.0699L32.389 24.8813ZM42.6733 26.8168L43.8415 20.6093L44.8435 20.7979L43.6753 27.0053L42.6733 26.8168ZM44.5737 19.507C44.3856 19.4716 44.2351 19.3737 44.1221 19.2133C44.0138 19.0498 43.9773 18.874 44.0127 18.6859C44.0488 18.494 44.1467 18.3435 44.3064 18.2344C44.4699 18.1261 44.6456 18.0896 44.8338 18.125C45.0257 18.1611 45.1762 18.259 45.2853 18.4186C45.3944 18.5783 45.4308 18.7541 45.3947 18.946C45.3593 19.1341 45.2614 19.2846 45.1011 19.3976C44.9414 19.5066 44.7656 19.5431 44.5737 19.507ZM45.6216 27.3716L47.2536 18.6996L48.2555 18.8882L46.6235 27.5602L45.6216 27.3716ZM48.6669 30.1985C48.6017 30.1862 48.5295 30.1686 48.4503 30.1458C48.3704 30.1267 48.297 30.105 48.23 30.0805L48.385 29.257C48.4443 29.2801 48.51 29.3004 48.5822 29.318C48.6544 29.3356 48.7251 29.3508 48.7942 29.3638C49.0783 29.4173 49.3242 29.3881 49.5321 29.2762C49.7438 29.165 49.939 28.9413 50.1175 28.6053L50.302 28.2584L49.1737 21.6128L50.2448 21.8144L51.0772 27.9094L50.798 27.207L51.2702 27.2959L50.7547 27.8487L53.74 22.4722L54.7938 22.6705L51.1299 28.8017C50.8697 29.2337 50.621 29.5626 50.3838 29.7882C50.1504 30.0146 49.8972 30.1557 49.6244 30.2117C49.3546 30.2722 49.0355 30.2678 48.6669 30.1985ZM60.1152 30.0992L59.4159 21.3641L60.4985 21.5678L60.88 28.6333L60.9491 28.6463L64.0802 22.2419L65.1282 22.4391L65.7169 29.5436L65.786 29.5566L68.7098 23.1132L69.7924 23.3169L65.9656 31.2002L64.9867 31.016L64.3093 24.0975L64.2402 24.0845L61.0941 30.2834L60.1152 30.0992ZM70.7878 32.221C70.3962 32.1473 70.0571 32.006 69.7705 31.797C69.4877 31.5888 69.2802 31.3291 69.148 31.0181C69.0196 30.7077 68.9908 30.3644 69.0616 29.9882L69.0637 29.9767C69.1331 29.6082 69.2806 29.31 69.5063 29.0822C69.7328 28.8506 70.029 28.6917 70.395 28.6055C70.761 28.5194 71.1864 28.508 71.6713 28.5715L73.9776 28.8624L73.827 29.6628L71.6416 29.3946C71.1644 29.3326 70.8005 29.3655 70.5499 29.4932C70.3031 29.6217 70.1508 29.8395 70.093 30.1466L70.0909 30.1581C70.0316 30.4729 70.1044 30.741 70.3092 30.9623C70.5147 31.1799 70.7978 31.3226 71.1587 31.3905C71.5004 31.4548 71.8163 31.4447 72.1064 31.3602C72.3973 31.2718 72.6397 31.1247 72.8335 30.9187C73.0311 30.7134 73.1577 30.463 73.2133 30.1674L73.5774 28.2326C73.6497 27.8487 73.5875 27.5349 73.3909 27.2912C73.1989 27.0444 72.8706 26.8773 72.4061 26.7899C72.0337 26.7198 71.7159 26.7296 71.4526 26.8191C71.19 26.9049 70.9957 27.0611 70.8695 27.2877L70.8605 27.3039L69.8586 27.1154L69.8708 27.0819C69.986 26.7657 70.1738 26.5069 70.4343 26.3055C70.6994 26.101 71.0173 25.9641 71.3881 25.8948C71.7596 25.8216 72.1661 25.8265 72.6075 25.9096C73.1143 26.005 73.5268 26.1681 73.845 26.3989C74.1671 26.6304 74.3891 26.9186 74.5111 27.2635C74.6375 27.6053 74.6603 27.9912 74.5794 28.4211L73.7796 32.6708L72.7777 32.4822L72.95 31.5666L72.8579 31.5493C72.6862 31.7436 72.4918 31.8998 72.2748 32.0179C72.0616 32.1368 71.8304 32.2145 71.5811 32.251C71.3324 32.2838 71.068 32.2737 70.7878 32.221ZM75.6684 33.0262L77.3004 24.3542L78.3023 24.5428L76.6703 33.2148L75.6684 33.0262ZM78.6512 33.5876L80.2832 24.9156L81.2851 25.1041L79.6531 33.7761L78.6512 33.5876ZM84.0894 34.7243C83.4982 34.613 83.0142 34.3868 82.6372 34.0455C82.264 33.705 82.0071 33.2751 81.8663 32.7557C81.7301 32.2332 81.7231 31.6476 81.8452 30.9989L81.8463 30.9931C81.9669 30.352 82.186 29.8109 82.5035 29.3699C82.8249 28.9295 83.2204 28.6124 83.6902 28.4186C84.1599 28.2248 84.675 28.1806 85.2355 28.2861C85.7998 28.3923 86.2589 28.6139 86.6129 28.9508C86.9707 29.2884 87.213 29.7116 87.3398 30.2204C87.4712 30.7261 87.4787 31.2879 87.3624 31.906L87.2887 32.2976L82.3136 31.3613L82.4642 30.5609L86.9269 31.4007L86.294 32.0388L86.3688 31.6415C86.4606 31.154 86.4631 30.7391 86.3765 30.3968C86.2899 30.0546 86.1324 29.7825 85.9041 29.5805C85.6765 29.3747 85.3957 29.2404 85.0617 29.1776C84.7278 29.1147 84.4128 29.1409 84.1168 29.2561C83.8255 29.3682 83.573 29.5691 83.3595 29.8589C83.146 30.1486 82.9955 30.5257 82.9081 30.9902L82.8333 31.3875C82.7502 31.829 82.7539 32.2212 82.8444 32.5642C82.9356 32.9033 83.1035 33.1833 83.3481 33.4042C83.5934 33.6213 83.9042 33.7653 84.2804 33.8361C84.5607 33.8888 84.8117 33.8963 85.0334 33.8585C85.2552 33.8208 85.4444 33.755 85.6012 33.6613C85.7579 33.5676 85.8747 33.4644 85.9516 33.3516L85.9844 33.3042L86.9863 33.4927L86.9661 33.5366C86.8727 33.7376 86.738 33.925 86.5623 34.0986C86.3911 34.2691 86.1828 34.4147 85.9375 34.5355C85.6929 34.6524 85.4138 34.731 85.1001 34.7714C84.791 34.8086 84.4541 34.7929 84.0894 34.7243ZM90.5103 35.8671C89.8731 35.7471 89.4347 35.5315 89.1952 35.2201C88.9595 34.9094 88.8973 34.4585 89.0086 33.8673L89.7173 30.1014L88.7384 29.9172L88.8944 29.088L89.8733 29.2722L90.1757 27.6656L91.2122 27.8607L90.9098 29.4673L92.2688 29.723L92.1127 30.5522L90.7538 30.2965L90.0927 33.809C90.0241 34.1737 90.0437 34.4497 90.1516 34.6369C90.2601 34.8203 90.4757 34.9424 90.7981 35.003C90.8864 35.0197 90.9616 35.0318 91.0238 35.0395C91.0898 35.048 91.1696 35.057 91.2631 35.0667L91.1027 35.9189C91.0039 35.9162 90.9054 35.9116 90.8072 35.9051C90.7091 35.8985 90.6101 35.8858 90.5103 35.8671Z" fill="#35FDAC"/>
</svg>
