<svg width="94" height="94" viewBox="0 0 94 94" fill="none" xmlns="http://www.w3.org/2000/svg">
<g filter="url(#filter0_d_1_12232)">
<rect x="25" y="10" width="44" height="44" rx="22" fill="#9AE3FF"/>
</g>
<path d="M46.5307 40.9411C46.8002 41.0851 47.1384 41.0841 47.4079 40.9402C54.7523 36.9949 55.2739 29.2866 55.2674 27.0949C55.2667 26.9187 55.2147 26.7466 55.1177 26.5996C55.0206 26.4526 54.8828 26.337 54.7211 26.2671L47.3419 22.9983C47.2245 22.9465 47.0976 22.9199 46.9692 22.92C46.8409 22.9202 46.714 22.9472 46.5967 22.9992L39.2689 26.2681C39.1095 26.338 38.9737 26.4522 38.8775 26.5972C38.7813 26.7422 38.7287 26.9118 38.7262 27.0857C38.695 29.2665 39.1341 36.9912 46.5307 40.9411ZM43.9512 30.4352L46.0531 32.5371L49.9884 28.6019L51.2845 29.8981L46.0531 35.1295L42.655 31.7314L43.9512 30.4352Z" fill="#060B27"/>
<defs>
<filter id="filter0_d_1_12232" x="0" y="0" width="94" height="94" filterUnits="userSpaceOnUse" color-interpolation-filters="sRGB">
<feFlood flood-opacity="0" result="BackgroundImageFix"/>
<feColorMatrix in="SourceAlpha" type="matrix" values="0 0 0 0 0 0 0 0 0 0 0 0 0 0 0 0 0 0 127 0" result="hardAlpha"/>
<feOffset dy="15"/>
<feGaussianBlur stdDeviation="12.5"/>
<feColorMatrix type="matrix" values="0 0 0 0 0 0 0 0 0 0 0 0 0 0 0 0 0 0 0.06 0"/>
<feBlend mode="normal" in2="BackgroundImageFix" result="effect1_dropShadow_1_12232"/>
<feBlend mode="normal" in="SourceGraphic" in2="effect1_dropShadow_1_12232" result="shape"/>
</filter>
</defs>
</svg>
