<svg width="85" height="23" viewBox="0 0 85 23" fill="none" xmlns="http://www.w3.org/2000/svg">
<path d="M0 4.08889C0 1.83066 1.78039 0 3.97661 0H81.0234C83.2196 0 85 1.83066 85 4.08889V18.9111C85 21.1693 83.2196 23 81.0234 23H3.97661C1.78039 23 0 21.1693 0 18.9111V4.08889Z" fill="#191A2E"/>
<path d="M24.5946 13.8L24.0509 12.2557H21.9917L21.4481 13.8H20.9553L22.7903 8.75827H23.2524L25.0839 13.8H24.5946ZM23.0111 9.34874L22.131 11.8434H23.9116L23.0315 9.34874H23.0111Z" fill="white"/>
<path d="M26.5911 13.8594C25.6974 13.8594 25.079 13.1117 25.079 11.9832C25.079 10.8511 25.694 10.1069 26.5809 10.1069C27.1518 10.1069 27.6037 10.4423 27.7906 10.914H27.8008V8.75827H28.2527V13.8H27.8246V13.0313H27.8144C27.6139 13.5205 27.162 13.8594 26.5911 13.8594ZM26.6693 10.5157C25.9897 10.5157 25.5411 11.0957 25.5411 11.9832C25.5411 12.8706 25.9897 13.4506 26.6693 13.4506C27.3421 13.4506 27.8042 12.8636 27.8042 11.9832C27.8042 11.1062 27.3421 10.5157 26.6693 10.5157Z" fill="white"/>
<path d="M30.1881 13.8594C29.2944 13.8594 28.676 13.1117 28.676 11.9832C28.676 10.8511 29.291 10.1069 30.1779 10.1069C30.7487 10.1069 31.2007 10.4423 31.3876 10.914H31.3977V8.75827H31.8497V13.8H31.4215V13.0313H31.4113C31.2109 13.5205 30.7589 13.8594 30.1881 13.8594ZM30.2662 10.5157C29.5866 10.5157 29.1381 11.0957 29.1381 11.9832C29.1381 12.8706 29.5866 13.4506 30.2662 13.4506C30.939 13.4506 31.4011 12.8636 31.4011 11.9832C31.4011 11.1062 30.939 10.5157 30.2662 10.5157Z" fill="white"/>
<path d="M33.8462 10.5122C33.2142 10.5122 32.7758 11.0118 32.7385 11.7281H34.92C34.9098 11.0118 34.485 10.5122 33.8462 10.5122ZM34.8928 12.7693H35.3379C35.2326 13.3982 34.6583 13.8594 33.8802 13.8594C32.888 13.8594 32.2729 13.1466 32.2729 11.9936C32.2729 10.8651 32.8948 10.1069 33.853 10.1069C34.7908 10.1069 35.3821 10.8162 35.3821 11.8993V12.095H32.7351V12.1229C32.7351 12.944 33.187 13.4541 33.8904 13.4541C34.4239 13.4541 34.7942 13.1676 34.8928 12.7693Z" fill="white"/>
<path d="M37.1102 13.8594C36.2165 13.8594 35.5981 13.1117 35.5981 11.9832C35.5981 10.8511 36.2131 10.1069 37.1 10.1069C37.6708 10.1069 38.1228 10.4423 38.3097 10.914H38.3198V8.75827H38.7718V13.8H38.3436V13.0313H38.3334C38.133 13.5205 37.681 13.8594 37.1102 13.8594ZM37.1883 10.5157C36.5087 10.5157 36.0602 11.0957 36.0602 11.9832C36.0602 12.8706 36.5087 13.4506 37.1883 13.4506C37.8611 13.4506 38.3232 12.8636 38.3232 11.9832C38.3232 11.1062 37.8611 10.5157 37.1883 10.5157Z" fill="white"/>
<path d="M40.7838 9.2579H41.2323V10.1663H41.9289V10.5507H41.2323V12.8846C41.2323 13.2584 41.375 13.4192 41.7012 13.4192C41.7488 13.4192 41.9187 13.4122 41.9459 13.4052V13.8C41.8983 13.8105 41.708 13.821 41.6129 13.821C41.0216 13.821 40.7838 13.5624 40.7838 12.9056V10.5507H40.2571V10.1663H40.7838V9.2579Z" fill="white"/>
<path d="M43.6706 13.8594C42.7089 13.8594 42.0599 13.1362 42.0599 11.9832C42.0599 10.8267 42.7123 10.1069 43.6706 10.1069C44.6322 10.1069 45.2812 10.8267 45.2812 11.9832C45.2812 13.1362 44.6322 13.8594 43.6706 13.8594ZM43.6706 13.4506C44.3638 13.4506 44.8259 12.9056 44.8259 11.9832C44.8259 11.0608 44.3638 10.5157 43.6706 10.5157C42.9774 10.5157 42.5187 11.0608 42.5187 11.9832C42.5187 12.9056 42.9774 13.4506 43.6706 13.4506Z" fill="white"/>
<path d="M49.6378 9.57585L48.4316 13.8H48L46.651 8.75827H47.1335L48.2141 13.0663H48.2345L49.4204 8.75827H49.8825L51.065 13.0663H51.0888L52.1659 8.75827H52.6518L51.2994 13.8H50.8713L49.665 9.57585H49.6378Z" fill="white"/>
<path d="M53.663 13.4611C54.2814 13.4611 54.7673 13.0104 54.7673 12.4339V12.0321L53.7207 12.1054C53.1634 12.1439 52.8542 12.3919 52.8542 12.7938C52.8542 13.1886 53.1838 13.4611 53.663 13.4611ZM53.5712 13.8594C52.8746 13.8594 52.3989 13.4296 52.3989 12.7938C52.3989 12.1718 52.8508 11.7945 53.6664 11.7386L54.7673 11.6687V11.3543C54.7673 10.8302 54.4445 10.5157 53.894 10.5157C53.3741 10.5157 53.0411 10.7778 52.963 11.218H52.528C52.579 10.5681 53.0989 10.1069 53.9042 10.1069C54.7095 10.1069 55.2158 10.5716 55.2158 11.3123V13.8H54.7877V13.1082H54.7775C54.5804 13.5589 54.0979 13.8594 53.5712 13.8594Z" fill="white"/>
<path d="M55.9551 9.2579H56.4036V10.1663H57.1002V10.5507H56.4036V12.8846C56.4036 13.2584 56.5463 13.4192 56.8725 13.4192C56.9201 13.4192 57.09 13.4122 57.1172 13.4052V13.8C57.0696 13.8105 56.8793 13.821 56.7842 13.821C56.193 13.821 55.9551 13.5624 55.9551 12.9056V10.5507H55.4284V10.1663H55.9551V9.2579Z" fill="white"/>
<path d="M60.2826 11.3158H59.8409C59.7457 10.8686 59.389 10.5157 58.8317 10.5157C58.1419 10.5157 57.69 11.0852 57.69 11.9832C57.69 12.8951 58.1453 13.4506 58.8351 13.4506C59.3686 13.4506 59.7389 13.1466 59.8409 12.675H60.286C60.1875 13.3702 59.6132 13.8594 58.8317 13.8594C57.8667 13.8594 57.2312 13.1466 57.2312 11.9832C57.2312 10.8372 57.8667 10.1069 58.8283 10.1069C59.6608 10.1069 60.1943 10.666 60.2826 11.3158Z" fill="white"/>
<path d="M60.6685 13.8V8.75827H61.1204V10.8372H61.1306C61.3107 10.3899 61.7321 10.1069 62.2961 10.1069C63.0709 10.1069 63.5602 10.638 63.5602 11.4521V13.8H63.1082V11.529C63.1082 10.9 62.7651 10.5192 62.167 10.5192C61.5316 10.5192 61.1204 10.9769 61.1204 11.6617V13.8H60.6685Z" fill="white"/>
<path d="M64.1363 13.8V8.75827H64.5849V13.8H64.1363Z" fill="white"/>
<path d="M65.212 13.8V10.1663H65.6605V13.8H65.212ZM65.4363 9.4326C65.2732 9.4326 65.1373 9.29633 65.1373 9.12513C65.1373 8.95742 65.2732 8.82116 65.4363 8.82116C65.6028 8.82116 65.7387 8.95742 65.7387 9.12513C65.7387 9.29633 65.6028 9.4326 65.4363 9.4326Z" fill="white"/>
<path d="M66.1857 11.1376C66.1857 10.5367 66.709 10.1069 67.4566 10.1069C68.1803 10.1069 68.6968 10.5437 68.741 11.1831H68.3095C68.2551 10.7533 67.9323 10.4878 67.443 10.4878C66.9605 10.4878 66.6309 10.7498 66.6309 11.1132C66.6309 11.4102 66.8381 11.5918 67.3105 11.7106L67.8338 11.8399C68.5405 12.0216 68.8056 12.2871 68.8056 12.8077C68.8056 13.4227 68.2449 13.8594 67.4464 13.8594C66.6886 13.8594 66.1416 13.4227 66.0838 12.7833H66.5323C66.5969 13.213 66.9435 13.4786 67.4736 13.4786C68.0036 13.4786 68.3536 13.2235 68.3536 12.8427C68.3536 12.5282 68.1769 12.3605 67.7046 12.2417L67.1304 12.095C66.4916 11.9308 66.1857 11.6198 66.1857 11.1376Z" fill="white"/>
<path d="M69.3953 9.2579H69.8439V10.1663H70.5405V10.5507H69.8439V12.8846C69.8439 13.2584 69.9866 13.4192 70.3128 13.4192C70.3604 13.4192 70.5303 13.4122 70.5574 13.4052V13.8C70.5099 13.8105 70.3196 13.821 70.2244 13.821C69.6332 13.821 69.3953 13.5624 69.3953 12.9056V10.5507H68.8686V10.1663H69.3953V9.2579Z" fill="white"/>
<path d="M18.3918 11.2444C18.3918 14.6318 15.7212 17.3778 12.4269 17.3778C9.13257 17.3778 6.46199 14.6318 6.46199 11.2444C6.46199 7.8571 9.13257 5.11111 12.4269 5.11111C15.7212 5.11111 18.3918 7.8571 18.3918 11.2444Z" fill="#2572B1"/>
<path d="M14.0316 11.8913C13.9614 11.9612 13.9291 12.0624 13.9451 12.1617L14.1861 13.5333C14.2065 13.6496 14.1588 13.7672 14.0641 13.8344C13.9714 13.9041 13.848 13.9125 13.7469 13.8567L12.5461 13.2127C12.5043 13.1899 12.4579 13.1776 12.4105 13.1762H12.337C12.3115 13.1801 12.2866 13.1885 12.2638 13.2013L11.0627 13.8484C11.0033 13.879 10.9361 13.8899 10.8702 13.879C10.7097 13.8478 10.6026 13.6906 10.6289 13.5247L10.8702 12.153C10.8862 12.053 10.8539 11.9512 10.7837 11.8801L9.80464 10.9044C9.72276 10.8227 9.69429 10.7 9.73171 10.5893C9.76804 10.4789 9.86077 10.3984 9.97275 10.3802L11.3203 10.1792C11.4228 10.1684 11.5128 10.1042 11.5589 10.0094L12.1527 8.75768C12.1667 8.72981 12.1849 8.70416 12.2069 8.68241L12.2313 8.6629C12.244 8.6484 12.2587 8.63641 12.2749 8.62665L12.3045 8.6155L12.3506 8.59599H12.4647C12.5667 8.60686 12.6564 8.66959 12.7033 8.76326L13.305 10.0094C13.3483 10.1006 13.4327 10.1639 13.53 10.1792L14.8775 10.3802C14.9914 10.397 15.0866 10.4778 15.1243 10.5893C15.1598 10.7011 15.1291 10.8238 15.0456 10.9044L14.0316 11.8913Z" fill="#E2E9FF"/>
</svg>
