<svg width="24" height="24" viewBox="0 0 24 24" fill="none" xmlns="http://www.w3.org/2000/svg">
<g opacity="0.7">
<path d="M20.6481 2.67419L13.1528 8.24105L14.5389 4.95668L20.6481 2.67419Z" fill="#E2761B" stroke="#E2761B" stroke-width="0.125549" stroke-linecap="round" stroke-linejoin="round"/>
<path d="M3.34455 2.67419L10.7796 8.29378L9.46131 4.95668L3.34455 2.67419ZM17.951 15.5781L15.9547 18.6365L20.2259 19.8117L21.4538 15.6459L17.951 15.5781ZM2.55359 15.6459L3.77393 19.8117L8.04511 18.6365L6.04888 15.5781L2.55359 15.6459Z" fill="#E4761B" stroke="#E4761B" stroke-width="0.125549" stroke-linecap="round" stroke-linejoin="round"/>
<path d="M7.80398 10.4105L6.61377 12.2109L10.8548 12.3992L10.7042 7.84179L7.80398 10.4105ZM16.1882 10.4105L13.2503 7.78906L13.1524 12.3992L17.3859 12.2109L16.1882 10.4105ZM8.04503 18.6365L10.5912 17.3936L8.39155 15.6761L8.04503 18.6365ZM13.401 17.3936L15.9546 18.6365L15.6006 15.6761L13.401 17.3936Z" fill="#E4761B" stroke="#E4761B" stroke-width="0.125549" stroke-linecap="round" stroke-linejoin="round"/>
<path d="M15.9549 18.6366L13.4012 17.3937L13.6046 19.0585L13.582 19.759L15.9549 18.6366ZM8.04529 18.6366L10.4182 19.759L10.4031 19.0585L10.5914 17.3937L8.04529 18.6366Z" fill="#D7C1B3" stroke="#D7C1B3" stroke-width="0.125549" stroke-linecap="round" stroke-linejoin="round"/>
<path d="M10.4552 14.5762L8.33093 13.951L9.82999 13.2655L10.4552 14.5762ZM13.5362 14.5762L14.1614 13.2655L15.668 13.951L13.5362 14.5762Z" fill="#233447" stroke="#233447" stroke-width="0.125549" stroke-linecap="round" stroke-linejoin="round"/>
<path d="M8.04531 18.6365L8.40689 15.5782L6.04907 15.646L8.04531 18.6365ZM15.5933 15.5782L15.9549 18.6365L17.9511 15.646L15.5933 15.5782ZM17.3862 12.2109L13.1527 12.3993L13.5444 14.5763L14.1696 13.2656L15.6762 13.951L17.3862 12.2109ZM8.33156 13.951L9.83815 13.2656L10.4559 14.5763L10.8551 12.3993L6.61404 12.2109L8.33156 13.951Z" fill="#CD6116" stroke="#CD6116" stroke-width="0.125549" stroke-linecap="round" stroke-linejoin="round"/>
<path d="M6.61377 12.2109L8.39155 15.6761L8.33128 13.951L6.61377 12.2109ZM15.6759 13.951L15.6006 15.6761L17.3859 12.2109L15.6759 13.951ZM10.8548 12.3993L10.4556 14.5763L10.9528 17.145L11.0657 13.7627L10.8548 12.3993ZM13.1524 12.3993L12.949 13.7552L13.0394 17.145L13.5441 14.5763L13.1524 12.3993Z" fill="#E4751F" stroke="#E4751F" stroke-width="0.125549" stroke-linecap="round" stroke-linejoin="round"/>
<path d="M13.5437 14.5763L13.039 17.145L13.4006 17.3936L15.6002 15.6761L15.6756 13.951L13.5437 14.5763ZM8.33093 13.951L8.3912 15.6761L10.5908 17.3936L10.9524 17.145L10.4552 14.5763L8.33093 13.951Z" fill="#F6851B" stroke="#F6851B" stroke-width="0.125549" stroke-linecap="round" stroke-linejoin="round"/>
<path d="M13.582 19.759L13.6046 19.0584L13.4163 18.8927H10.5764L10.4031 19.0584L10.4182 19.759L8.04529 18.6366L8.87391 19.3146L10.5538 20.4822H13.4389L15.1263 19.3146L15.9549 18.6366L13.582 19.759Z" fill="#C0AD9E" stroke="#C0AD9E" stroke-width="0.125549" stroke-linecap="round" stroke-linejoin="round"/>
<path d="M13.4011 17.3936L13.0395 17.145H10.9529L10.5913 17.3936L10.403 19.0584L10.5762 18.8927H13.4161L13.6045 19.0584L13.4011 17.3936Z" fill="#161616" stroke="#161616" stroke-width="0.125549" stroke-linecap="round" stroke-linejoin="round"/>
<path d="M20.9649 8.60263L21.6052 5.52919L20.6485 2.67419L13.4018 8.05273L16.189 10.4105L20.1287 11.5631L21.0025 10.5461L20.6259 10.2749L21.2285 9.72504L20.7615 9.36346L21.3641 8.90395L20.9649 8.60263ZM2.39612 5.52919L3.03642 8.60263L2.62964 8.90395L3.23228 9.36346L2.77277 9.72504L3.3754 10.2749L2.99875 10.5461L3.86504 11.5631L7.80478 10.4105L10.592 8.05273L3.34527 2.67419L2.39612 5.52919Z" fill="#763D16" stroke="#763D16" stroke-width="0.125549" stroke-linecap="round" stroke-linejoin="round"/>
<path d="M20.128 11.5631L16.1882 10.4105L17.386 12.2109L15.6007 15.6761L17.951 15.6459H21.4538L20.128 11.5631ZM7.80406 10.4105L3.86432 11.5631L2.55359 15.6459H6.04888L8.39163 15.6761L6.61385 12.2109L7.80406 10.4105ZM13.1525 12.3992L13.401 8.05271L14.5461 4.95667H9.46131L10.5913 8.05271L10.8549 12.3992L10.9453 13.7702L10.9528 17.145H13.0395L13.0545 13.7702L13.1525 12.3992Z" fill="#F6851B" stroke="#F6851B" stroke-width="0.125549" stroke-linecap="round" stroke-linejoin="round"/>
</g>
</svg>
