<svg width="55" height="54" viewBox="0 0 55 54" fill="none" xmlns="http://www.w3.org/2000/svg">
<rect x="12.3867" width="44" height="44" rx="10" transform="rotate(15 12.3867 0)" fill="#544FFD"/>
<path d="M26.7548 22.3496L28.1579 20.3946C28.7622 19.6298 29.6381 19.1273 30.6033 18.9915C31.5686 18.8556 32.549 19.097 33.341 19.6653C34.1329 20.2336 34.6754 21.0853 34.8558 22.0432C35.0361 23.0011 34.8404 23.9917 34.3093 24.8091L32.3026 27.595C32.0138 27.999 31.6481 28.342 31.2264 28.6044C30.8047 28.8667 30.3354 29.0432 29.8454 29.1238C29.3553 29.2043 28.8542 29.1873 28.3707 29.0738C27.8873 28.9602 27.431 28.7523 27.0281 28.462" stroke="white" stroke-width="1.5" stroke-linecap="round" stroke-linejoin="round"/>
<path d="M29.299 31.7905L27.896 33.7455C27.2916 34.5103 26.4158 35.0128 25.4506 35.1487C24.4853 35.2845 23.5048 35.0431 22.7129 34.4748C21.921 33.9065 21.3785 33.0548 21.1981 32.0969C21.0178 31.139 21.2135 30.1484 21.7446 29.331L23.7513 26.5451C24.0401 26.1411 24.4058 25.7981 24.8275 25.5358C25.2491 25.2734 25.7185 25.0969 26.2085 25.0163C26.6985 24.9358 27.1997 24.9528 27.6831 25.0663C28.1666 25.1799 28.6229 25.3878 29.0258 25.6781" stroke="white" stroke-width="1.5" stroke-linecap="round" stroke-linejoin="round"/>
</svg>
