<svg width="93" height="49" viewBox="0 0 93 49" fill="none" xmlns="http://www.w3.org/2000/svg">
<rect x="0.586497" y="17.2466" width="87" height="31" rx="7.5" transform="rotate(-11.0405 0.586497 17.2466)" fill="#121321" stroke="#544FFD"/>
<path d="M20.4731 30.0388L20.2935 29.1187L22.6399 28.6609C23.2342 28.5449 23.6643 28.3018 23.9304 27.9315C24.1957 27.5573 24.2752 27.0981 24.169 26.5536L24.1667 26.5421C24.0598 25.9939 23.8134 25.5982 23.4277 25.3551C23.042 25.1119 22.552 25.0483 21.9577 25.1643L19.6113 25.6221L19.4318 24.7019L22.0427 24.1925C22.5641 24.0908 23.0459 24.1122 23.488 24.2568C23.9301 24.4013 24.3032 24.6509 24.6072 25.0055C24.915 25.3594 25.1202 25.7989 25.2227 26.3242L25.2249 26.3357C25.3274 26.8609 25.3029 27.3473 25.1514 27.7947C25.0037 28.2414 24.7526 28.6168 24.398 28.9208C24.0434 29.2248 23.6054 29.4277 23.084 29.5294L20.4731 30.0388ZM20.5334 33.1015L18.9142 24.8029L19.9494 24.601L21.5685 32.8996L20.5334 33.1015ZM30.291 31.3111C29.7044 31.4256 29.1714 31.3962 28.6918 31.2231C28.2154 31.0455 27.8135 30.7398 27.4861 30.3062C27.1626 29.8719 26.9365 29.325 26.8078 28.6655L26.8056 28.654C26.6761 27.9907 26.6797 27.397 26.8162 26.8729C26.9566 26.348 27.2145 25.9156 27.5899 25.5757C27.9692 25.2351 28.4522 25.0075 29.0388 24.8931C29.6292 24.7779 30.1623 24.8072 30.6379 24.981C31.1136 25.1549 31.5132 25.459 31.8368 25.8933C32.1642 26.3269 32.3926 26.8754 32.522 27.5387L32.5242 27.5502C32.6529 28.2096 32.647 28.8018 32.5067 29.3266C32.3701 29.8508 32.1145 30.2847 31.7398 30.6284C31.3644 30.9684 30.8814 31.1959 30.291 31.3111ZM30.1182 30.4255C30.5093 30.3492 30.823 30.1924 31.0593 29.9553C31.2956 29.7182 31.451 29.4132 31.5255 29.0405C31.6039 28.667 31.5956 28.2368 31.5006 27.7499L31.4983 27.7384C31.4026 27.2476 31.2482 26.844 31.0352 26.5273C30.826 26.21 30.5677 25.9877 30.2603 25.8606C29.9522 25.7297 29.6026 25.7024 29.2116 25.7787C28.8205 25.855 28.5068 26.0117 28.2705 26.2489C28.0335 26.4822 27.8758 26.7856 27.7974 27.1591C27.7229 27.5318 27.7335 27.9635 27.8292 28.4543L27.8315 28.4658C27.9265 28.9527 28.0786 29.3548 28.2877 29.6722C28.5008 29.9889 28.7613 30.2126 29.0694 30.3435C29.3776 30.4745 29.7271 30.5018 30.1182 30.4255ZM34.6807 30.3412L33.471 24.1417L34.4717 23.9465L34.6512 24.8666L34.7433 24.8487C34.7985 24.4996 34.9504 24.2073 35.199 23.9717C35.4475 23.7362 35.7808 23.5776 36.1987 23.4961C36.2945 23.4774 36.3896 23.4648 36.4838 23.4583C36.5812 23.4473 36.6555 23.4408 36.7069 23.4387L36.8965 24.4106C36.7892 24.4116 36.685 24.4181 36.5838 24.4298C36.4857 24.437 36.3811 24.4515 36.2699 24.4732C35.9517 24.5353 35.6823 24.6535 35.4616 24.8279C35.2409 25.0023 35.0817 25.2164 34.984 25.4703C34.8901 25.7234 34.8727 26.0015 34.9318 26.3043L35.6813 30.146L34.6807 30.3412ZM41.493 29.0598C40.8565 29.184 40.3695 29.1457 40.0318 28.9449C39.698 28.7434 39.4735 28.3474 39.3583 27.757L38.6244 23.9959L37.6468 24.1866L37.4852 23.3585L38.4629 23.1677L38.1498 21.5632L39.185 21.3612L39.498 22.9658L40.8552 22.7009L41.0168 23.5291L39.6596 23.7939L40.3441 27.302C40.4151 27.6662 40.5354 27.9153 40.7048 28.0494C40.8735 28.1797 41.1189 28.2134 41.441 28.1506C41.5291 28.1334 41.6035 28.1169 41.6641 28.1011C41.7285 28.0845 41.806 28.0634 41.8965 28.0378L42.0626 28.8889C41.9698 28.923 41.8765 28.9551 41.7829 28.9853C41.6893 29.0155 41.5927 29.0403 41.493 29.0598ZM43.9742 28.5279L42.9261 23.1565L41.8967 23.3574L41.7351 22.5293L42.7646 22.3284L42.6299 21.6383C42.5491 21.2242 42.5496 20.8699 42.6315 20.5754C42.7164 20.2762 42.8803 20.0353 43.1232 19.8526C43.3654 19.666 43.6821 19.5346 44.0731 19.4583C44.1958 19.4344 44.312 19.4177 44.4215 19.4082C44.5342 19.3942 44.6442 19.3867 44.7515 19.3856L44.9074 20.185C44.8438 20.1855 44.7714 20.1917 44.6901 20.2035C44.6089 20.2154 44.5242 20.23 44.436 20.2472C44.0794 20.3167 43.8394 20.4531 43.7159 20.6563C43.5962 20.8588 43.5696 21.1306 43.6362 21.4718L43.7652 22.1332L45.1742 21.8583L45.3358 22.6864L43.9268 22.9613L44.9748 28.3327L43.9742 28.5279ZM50.1432 27.4377C49.5566 27.5521 49.0236 27.5228 48.544 27.3497C48.0676 27.172 47.6657 26.8664 47.3383 26.4328C47.0148 25.9984 46.7887 25.4515 46.66 24.7921L46.6578 24.7806C46.5284 24.1173 46.5319 23.5236 46.6684 22.9995C46.8088 22.4746 47.0667 22.0422 47.4422 21.7023C47.8214 21.3616 48.3044 21.1341 48.891 21.0196C49.4814 20.9044 50.0145 20.9338 50.4902 21.1076C50.9658 21.2814 51.3655 21.5855 51.689 22.0199C52.0164 22.4535 52.2448 23.002 52.3742 23.6652L52.3764 23.6767C52.5051 24.3362 52.4993 24.9283 52.3589 25.4532C52.2224 25.9773 51.9667 26.4113 51.592 26.755C51.2166 27.0949 50.7337 27.3225 50.1432 27.4377ZM49.9704 26.552C50.3615 26.4757 50.6752 26.319 50.9115 26.0819C51.1478 25.8447 51.3032 25.5398 51.3777 25.1671C51.4561 24.7936 51.4478 24.3634 51.3528 23.8765L51.3505 23.865C51.2548 23.3742 51.1004 22.9705 50.8874 22.6539C50.6782 22.3365 50.4199 22.1143 50.1126 21.9872C49.8044 21.8563 49.4548 21.829 49.0638 21.9053C48.6727 21.9816 48.359 22.1383 48.1227 22.3754C47.8857 22.6088 47.728 22.9122 47.6496 23.2856C47.5751 23.6584 47.5857 24.0901 47.6814 24.5809L47.6837 24.5924C47.7787 25.0793 47.9308 25.4814 48.14 25.7988C48.353 26.1154 48.6135 26.3392 48.9217 26.4701C49.2298 26.601 49.5794 26.6283 49.9704 26.552ZM54.5904 26.4566L52.9005 17.7956L53.9012 17.6004L55.591 26.2613L54.5904 26.4566ZM57.5349 25.882L56.3252 19.6825L57.3259 19.4873L58.5355 25.6868L57.5349 25.882ZM56.5979 18.3876C56.4101 18.4243 56.234 18.389 56.0698 18.2817C55.9087 18.1699 55.8098 18.02 55.7732 17.8321C55.7358 17.6404 55.7711 17.4644 55.8791 17.304C55.9909 17.1429 56.1408 17.044 56.3286 17.0074C56.5203 16.97 56.6964 17.0053 56.8567 17.1133C57.0171 17.2213 57.116 17.3711 57.1534 17.5628C57.1901 17.7507 57.1548 17.9267 57.0475 18.0909C56.9395 18.2513 56.7896 18.3502 56.5979 18.3876ZM62.9908 24.9309C62.4042 25.0454 61.8712 25.0161 61.3916 24.843C60.9152 24.6653 60.5133 24.3597 60.1859 23.9261C59.8624 23.4917 59.6363 22.9448 59.5076 22.2854L59.5053 22.2738C59.3759 21.6106 59.3795 21.0169 59.516 20.4927C59.6564 19.9679 59.9143 19.5355 60.2897 19.1956C60.669 18.8549 61.152 18.6274 61.7386 18.5129C62.329 18.3977 62.862 18.427 63.3377 18.6009C63.8134 18.7747 64.213 19.0788 64.5366 19.5132C64.864 19.9468 65.0924 20.4952 65.2218 21.1585L65.224 21.17C65.3527 21.8294 65.3468 22.4216 65.2065 22.9465C65.0699 23.4706 64.8143 23.9045 64.4396 24.2483C64.0642 24.5882 63.5812 24.8157 62.9908 24.9309ZM62.818 24.0453C63.2091 23.969 63.5228 23.8123 63.7591 23.5751C63.9954 23.338 64.1508 23.0331 64.2253 22.6603C64.3037 22.2868 64.2954 21.8566 64.2004 21.3697L64.1981 21.3582C64.1024 20.8675 63.948 20.4638 63.735 20.1472C63.5258 19.8298 63.2675 19.6076 62.9601 19.4805C62.652 19.3496 62.3024 19.3222 61.9114 19.3985C61.5203 19.4749 61.2066 19.6316 60.9703 19.8687C60.7333 20.102 60.5755 20.4054 60.4972 20.7789C60.4227 21.1516 60.4333 21.5834 60.529 22.0741L60.5313 22.0856C60.6263 22.5725 60.7784 22.9747 60.9875 23.2921C61.2005 23.6087 61.4611 23.8325 61.7692 23.9634C62.0774 24.0943 62.4269 24.1216 62.818 24.0453ZM70.6872 23.3158L70.5481 22.6027L72.7621 19.0187C73.04 18.5664 73.2543 18.1963 73.4051 17.9082C73.5551 17.6162 73.6505 17.3608 73.6914 17.1419C73.7322 16.923 73.7291 16.6928 73.682 16.4512L73.6797 16.4397C73.6229 16.1483 73.5088 15.9 73.3374 15.6946C73.1659 15.4893 72.9502 15.3423 72.6902 15.2538C72.4301 15.1652 72.1371 15.1527 71.8113 15.2163C71.4815 15.2806 71.2055 15.4061 70.9833 15.5928C70.7602 15.7756 70.6036 16.0031 70.5135 16.2754C70.4226 16.5439 70.409 16.8411 70.4725 17.167L70.469 17.1796L69.4787 17.3669L69.4661 17.3633C69.3742 16.8719 69.4082 16.4135 69.568 15.9883C69.727 15.5593 69.9907 15.1974 70.3591 14.9027C70.7267 14.6041 71.175 14.4032 71.7041 14.2999C72.1872 14.2057 72.6422 14.2224 73.069 14.35C73.4952 14.4738 73.8534 14.6885 74.1439 14.994C74.4382 15.2988 74.6291 15.6754 74.7166 16.124L74.7188 16.1355C74.7802 16.4499 74.7837 16.7636 74.7293 17.0767C74.6788 17.389 74.5504 17.7504 74.3439 18.1608C74.1367 18.5674 73.8324 19.0785 73.4312 19.694L71.7181 22.3267L71.8837 21.7989L71.9769 22.2762L71.6901 22.153L75.8768 21.3362L76.0586 22.2678L70.6872 23.3158Z" fill="#544FFD"/>
</svg>
