<svg width="93" height="48" viewBox="0 0 93 48" fill="none" xmlns="http://www.w3.org/2000/svg">
<rect x="0.581335" y="16.135" width="87" height="31" rx="7.5" transform="rotate(-10.2987 0.581335 16.135)" fill="#121321" stroke="#35FDAC"/>
<path d="M20.3021 29.1828L20.1344 28.2604L22.4866 27.833C23.0823 27.7247 23.5155 27.4872 23.7864 27.1204C24.0565 26.7497 24.1419 26.2915 24.0428 25.7457L24.0407 25.7342C23.9408 25.1846 23.6996 24.7857 23.3171 24.5376C22.9345 24.2895 22.4454 24.2196 21.8497 24.3279L19.4975 24.7553L19.3299 23.8329L21.9472 23.3573C22.4699 23.2623 22.9514 23.2899 23.3916 23.4402C23.8318 23.5905 24.2016 23.8449 24.501 24.2034C24.8042 24.5612 25.0037 25.0034 25.0993 25.5299L25.1014 25.5414C25.1971 26.068 25.1663 26.554 25.009 26.9994C24.8556 27.4442 24.5996 27.8162 24.2411 28.1156C23.8826 28.415 23.442 28.6122 22.9194 28.7072L20.3021 29.1828ZM20.3227 32.246L18.8111 23.9271L19.8488 23.7386L21.3604 32.0574L20.3227 32.246ZM30.1027 30.582C29.5147 30.6889 28.982 30.6527 28.5048 30.4734C28.0307 30.2896 27.6328 29.9787 27.311 29.5409C26.9931 29.1024 26.7741 28.5526 26.654 27.8916L26.6519 27.88C26.5311 27.2152 26.5424 26.6216 26.6857 26.0992C26.8328 25.5762 27.0963 25.1472 27.4761 24.8122C27.8598 24.4765 28.3456 24.2552 28.9336 24.1483C29.5255 24.0408 30.0581 24.077 30.5315 24.257C31.0049 24.437 31.4006 24.7462 31.7185 25.1847C32.0402 25.6225 32.2615 26.1739 32.3823 26.8388L32.3844 26.8503C32.5045 27.5114 32.491 28.1034 32.3439 28.6264C32.2006 29.1487 31.9394 29.5793 31.5602 29.9182C31.1804 30.2532 30.6946 30.4745 30.1027 30.582ZM29.9414 29.6942C30.3334 29.623 30.6491 29.4704 30.8884 29.2363C31.1278 29.0022 31.2871 28.6993 31.3665 28.3276C31.4497 27.9552 31.4469 27.5249 31.3582 27.0368L31.3562 27.0253C31.2668 26.5333 31.1176 26.1277 30.9087 25.8083C30.7037 25.4882 30.4483 25.2627 30.1426 25.1316C29.8362 24.9967 29.487 24.9649 29.095 25.0361C28.7029 25.1074 28.3873 25.26 28.1479 25.4941C27.9079 25.7243 27.7462 26.0256 27.663 26.3981C27.5837 26.7698 27.5887 27.2016 27.6781 27.6936L27.6802 27.7051C27.7689 28.1932 27.9158 28.5973 28.1208 28.9174C28.3297 29.2367 28.5874 29.4638 28.8938 29.5987C29.2002 29.7336 29.5494 29.7655 29.9414 29.6942ZM34.5045 29.669L33.3753 23.4544L34.3784 23.2721L34.546 24.1945L34.6382 24.1778C34.698 23.8294 34.8537 23.5391 35.1053 23.3068C35.3569 23.0745 35.6921 22.9203 36.111 22.8441C36.2071 22.8267 36.3023 22.8153 36.3967 22.8101C36.4941 22.8003 36.5686 22.7948 36.6199 22.7934L36.797 23.7676C36.6897 23.7673 36.5854 23.7723 36.4841 23.7828C36.3859 23.7887 36.2811 23.8018 36.1696 23.8221C35.8506 23.88 35.5797 23.9948 35.3567 24.1663C35.1338 24.3378 34.9719 24.5499 34.8709 24.8025C34.7737 25.0544 34.7527 25.3321 34.8079 25.6358L35.5076 29.4868L34.5045 29.669ZM41.3329 28.4759C40.6949 28.5919 40.2084 28.5473 39.8733 28.3421C39.5421 28.1363 39.3228 27.7375 39.2152 27.1456L38.5301 23.3753L37.5501 23.5534L37.3992 22.7232L38.3793 22.5451L38.087 20.9367L39.1247 20.7482L39.417 22.3566L40.7775 22.1094L40.9284 22.9395L39.5678 23.1867L40.2068 26.7034C40.2732 27.0685 40.3902 27.3192 40.5579 27.4555C40.7249 27.5879 40.9698 27.6248 41.2926 27.5661C41.381 27.5501 41.4556 27.5345 41.5164 27.5195C41.581 27.5038 41.6588 27.4837 41.7496 27.4593L41.9047 28.3125C41.8114 28.3453 41.7177 28.3762 41.6237 28.4052C41.5298 28.4342 41.4328 28.4578 41.3329 28.4759ZM43.8207 27.9762L42.8423 22.5917L41.8104 22.7792L41.6596 21.9491L42.6915 21.7616L42.5658 21.0698C42.4904 20.6547 42.4955 20.3004 42.5811 20.007C42.6699 19.7089 42.8369 19.4701 43.0822 19.2906C43.3268 19.1072 43.6451 18.9799 44.0371 18.9086C44.1601 18.8863 44.2764 18.8711 44.3861 18.8631C44.499 18.8505 44.609 18.8444 44.7163 18.8448L44.8619 19.6461C44.7983 19.6458 44.7258 19.651 44.6444 19.6618C44.563 19.6726 44.4781 19.6861 44.3897 19.7021C44.0323 19.7671 43.7905 19.9003 43.6644 20.1019C43.542 20.3028 43.512 20.5743 43.5741 20.9163L43.6946 21.5793L45.107 21.3227L45.2579 22.1528L43.8454 22.4095L44.8238 27.794L43.8207 27.9762ZM50.0034 26.9659C49.4154 27.0728 48.8827 27.0366 48.4055 26.8573C47.9314 26.6735 47.5335 26.3626 47.2117 25.9248C46.8938 25.4863 46.6748 24.9365 46.5547 24.2755L46.5526 24.2639C46.4318 23.5991 46.4431 23.0054 46.5864 22.4831C46.7335 21.9601 46.997 21.5311 47.3768 21.1961C47.7605 20.8604 48.2463 20.6391 48.8343 20.5322C49.4262 20.4247 49.9588 20.4609 50.4322 20.6409C50.9056 20.8209 51.3013 21.1301 51.6192 21.5686C51.9409 22.0064 52.1622 22.5578 52.283 23.2227L52.2851 23.2342C52.4052 23.8953 52.3917 24.4873 52.2446 25.0103C52.1013 25.5326 51.84 25.9632 51.4609 26.3021C51.0811 26.6371 50.5953 26.8584 50.0034 26.9659ZM49.8421 26.0781C50.2341 26.0069 50.5498 25.8543 50.7891 25.6202C51.0285 25.3861 51.1878 25.0832 51.2672 24.7115C51.3504 24.3391 51.3476 23.9088 51.2589 23.4207L51.2568 23.4092C51.1675 22.9172 51.0183 22.5116 50.8094 22.1922C50.6044 21.8721 50.349 21.6466 50.0433 21.5155C49.7369 21.3806 49.3877 21.3488 48.9957 21.42C48.6036 21.4913 48.288 21.6439 48.0486 21.878C47.8085 22.1082 47.6469 22.4095 47.5637 22.782C47.4844 23.1537 47.4894 23.5855 47.5788 24.0775L47.5809 24.089C47.6696 24.5771 47.8165 24.9812 48.0215 25.3013C48.2304 25.6206 48.4881 25.8477 48.7944 25.9826C49.1008 26.1175 49.4501 26.1494 49.8421 26.0781ZM54.4629 26.0425L52.8853 17.3604L53.8884 17.1781L55.466 25.8602L54.4629 26.0425ZM57.4145 25.5061L56.2853 19.2915L57.2884 19.1092L58.4176 25.3239L57.4145 25.5061ZM56.5747 18.0002C56.3864 18.0344 56.2108 17.9968 56.048 17.8875C55.8884 17.7735 55.7914 17.6224 55.7572 17.4341C55.7223 17.2419 55.7599 17.0664 55.87 16.9074C55.9839 16.7477 56.135 16.6508 56.3233 16.6166C56.5155 16.5817 56.691 16.6192 56.85 16.7293C57.009 16.8394 57.1059 16.9905 57.1408 17.1827C57.175 17.371 57.1375 17.5466 57.0281 17.7094C56.918 17.8683 56.7669 17.9653 56.5747 18.0002ZM62.8823 24.6257C62.2943 24.7326 61.7617 24.6964 61.2844 24.5171C60.8103 24.3333 60.4124 24.0224 60.0907 23.5846C59.7728 23.1461 59.5538 22.5963 59.4337 21.9353L59.4316 21.9237C59.3108 21.2588 59.322 20.6652 59.4653 20.1429C59.6125 19.6199 59.8759 19.1909 60.2558 18.8559C60.6394 18.5202 61.1253 18.2989 61.7133 18.192C62.3052 18.0845 62.8378 18.1207 63.3112 18.3007C63.7846 18.4807 64.1802 18.7899 64.4981 19.2284C64.8199 19.6662 65.0411 20.2176 65.162 20.8825L65.1641 20.894C65.2842 21.5551 65.2707 22.1471 65.1235 22.6701C64.9802 23.1924 64.719 23.623 64.3399 23.9619C63.9601 24.2969 63.4742 24.5182 62.8823 24.6257ZM62.721 23.7379C63.113 23.6667 63.4287 23.514 63.6681 23.28C63.9074 23.0459 64.0668 22.743 64.1461 22.3713C64.2293 21.9988 64.2266 21.5686 64.1379 21.0805L64.1358 21.0689C64.0464 20.577 63.8973 20.1714 63.6884 19.852C63.4833 19.5319 63.2279 19.3064 62.9222 19.1753C62.6158 19.0404 62.2666 19.0086 61.8746 19.0798C61.4826 19.1511 61.1669 19.3037 60.9276 19.5378C60.6875 19.768 60.5259 20.0693 60.4427 20.4418C60.3633 20.8135 60.3684 21.2453 60.4577 21.7373L60.4598 21.7488C60.5485 22.2369 60.6954 22.641 60.9005 22.961C61.1094 23.2804 61.367 23.5075 61.6734 23.6424C61.9798 23.7773 62.329 23.8092 62.721 23.7379ZM72.6341 22.7406L71.332 15.5748L71.2397 15.5915L69.4026 17.5094L69.2036 16.4141L71.1282 14.4207L72.1602 14.2332L73.6718 22.5521L72.6341 22.7406Z" fill="#35FDAC"/>
</svg>
