<svg width="20" height="20" viewBox="0 0 20 20" fill="none" xmlns="http://www.w3.org/2000/svg">
<path d="M6.11614 8.40408L10.0001 4.52025L13.8862 8.40613L16.1461 6.14616L10.0001 0L3.85617 6.14411L6.11614 8.40408Z" fill="#F3BA2F"/>
<path d="M4.51997 9.99955L2.26004 7.73961L0 9.99966L2.25993 12.2596L4.51997 9.99955Z" fill="#F3BA2F"/>
<path d="M6.11596 11.5957L9.99995 15.4795L13.8858 11.5938L16.1471 13.8525L16.146 13.8538L9.99995 19.9998L3.85268 13.8527L6.11596 11.5957Z" fill="#F3BA2F"/>
<path d="M17.74 12.2606L20 10.0006L17.7401 7.74067L15.48 10.0007L17.74 12.2606Z" fill="#F3BA2F"/>
<path d="M12.2923 9.99872H12.2933L9.99997 7.70542L7.70557 9.99982L7.70873 10.0031L9.99997 12.2944L12.2933 10.0011L12.2944 9.99982L12.2923 9.99872Z" fill="#F3BA2F"/>
</svg>
