<svg width="17" height="17" viewBox="0 0 17 17" fill="none" xmlns="http://www.w3.org/2000/svg">
<path d="M0 0V16.5307H16.5307V0H0ZM3.576 3.81867C3.576 3.70267 3.67067 3.608 3.78667 3.608H6.49333C6.60933 3.608 6.704 3.70267 6.704 3.81867V6.52533C6.704 6.64267 6.60933 6.73733 6.49333 6.73733H3.78667C3.67067 6.73733 3.576 6.64267 3.576 6.52533V3.81867ZM6.704 12.712C6.704 12.828 6.60933 12.9227 6.49333 12.9227H3.78667C3.67067 12.9227 3.576 12.828 3.576 12.712V10.0053C3.576 9.888 3.67067 9.79333 3.78667 9.79333H6.49333C6.60933 9.79333 6.704 9.888 6.704 10.0053V12.712ZM9.61867 9.82933H6.912C6.796 9.82933 6.7 9.73467 6.7 9.61733V6.91067C6.7 6.79467 6.79467 6.69867 6.912 6.69867H9.61867C9.73467 6.69867 9.83067 6.79333 9.83067 6.91067V9.61733C9.83067 9.73333 9.736 9.82933 9.61867 9.82933ZM12.9587 12.712C12.9587 12.828 12.864 12.9227 12.7467 12.9227H10.04C9.924 12.9227 9.82933 12.828 9.82933 12.712V10.0053C9.82933 9.888 9.924 9.79333 10.04 9.79333H12.7467C12.8627 9.79333 12.9587 9.888 12.9587 10.0053V12.712ZM12.9587 6.524C12.9587 6.64133 12.864 6.736 12.7467 6.736H10.04C9.924 6.736 9.82933 6.64133 9.82933 6.524V3.81733C9.82933 3.70133 9.924 3.60667 10.04 3.60667H12.7467C12.8627 3.60667 12.9587 3.70133 12.9587 3.81733V6.524Z" fill="white"/>
</svg>
