<svg width="216" height="134" viewBox="0 0 216 134" fill="none" xmlns="http://www.w3.org/2000/svg">
<g filter="url(#filter0_d_1_12198)">
<rect x="29" y="17" width="158" height="76" rx="8.2142" fill="#0E1330"/>
<rect x="29" y="17" width="158" height="76" rx="8.2142" stroke="#282D45"/>
</g>
<path d="M105.941 46.0938V44.8281H114.207V46.0938H105.941ZM109.441 49.6719V41.25H110.707V49.6719H109.441ZM116.983 50L122.046 40.0938V39.9844H116.015V38.7266H123.476V40.0312L118.46 50H116.983ZM129.385 50.1875C128.588 50.1875 127.882 50.0495 127.268 49.7734C126.653 49.4974 126.169 49.1172 125.815 48.6328C125.466 48.1432 125.291 47.5833 125.291 46.9531V46.9375C125.291 46.474 125.393 46.0443 125.596 45.6484C125.799 45.2526 126.083 44.9167 126.447 44.6406C126.812 44.3594 127.234 44.1641 127.713 44.0547V44.0234C127.098 43.8307 126.609 43.513 126.244 43.0703C125.88 42.6276 125.697 42.1094 125.697 41.5156V41.5C125.697 40.9323 125.856 40.4271 126.174 39.9844C126.492 39.5365 126.929 39.1849 127.486 38.9297C128.044 38.6693 128.677 38.5391 129.385 38.5391C130.098 38.5391 130.731 38.6693 131.283 38.9297C131.841 39.1849 132.278 39.5365 132.596 39.9844C132.914 40.4271 133.072 40.9323 133.072 41.5V41.5156C133.072 42.1094 132.89 42.6276 132.525 43.0703C132.166 43.513 131.677 43.8307 131.057 44.0234V44.0547C131.541 44.1641 131.963 44.3594 132.322 44.6406C132.687 44.9167 132.971 45.2526 133.174 45.6484C133.377 46.0443 133.479 46.474 133.479 46.9375V46.9531C133.479 47.5833 133.304 48.1432 132.955 48.6328C132.606 49.1172 132.122 49.4974 131.502 49.7734C130.887 50.0495 130.182 50.1875 129.385 50.1875ZM129.385 48.9609C129.906 48.9609 130.364 48.8724 130.76 48.6953C131.161 48.513 131.476 48.2656 131.705 47.9531C131.934 47.6354 132.049 47.2734 132.049 46.8672V46.8516C132.049 46.4401 131.934 46.0755 131.705 45.7578C131.481 45.4401 131.169 45.1901 130.768 45.0078C130.367 44.8255 129.906 44.7344 129.385 44.7344C128.864 44.7344 128.403 44.8255 128.002 45.0078C127.601 45.1901 127.286 45.4401 127.057 45.7578C126.833 46.0755 126.721 46.4401 126.721 46.8516V46.8672C126.721 47.2734 126.835 47.6354 127.065 47.9531C127.294 48.2656 127.609 48.513 128.01 48.6953C128.411 48.8724 128.869 48.9609 129.385 48.9609ZM129.385 43.5C129.838 43.5 130.236 43.4219 130.58 43.2656C130.924 43.1042 131.192 42.8828 131.385 42.6016C131.578 42.3203 131.674 41.9974 131.674 41.6328V41.6172C131.674 41.2526 131.578 40.9297 131.385 40.6484C131.192 40.3672 130.924 40.1484 130.58 39.9922C130.236 39.8307 129.838 39.75 129.385 39.75C128.932 39.75 128.533 39.8307 128.19 39.9922C127.846 40.1484 127.578 40.3672 127.385 40.6484C127.192 40.9297 127.096 41.2526 127.096 41.6172V41.6328C127.096 41.9974 127.192 42.3203 127.385 42.6016C127.578 42.8828 127.846 43.1042 128.19 43.2656C128.533 43.4219 128.932 43.5 129.385 43.5Z" fill="#35FDAC"/>
<path d="M105.898 69V61.9541H108.589C109.041 61.9541 109.435 62.042 109.771 62.2178C110.109 62.3903 110.371 62.6328 110.557 62.9453C110.742 63.2578 110.835 63.6257 110.835 64.0488V64.0586C110.835 64.5469 110.71 64.9701 110.459 65.3281C110.208 65.6862 109.862 65.9352 109.419 66.0752L111.05 69H110.02L108.511 66.2119C108.504 66.2119 108.496 66.2119 108.486 66.2119C108.477 66.2119 108.468 66.2119 108.462 66.2119H106.777V69H105.898ZM106.777 65.4307H108.511C108.963 65.4307 109.312 65.3151 109.556 65.084C109.803 64.8496 109.927 64.5176 109.927 64.0879V64.0781C109.927 63.6582 109.798 63.3294 109.541 63.0918C109.284 62.8542 108.927 62.7354 108.472 62.7354H106.777V65.4307ZM114.326 69.0928C113.825 69.0928 113.394 68.9821 113.032 68.7607C112.674 68.5394 112.397 68.2269 112.202 67.8232C112.01 67.4163 111.914 66.9378 111.914 66.3877V66.3828C111.914 65.8392 112.01 65.3623 112.202 64.9521C112.397 64.542 112.673 64.2214 113.027 63.9902C113.382 63.7591 113.797 63.6436 114.272 63.6436C114.751 63.6436 115.161 63.7542 115.503 63.9756C115.848 64.1969 116.112 64.5062 116.294 64.9033C116.479 65.2972 116.572 65.7562 116.572 66.2803V66.6123H112.354V65.9336H116.138L115.718 66.5537V66.2168C115.718 65.8034 115.656 65.4632 115.532 65.1963C115.409 64.9294 115.238 64.7308 115.02 64.6006C114.801 64.4671 114.551 64.4004 114.268 64.4004C113.984 64.4004 113.73 64.4704 113.506 64.6104C113.285 64.7471 113.109 64.9505 112.979 65.2207C112.848 65.4909 112.783 65.8229 112.783 66.2168V66.5537C112.783 66.9281 112.847 67.2487 112.974 67.5156C113.101 67.7793 113.281 67.9827 113.516 68.126C113.75 68.266 114.027 68.3359 114.346 68.3359C114.583 68.3359 114.79 68.3034 114.966 68.2383C115.142 68.1732 115.286 68.0902 115.4 67.9893C115.514 67.8883 115.594 67.7858 115.64 67.6816L115.659 67.6377H116.509L116.499 67.6768C116.453 67.8558 116.372 68.0299 116.255 68.1992C116.141 68.3652 115.993 68.5166 115.811 68.6533C115.628 68.7868 115.412 68.8942 115.161 68.9756C114.914 69.0537 114.635 69.0928 114.326 69.0928ZM118.242 69V64.4395H117.368V63.7363H118.242V63.1504C118.242 62.7988 118.299 62.5091 118.413 62.2812C118.53 62.0501 118.703 61.8792 118.931 61.7686C119.159 61.6546 119.438 61.5977 119.771 61.5977C119.875 61.5977 119.972 61.6025 120.063 61.6123C120.158 61.6188 120.249 61.6302 120.337 61.6465V62.3252C120.285 62.3154 120.225 62.3089 120.156 62.3057C120.088 62.3024 120.016 62.3008 119.941 62.3008C119.639 62.3008 119.421 62.374 119.287 62.5205C119.157 62.667 119.092 62.8851 119.092 63.1748V63.7363H120.288V64.4395H119.092V69H118.242ZM123.447 69.0928C122.946 69.0928 122.515 68.9821 122.153 68.7607C121.795 68.5394 121.519 68.2269 121.323 67.8232C121.131 67.4163 121.035 66.9378 121.035 66.3877V66.3828C121.035 65.8392 121.131 65.3623 121.323 64.9521C121.519 64.542 121.794 64.2214 122.148 63.9902C122.503 63.7591 122.918 63.6436 123.394 63.6436C123.872 63.6436 124.282 63.7542 124.624 63.9756C124.969 64.1969 125.233 64.5062 125.415 64.9033C125.601 65.2972 125.693 65.7562 125.693 66.2803V66.6123H121.475V65.9336H125.259L124.839 66.5537V66.2168C124.839 65.8034 124.777 65.4632 124.653 65.1963C124.53 64.9294 124.359 64.7308 124.141 64.6006C123.923 64.4671 123.672 64.4004 123.389 64.4004C123.105 64.4004 122.852 64.4704 122.627 64.6104C122.406 64.7471 122.23 64.9505 122.1 65.2207C121.969 65.4909 121.904 65.8229 121.904 66.2168V66.5537C121.904 66.9281 121.968 67.2487 122.095 67.5156C122.222 67.7793 122.402 67.9827 122.637 68.126C122.871 68.266 123.148 68.3359 123.467 68.3359C123.704 68.3359 123.911 68.3034 124.087 68.2383C124.263 68.1732 124.408 68.0902 124.521 67.9893C124.635 67.8883 124.715 67.7858 124.761 67.6816L124.78 67.6377H125.63L125.62 67.6768C125.575 67.8558 125.493 68.0299 125.376 68.1992C125.262 68.3652 125.114 68.5166 124.932 68.6533C124.749 68.7868 124.533 68.8942 124.282 68.9756C124.035 69.0537 123.757 69.0928 123.447 69.0928ZM127.012 69V63.7363H127.861V64.5176H127.939C128.04 64.2409 128.211 64.026 128.452 63.873C128.693 63.7201 128.991 63.6436 129.346 63.6436C129.427 63.6436 129.507 63.6484 129.585 63.6582C129.666 63.6647 129.728 63.6712 129.771 63.6777V64.5029C129.683 64.4867 129.596 64.4753 129.512 64.4688C129.43 64.459 129.342 64.4541 129.248 64.4541C128.978 64.4541 128.739 64.5078 128.53 64.6152C128.322 64.7227 128.158 64.8724 128.037 65.0645C127.92 65.2565 127.861 65.4811 127.861 65.7383V69H127.012ZM130.918 69V63.7363H131.768V64.5176H131.846C131.947 64.2409 132.118 64.026 132.358 63.873C132.599 63.7201 132.897 63.6436 133.252 63.6436C133.333 63.6436 133.413 63.6484 133.491 63.6582C133.573 63.6647 133.634 63.6712 133.677 63.6777V64.5029C133.589 64.4867 133.503 64.4753 133.418 64.4688C133.337 64.459 133.249 64.4541 133.154 64.4541C132.884 64.4541 132.645 64.5078 132.437 64.6152C132.228 64.7227 132.064 64.8724 131.943 65.0645C131.826 65.2565 131.768 65.4811 131.768 65.7383V69H130.918ZM136.729 69.0928C136.227 69.0928 135.796 68.9821 135.435 68.7607C135.076 68.5394 134.8 68.2269 134.604 67.8232C134.412 67.4163 134.316 66.9378 134.316 66.3877V66.3828C134.316 65.8392 134.412 65.3623 134.604 64.9521C134.8 64.542 135.075 64.2214 135.43 63.9902C135.785 63.7591 136.2 63.6436 136.675 63.6436C137.153 63.6436 137.563 63.7542 137.905 63.9756C138.25 64.1969 138.514 64.5062 138.696 64.9033C138.882 65.2972 138.975 65.7562 138.975 66.2803V66.6123H134.756V65.9336H138.54L138.12 66.5537V66.2168C138.12 65.8034 138.058 65.4632 137.935 65.1963C137.811 64.9294 137.64 64.7308 137.422 64.6006C137.204 64.4671 136.953 64.4004 136.67 64.4004C136.387 64.4004 136.133 64.4704 135.908 64.6104C135.687 64.7471 135.511 64.9505 135.381 65.2207C135.251 65.4909 135.186 65.8229 135.186 66.2168V66.5537C135.186 66.9281 135.249 67.2487 135.376 67.5156C135.503 67.7793 135.684 67.9827 135.918 68.126C136.152 68.266 136.429 68.3359 136.748 68.3359C136.986 68.3359 137.192 68.3034 137.368 68.2383C137.544 68.1732 137.689 68.0902 137.803 67.9893C137.917 67.8883 137.996 67.7858 138.042 67.6816L138.062 67.6377H138.911L138.901 67.6768C138.856 67.8558 138.774 68.0299 138.657 68.1992C138.543 68.3652 138.395 68.5166 138.213 68.6533C138.031 68.7868 137.814 68.8942 137.563 68.9756C137.316 69.0537 137.038 69.0928 136.729 69.0928ZM142.236 69.0928C141.794 69.0928 141.406 68.9805 141.074 68.7559C140.742 68.5312 140.485 68.2155 140.303 67.8086C140.12 67.3984 140.029 66.9199 140.029 66.373V66.3633C140.029 65.8132 140.12 65.3346 140.303 64.9277C140.485 64.5208 140.741 64.2051 141.069 63.9805C141.401 63.7559 141.79 63.6436 142.236 63.6436C142.477 63.6436 142.703 63.6826 142.915 63.7607C143.13 63.8356 143.32 63.9414 143.486 64.0781C143.652 64.2148 143.783 64.3776 143.877 64.5664H143.955V61.6465H144.805V69H143.955V68.1602H143.877C143.77 68.3555 143.634 68.5231 143.472 68.6631C143.309 68.7998 143.123 68.9056 142.915 68.9805C142.707 69.0553 142.48 69.0928 142.236 69.0928ZM142.432 68.3408C142.751 68.3408 143.026 68.2611 143.257 68.1016C143.488 67.9421 143.665 67.7158 143.789 67.4229C143.913 67.1266 143.975 66.7767 143.975 66.373V66.3633C143.975 65.9564 143.913 65.6064 143.789 65.3135C143.665 65.0205 143.488 64.7943 143.257 64.6348C143.026 64.4753 142.751 64.3955 142.432 64.3955C142.113 64.3955 141.838 64.4753 141.606 64.6348C141.379 64.791 141.203 65.0156 141.079 65.3086C140.959 65.6016 140.898 65.9531 140.898 66.3633V66.373C140.898 66.7799 140.959 67.1315 141.079 67.4277C141.203 67.7207 141.379 67.9469 141.606 68.1064C141.838 68.2627 142.113 68.3408 142.432 68.3408ZM151.011 69.0928C150.614 69.0928 150.28 69.0179 150.01 68.8682C149.74 68.7152 149.536 68.4938 149.399 68.2041C149.266 67.9111 149.199 67.5579 149.199 67.1445V63.7363H150.049V66.9395C150.049 67.4115 150.14 67.763 150.322 67.9941C150.508 68.2253 150.811 68.3408 151.23 68.3408C151.462 68.3408 151.665 68.3066 151.841 68.2383C152.02 68.1699 152.17 68.0723 152.29 67.9453C152.41 67.8151 152.5 67.6589 152.559 67.4766C152.62 67.291 152.651 67.0827 152.651 66.8516V63.7363H153.501V69H152.651V68.2139H152.573C152.489 68.3994 152.373 68.5589 152.227 68.6924C152.08 68.8226 151.904 68.9219 151.699 68.9902C151.497 69.0586 151.268 69.0928 151.011 69.0928ZM156.895 69.0928C156.504 69.0928 156.159 69.0342 155.859 68.917C155.56 68.7965 155.319 68.6289 155.137 68.4141C154.958 68.1992 154.852 67.9469 154.819 67.6572H155.688C155.76 67.8753 155.9 68.0511 156.108 68.1846C156.317 68.318 156.589 68.3848 156.924 68.3848C157.161 68.3848 157.37 68.3506 157.549 68.2822C157.731 68.2106 157.874 68.1146 157.979 67.9941C158.083 67.8704 158.135 67.7288 158.135 67.5693V67.5596C158.135 67.3805 158.063 67.2292 157.92 67.1055C157.777 66.9785 157.542 66.876 157.217 66.7979L156.401 66.6025C156.073 66.5244 155.802 66.4235 155.591 66.2998C155.379 66.1729 155.223 66.0182 155.122 65.8359C155.021 65.6504 154.971 65.4323 154.971 65.1816V65.1768C154.971 64.8838 155.055 64.6217 155.225 64.3906C155.397 64.1595 155.632 63.9772 155.928 63.8438C156.224 63.7103 156.558 63.6436 156.929 63.6436C157.297 63.6436 157.622 63.7021 157.905 63.8193C158.192 63.9333 158.421 64.096 158.594 64.3076C158.77 64.5192 158.877 64.7682 158.916 65.0547H158.081C158.026 64.8464 157.899 64.6771 157.7 64.5469C157.502 64.4167 157.243 64.3516 156.924 64.3516C156.715 64.3516 156.53 64.3857 156.367 64.4541C156.204 64.5192 156.076 64.6104 155.981 64.7275C155.887 64.8447 155.84 64.9814 155.84 65.1377V65.1475C155.84 65.2646 155.871 65.3688 155.933 65.46C155.994 65.5511 156.09 65.6309 156.221 65.6992C156.351 65.7676 156.519 65.8278 156.724 65.8799L157.534 66.0752C158.029 66.1956 158.397 66.3682 158.638 66.5928C158.882 66.8174 159.004 67.1185 159.004 67.4961V67.5059C159.004 67.8184 158.911 68.0951 158.726 68.3359C158.54 68.5736 158.288 68.7591 157.969 68.8926C157.653 69.026 157.295 69.0928 156.895 69.0928ZM162.471 69.0928C161.969 69.0928 161.538 68.9821 161.177 68.7607C160.819 68.5394 160.542 68.2269 160.347 67.8232C160.155 67.4163 160.059 66.9378 160.059 66.3877V66.3828C160.059 65.8392 160.155 65.3623 160.347 64.9521C160.542 64.542 160.817 64.2214 161.172 63.9902C161.527 63.7591 161.942 63.6436 162.417 63.6436C162.896 63.6436 163.306 63.7542 163.647 63.9756C163.993 64.1969 164.256 64.5062 164.438 64.9033C164.624 65.2972 164.717 65.7562 164.717 66.2803V66.6123H160.498V65.9336H164.282L163.862 66.5537V66.2168C163.862 65.8034 163.8 65.4632 163.677 65.1963C163.553 64.9294 163.382 64.7308 163.164 64.6006C162.946 64.4671 162.695 64.4004 162.412 64.4004C162.129 64.4004 161.875 64.4704 161.65 64.6104C161.429 64.7471 161.253 64.9505 161.123 65.2207C160.993 65.4909 160.928 65.8229 160.928 66.2168V66.5537C160.928 66.9281 160.991 67.2487 161.118 67.5156C161.245 67.7793 161.426 67.9827 161.66 68.126C161.895 68.266 162.171 68.3359 162.49 68.3359C162.728 68.3359 162.935 68.3034 163.11 68.2383C163.286 68.1732 163.431 68.0902 163.545 67.9893C163.659 67.8883 163.739 67.7858 163.784 67.6816L163.804 67.6377H164.653L164.644 67.6768C164.598 67.8558 164.517 68.0299 164.399 68.1992C164.285 68.3652 164.137 68.5166 163.955 68.6533C163.773 68.7868 163.556 68.8942 163.306 68.9756C163.058 69.0537 162.78 69.0928 162.471 69.0928ZM166.035 69V63.7363H166.885V64.5176H166.963C167.064 64.2409 167.235 64.026 167.476 63.873C167.716 63.7201 168.014 63.6436 168.369 63.6436C168.451 63.6436 168.53 63.6484 168.608 63.6582C168.69 63.6647 168.752 63.6712 168.794 63.6777V64.5029C168.706 64.4867 168.62 64.4753 168.535 64.4688C168.454 64.459 168.366 64.4541 168.271 64.4541C168.001 64.4541 167.762 64.5078 167.554 64.6152C167.345 64.7227 167.181 64.8724 167.061 65.0645C166.943 65.2565 166.885 65.4811 166.885 65.7383V69H166.035ZM171.553 69.0928C171.162 69.0928 170.817 69.0342 170.518 68.917C170.218 68.7965 169.977 68.6289 169.795 68.4141C169.616 68.1992 169.51 67.9469 169.478 67.6572H170.347C170.418 67.8753 170.558 68.0511 170.767 68.1846C170.975 68.318 171.247 68.3848 171.582 68.3848C171.82 68.3848 172.028 68.3506 172.207 68.2822C172.389 68.2106 172.533 68.1146 172.637 67.9941C172.741 67.8704 172.793 67.7288 172.793 67.5693V67.5596C172.793 67.3805 172.721 67.2292 172.578 67.1055C172.435 66.9785 172.201 66.876 171.875 66.7979L171.06 66.6025C170.731 66.5244 170.461 66.4235 170.249 66.2998C170.037 66.1729 169.881 66.0182 169.78 65.8359C169.679 65.6504 169.629 65.4323 169.629 65.1816V65.1768C169.629 64.8838 169.714 64.6217 169.883 64.3906C170.055 64.1595 170.29 63.9772 170.586 63.8438C170.882 63.7103 171.216 63.6436 171.587 63.6436C171.955 63.6436 172.28 63.7021 172.563 63.8193C172.85 63.9333 173.079 64.096 173.252 64.3076C173.428 64.5192 173.535 64.7682 173.574 65.0547H172.739C172.684 64.8464 172.557 64.6771 172.358 64.5469C172.16 64.4167 171.901 64.3516 171.582 64.3516C171.374 64.3516 171.188 64.3857 171.025 64.4541C170.863 64.5192 170.734 64.6104 170.64 64.7275C170.545 64.8447 170.498 64.9814 170.498 65.1377V65.1475C170.498 65.2646 170.529 65.3688 170.591 65.46C170.653 65.5511 170.749 65.6309 170.879 65.6992C171.009 65.7676 171.177 65.8278 171.382 65.8799L172.192 66.0752C172.687 66.1956 173.055 66.3682 173.296 66.5928C173.54 66.8174 173.662 67.1185 173.662 67.4961V67.5059C173.662 67.8184 173.569 68.0951 173.384 68.3359C173.198 68.5736 172.946 68.7591 172.627 68.8926C172.311 69.026 171.953 69.0928 171.553 69.0928Z" fill="white"/>
<path fill-rule="evenodd" clip-rule="evenodd" d="M67 77C79.1503 77 89 67.1503 89 55C89 42.8497 79.1503 33 67 33C54.8497 33 45 42.8497 45 55C45 67.1503 54.8497 77 67 77Z" fill="#0E1330" stroke="#544FFD"/>
<path fill-rule="evenodd" clip-rule="evenodd" d="M65.2718 57.9C68.6534 57.9 71.5437 58.4564 71.5437 60.6787C71.5437 62.9011 68.6727 63.4734 65.2718 63.4734C61.8893 63.4734 59 62.922 59 60.6986C59 58.4753 61.8701 57.9 65.2718 57.9Z" stroke="#544FFD" stroke-linecap="round" stroke-linejoin="round"/>
<path fill-rule="evenodd" clip-rule="evenodd" d="M65.2718 54.7282C63.0517 54.7282 61.2513 52.7746 61.2513 50.3641C61.2513 47.9537 63.0517 46 65.2718 46C67.4911 46 69.2914 47.9537 69.2914 50.3641C69.2997 52.7656 67.5122 54.7193 65.3003 54.7282H65.2718Z" stroke="#544FFD" stroke-linecap="round" stroke-linejoin="round"/>
<path d="M71.5891 53.5955C73.0567 53.3716 74.1869 52.0041 74.1897 50.349C74.1897 48.7178 73.0943 47.3643 71.6579 47.1085" stroke="#544FFD" stroke-linecap="round" stroke-linejoin="round"/>
<path d="M73.5254 57.4277C74.9471 57.6576 75.9399 58.199 75.9399 59.3137C75.9399 60.081 75.4724 60.5787 74.7171 60.8902" stroke="#544FFD" stroke-linecap="round" stroke-linejoin="round"/>
<defs>
<filter id="filter0_d_1_12198" x="0.497034" y="0.703455" width="215.006" height="133.006" filterUnits="userSpaceOnUse" color-interpolation-filters="sRGB">
<feFlood flood-opacity="0" result="BackgroundImageFix"/>
<feColorMatrix in="SourceAlpha" type="matrix" values="0 0 0 0 0 0 0 0 0 0 0 0 0 0 0 0 0 0 127 0" result="hardAlpha"/>
<feOffset dy="12.2064"/>
<feGaussianBlur stdDeviation="14.0015"/>
<feColorMatrix type="matrix" values="0 0 0 0 0 0 0 0 0 0 0 0 0 0 0 0 0 0 0.05 0"/>
<feBlend mode="normal" in2="BackgroundImageFix" result="effect1_dropShadow_1_12198"/>
<feBlend mode="normal" in="SourceGraphic" in2="effect1_dropShadow_1_12198" result="shape"/>
</filter>
</defs>
</svg>
