<svg width="44" height="23" viewBox="0 0 44 23" fill="none" xmlns="http://www.w3.org/2000/svg">
<g clip-path="url(#clip0_1_12223)">
<rect y="7.25195" width="41" height="16" rx="8" transform="rotate(-10.1876 0 7.25195)" fill="#35FDAC" fill-opacity="0.1"/>
<path d="M9.63417 16.4717L8.78498 11.7463L9.72518 11.5773L10.5744 16.3028L9.63417 16.4717ZM7.40287 14.9172L7.23454 13.9805L11.96 13.1313L12.1283 14.068L7.40287 14.9172ZM15.7167 9.23059L17.0031 16.3887L15.9196 16.5834L14.8279 10.5088L14.786 10.5163L13.2744 11.9425L13.0884 10.908L14.6647 9.41965L15.7167 9.23059ZM21.3197 15.714C20.8816 15.7927 20.4728 15.7796 20.0931 15.6746C19.7153 15.5669 19.3962 15.3837 19.1356 15.1251C18.8751 14.8664 18.7037 14.5484 18.6214 14.1711L19.67 13.9827C19.7509 14.2857 19.9326 14.514 20.2152 14.6677C20.4978 14.8213 20.8115 14.8672 21.1564 14.8052C21.4313 14.7558 21.6635 14.6491 21.8529 14.4852C22.0443 14.3185 22.1804 14.1125 22.2614 13.867C22.3447 13.6211 22.3606 13.3549 22.3091 13.0683C22.2567 12.777 22.1471 12.5285 21.9803 12.3228C21.8134 12.117 21.6076 11.9688 21.3628 11.8781C21.1203 11.787 20.8567 11.7658 20.572 11.8145C20.3553 11.8535 20.1442 11.9299 19.9385 12.0438C19.7329 12.1578 19.5734 12.2875 19.46 12.4329L18.4445 12.4639L18.1983 8.78464L22.1338 8.0774L22.3003 9.00362L19.263 9.54943L19.3957 11.593L19.4376 11.5854C19.5531 11.4252 19.7181 11.2789 19.9324 11.1465C20.1491 11.0138 20.3903 10.9236 20.6559 10.8758C21.0916 10.7975 21.4982 10.8315 21.8757 10.9777C22.2555 11.1236 22.5755 11.3583 22.8357 11.682C23.0978 12.0029 23.2694 12.3954 23.3504 12.8595C23.436 13.3228 23.4055 13.7552 23.2588 14.1568C23.1144 14.558 22.8746 14.8969 22.5395 15.1736C22.2063 15.4476 21.7997 15.6277 21.3197 15.714ZM27.5562 14.6149C27.0035 14.7118 26.5055 14.6509 26.0621 14.4324C25.6187 14.2138 25.2437 13.847 24.9371 13.332C24.6305 12.8171 24.4073 12.1705 24.2674 11.3922C24.128 10.6163 24.1125 9.93473 24.2211 9.34756C24.332 8.75997 24.5572 8.28654 24.8967 7.92726C25.2386 7.56756 25.6833 7.33851 26.2309 7.24011C26.7785 7.14171 27.2741 7.20297 27.7179 7.42388C28.1613 7.64247 28.5361 8.00808 28.8423 8.52071C29.1504 9.0306 29.3742 9.67351 29.5136 10.4494C29.6539 11.23 29.67 11.9151 29.5618 12.5046C29.4533 13.0917 29.2294 13.5661 28.8903 13.9277C28.5508 14.287 28.1061 14.5161 27.5562 14.6149ZM27.3885 13.6817C27.8731 13.5946 28.2093 13.29 28.3969 12.768C28.5868 12.2456 28.6014 11.537 28.4406 10.6423C28.3338 10.0481 28.1807 9.55725 27.9812 9.16976C27.7836 8.77953 27.5492 8.49933 27.2781 8.32916C27.0089 8.15625 26.7147 8.09847 26.3954 8.15584C25.9131 8.24252 25.5772 8.54823 25.3877 9.07298C25.1981 9.59773 25.1824 10.3065 25.3404 11.1994C25.4476 11.7959 25.6 12.2893 25.7976 12.6795C25.9972 13.067 26.2313 13.346 26.5001 13.5166C26.7685 13.6848 27.0646 13.7399 27.3885 13.6817ZM33.7658 14.2999L32.1579 5.35237L32.7311 5.24936L34.339 14.1969L33.7658 14.2999ZM34.4496 7.8053C34.3529 7.48113 34.153 7.25245 33.8501 7.11928C33.5467 6.98377 33.19 6.95287 32.7799 7.02657C32.4863 7.07933 32.2407 7.17157 32.043 7.3033C31.845 7.43269 31.701 7.58846 31.6111 7.77059C31.523 7.94997 31.4972 8.14103 31.5337 8.34374C31.5642 8.51384 31.6302 8.65352 31.7316 8.76278C31.8354 8.87162 31.96 8.95625 32.1056 9.01669C32.2531 9.07438 32.4076 9.11757 32.5691 9.14628C32.7301 9.17265 32.8837 9.19075 33.0298 9.20058L33.7615 9.25671C33.9999 9.27159 34.2477 9.30524 34.5049 9.35764C34.762 9.41005 35.0072 9.49589 35.2403 9.61515C35.4734 9.73442 35.6736 9.89809 35.8408 10.1062C36.0105 10.3138 36.1242 10.5784 36.1819 10.9C36.2548 11.3054 36.2146 11.6842 36.0615 12.0365C35.9106 12.3883 35.6535 12.6907 35.29 12.9436C34.9289 13.1962 34.4687 13.3727 33.9095 13.4732C33.3736 13.5695 32.8946 13.5677 32.4726 13.468C32.0505 13.3682 31.7008 13.1821 31.4233 12.9097C31.1454 12.6349 30.9561 12.2841 30.8553 11.8572L31.9388 11.6625C32.0063 11.9173 32.1289 12.1178 32.3067 12.2639C32.4864 12.4072 32.6991 12.5 32.9448 12.5424C33.1925 12.5821 33.455 12.5771 33.7323 12.5272C34.0375 12.4724 34.3004 12.3758 34.5209 12.2376C34.7433 12.0966 34.9078 11.9275 35.0142 11.7304C35.1203 11.5309 35.1524 11.3147 35.1105 11.0817C35.0724 10.8696 34.9807 10.7069 34.8352 10.5936C34.6921 10.4798 34.51 10.397 34.2891 10.3453C34.0705 10.2932 33.8269 10.2564 33.5585 10.2349L32.6712 10.1562C32.0699 10.1031 31.5743 9.95524 31.1843 9.71262C30.7967 9.46959 30.5581 9.09875 30.4685 8.60011C30.3943 8.18768 30.4415 7.80758 30.6099 7.45981C30.7783 7.11204 31.0383 6.81877 31.3899 6.58C31.741 6.3389 32.1566 6.17522 32.6366 6.08897C33.1213 6.00187 33.5641 6.01008 33.9652 6.1136C34.3686 6.2167 34.7042 6.39811 34.9722 6.65784C35.2398 6.91524 35.4127 7.23534 35.4912 7.61813L34.4496 7.8053Z" fill="#35FDAC"/>
</g>
<defs>
<clipPath id="clip0_1_12223">
<rect y="7.25195" width="41" height="16" rx="8" transform="rotate(-10.1876 0 7.25195)" fill="white"/>
</clipPath>
</defs>
</svg>
