<svg width="105" height="125" viewBox="0 0 105 125" fill="none" xmlns="http://www.w3.org/2000/svg">
<rect x="0.28657" y="14.1993" width="87.5" height="111.5" rx="5.75" transform="rotate(-9.14883 0.28657 14.1993)" fill="#0E1330" stroke="#282D45" stroke-width="0.5"/>
<path d="M41.8587 89.0378L41.7047 88.0814L44.8128 83.4027C45.2031 82.8123 45.505 82.3284 45.7186 81.9511C45.9313 81.5687 46.0697 81.2325 46.1338 80.9426C46.1979 80.6527 46.2039 80.3457 46.1517 80.0218L46.1492 80.0064C46.0863 79.6156 45.9451 79.2796 45.7257 78.9984C45.5063 78.7172 45.2253 78.5118 44.8827 78.3824C44.54 78.2529 44.1502 78.2234 43.7131 78.2938C43.2709 78.365 42.8976 78.5201 42.5931 78.759C42.2879 78.9928 42.0692 79.2892 41.9371 79.6481C41.8041 80.0018 41.7729 80.3973 41.8433 80.8343L41.838 80.851L40.5101 81.057L40.4935 81.0517C40.3926 80.3927 40.458 79.7834 40.6897 79.2238C40.9206 78.6591 41.2879 78.1885 41.7917 77.8119C42.2947 77.4302 42.901 77.1822 43.6106 77.0679C44.2585 76.9636 44.8641 77.0058 45.4273 77.1947C45.9898 77.3785 46.4578 77.6803 46.8314 78.1002C47.2101 78.5193 47.4479 79.0296 47.5448 79.6312L47.5473 79.6467C47.6152 80.0683 47.6061 80.4866 47.5199 80.9014C47.4388 81.3154 47.2517 81.7913 46.9585 82.3291C46.6644 82.8618 46.2365 83.5295 45.6747 84.3321L43.276 87.765L43.5199 87.0689L43.623 87.7091L43.2464 87.5324L48.8615 86.6281L49.0628 87.8776L41.8587 89.0378ZM53.198 75.5239C53.7071 75.4419 54.2242 75.4589 54.7493 75.5748C55.2795 75.6898 55.7804 75.9336 56.2519 76.3061C56.7285 76.6777 57.1456 77.2041 57.5032 77.885C57.86 78.5608 58.1229 79.4233 58.2918 80.4722L58.2943 80.4877C58.498 81.7526 58.5026 82.8624 58.3082 83.8169C58.1129 84.7662 57.735 85.5314 57.1744 86.1123C56.6129 86.688 55.8823 87.0484 54.9824 87.1933C54.3602 87.2935 53.7789 87.2711 53.2386 87.126C52.7025 86.9749 52.2343 86.7206 51.8338 86.3631C51.4333 86.0055 51.1249 85.5646 50.9086 85.0402L50.8693 84.9437L52.2653 84.7188L52.3099 84.7987C52.4727 85.089 52.6751 85.3307 52.9173 85.5239C53.1645 85.7162 53.4446 85.8504 53.7576 85.9266C54.0757 86.002 54.4225 86.0095 54.7978 85.949C55.4715 85.8405 55.9876 85.5569 56.3463 85.0982C56.7042 84.6344 56.9334 84.0594 57.0339 83.3732C57.1344 82.687 57.1354 81.9562 57.0369 81.1808C57.0305 81.108 57.0219 81.0381 57.0111 80.9713C56.9995 80.8993 56.9883 80.8299 56.9776 80.763L56.3478 78.9653C56.2691 78.4768 56.0848 78.0528 55.7947 77.6933C55.5099 77.333 55.1585 77.0677 54.7408 76.8976C54.3273 76.7215 53.884 76.6716 53.411 76.7478C52.9482 76.8223 52.5452 77.0059 52.2019 77.2986C51.8578 77.5861 51.6041 77.9435 51.4408 78.3707C51.2767 78.7928 51.2335 79.2456 51.3114 79.7289L51.3139 79.7443C51.3934 80.238 51.5721 80.6602 51.8502 81.0111C52.1275 81.3568 52.4716 81.61 52.8826 81.7707C53.2927 81.9262 53.7369 81.9655 54.2151 81.8884C54.6985 81.8106 55.113 81.6331 55.4587 81.3558C55.8045 81.0786 56.0577 80.7344 56.2183 80.3235C56.3833 79.9065 56.4269 79.4564 56.349 78.973L56.3478 78.9653L56.8029 78.892L57.1258 80.8974L56.8559 80.9409C56.771 81.2658 56.6109 81.5817 56.3755 81.8887C56.1452 82.1948 55.8449 82.4595 55.4746 82.6827C55.1095 82.905 54.675 83.0568 54.171 83.1379C53.4769 83.2497 52.8286 83.1879 52.2262 82.9526C51.6238 82.7173 51.1181 82.345 50.709 81.8359C50.2991 81.3216 50.037 80.7096 49.9228 80L49.9203 79.9846C49.801 79.2441 49.8621 78.559 50.1036 77.9293C50.3494 77.2936 50.7389 76.764 51.2721 76.3405C51.8105 75.9162 52.4524 75.644 53.198 75.5239ZM65.2824 85.4554C64.4957 85.5821 63.777 85.558 63.1263 85.3832C62.4757 85.2084 61.937 84.91 61.5103 84.4881C61.088 84.0603 60.8267 83.5352 60.7265 82.9131L60.724 82.8976C60.6503 82.44 60.6822 81.9996 60.8199 81.5765C60.9575 81.1534 61.1843 80.7766 61.5003 80.4461C61.8156 80.1105 62.201 79.8506 62.6567 79.6664L62.6517 79.6356C62.0143 79.543 61.4805 79.3072 61.0501 78.9281C60.6198 78.549 60.3574 78.0663 60.263 77.4801L60.2605 77.4647C60.1703 76.9042 60.2468 76.3802 60.49 75.8926C60.7325 75.3999 61.1085 74.9832 61.6181 74.6426C62.1269 74.2969 62.731 74.0677 63.4303 73.9551C64.1348 73.8417 64.7803 73.8696 65.3667 74.0389C65.9575 74.2023 66.4453 74.4798 66.8302 74.8715C67.2143 75.2581 67.4514 75.7316 67.5417 76.2921L67.5442 76.3075C67.6386 76.8937 67.541 77.4343 67.2515 77.9294C66.9671 78.4236 66.5342 78.8151 65.9529 79.1039L65.9579 79.1348C66.4535 79.1657 66.9011 79.2915 67.3006 79.512C67.7044 79.7266 68.0381 80.0131 68.3016 80.3716C68.5651 80.7301 68.7336 81.1382 68.8073 81.5958L68.8098 81.6112C68.91 82.2334 68.8268 82.8139 68.5601 83.3528C68.2926 83.8865 67.8749 84.3389 67.3068 84.7099C66.744 85.0802 66.0692 85.3287 65.2824 85.4554ZM65.0874 84.2444C65.6016 84.1616 66.04 84.0013 66.4027 83.7635C66.7696 83.5198 67.0414 83.2255 67.218 82.8805C67.3937 82.5304 67.4493 82.1548 67.3847 81.7537L67.3822 81.7383C67.3168 81.3321 67.1457 80.9903 66.8689 80.7131C66.5973 80.4351 66.249 80.2379 65.8241 80.1217C65.3992 80.0055 64.9296 79.9888 64.4154 80.0716C63.9012 80.1544 63.4606 80.3177 63.0936 80.5614C62.7267 80.8052 62.4553 81.1021 62.2796 81.4522C62.109 81.8015 62.0564 82.1792 62.1218 82.5855L62.1243 82.6009C62.1889 83.002 62.3596 83.3411 62.6364 83.6184C62.9123 83.8904 63.2627 84.0846 63.6877 84.2008C64.1118 84.3119 64.5783 84.3264 65.0874 84.2444ZM64.2191 78.8529C64.6665 78.7809 65.0474 78.6404 65.362 78.4315C65.6757 78.2174 65.9053 77.9563 66.0508 77.6479C66.1964 77.3396 66.2401 77.0055 66.1822 76.6456L66.1797 76.6301C66.1217 76.2702 65.9752 75.9667 65.7403 75.7197C65.5053 75.4726 65.2057 75.2993 64.8415 75.1997C64.4764 75.095 64.0702 75.0786 63.6229 75.1507C63.1755 75.2227 62.795 75.3658 62.4813 75.5798C62.1667 75.7887 61.9367 76.0473 61.7912 76.3557C61.6456 76.664 61.6018 76.9981 61.6598 77.358L61.6623 77.3735C61.7203 77.7334 61.8667 78.0369 62.1017 78.2839C62.3367 78.531 62.6367 78.7069 63.0017 78.8116C63.366 78.9112 63.7718 78.925 64.2191 78.8529Z" fill="#9AE3FF"/>
<path d="M42.1862 108.115C41.4323 108.249 40.749 108.187 40.1364 107.93C39.5237 107.674 39.0099 107.247 38.5949 106.65C38.1837 106.052 37.8992 105.307 37.7414 104.415L37.7394 104.403C37.5808 103.507 37.5922 102.708 37.7734 102.005C37.9585 101.302 38.2928 100.725 38.7764 100.275C39.2639 99.8237 39.8846 99.5314 40.6385 99.3981C41.2232 99.2947 41.7744 99.3162 42.2922 99.4626C42.8132 99.6045 43.2655 99.8518 43.6492 100.204C44.0322 100.553 44.311 100.986 44.4857 101.502L44.4819 101.515L43.4376 101.7L43.4298 101.689C43.2742 101.348 43.064 101.068 42.7992 100.849C42.5336 100.626 42.2306 100.471 41.89 100.385C41.5533 100.297 41.1926 100.288 40.8079 100.356C40.2771 100.45 39.84 100.67 39.4966 101.016C39.1571 101.362 38.9265 101.807 38.8047 102.352C38.6829 102.898 38.6836 103.518 38.8068 104.215L38.8088 104.226C38.9313 104.918 39.1432 105.5 39.4445 105.97C39.7459 106.44 40.1153 106.78 40.5528 106.988C40.9941 107.196 41.4821 107.252 42.0168 107.157C42.4053 107.089 42.7464 106.965 43.04 106.786C43.333 106.603 43.5668 106.378 43.7414 106.109C43.9153 105.836 44.0163 105.532 44.0445 105.198L44.054 105.185L45.1041 104.999L45.1061 105.01C45.1036 105.535 44.9818 106.012 44.7408 106.444C44.499 106.871 44.16 107.231 43.7236 107.522C43.291 107.813 42.7786 108.011 42.1862 108.115ZM49.7063 106.696C49.1178 106.8 48.5853 106.761 48.1089 106.58C47.6357 106.394 47.2392 106.081 46.9196 105.642C46.6037 105.202 46.3873 104.651 46.2703 103.989L46.2683 103.978C46.1506 103.312 46.1646 102.719 46.3103 102.197C46.4599 101.675 46.7254 101.247 47.1068 100.914C47.4921 100.58 47.9789 100.361 48.5675 100.257C49.1598 100.152 49.6923 100.191 50.1648 100.373C50.6374 100.555 51.0316 100.866 51.3474 101.306C51.6671 101.746 51.8858 102.298 52.0035 102.963L52.0055 102.975C52.1225 103.637 52.1062 104.229 51.9566 104.751C51.8109 105.273 51.5476 105.702 51.1669 106.039C50.7856 106.372 50.2987 106.591 49.7063 106.696ZM49.5492 105.807C49.9415 105.738 50.2579 105.587 50.4983 105.354C50.7388 105.121 50.8996 104.819 50.9807 104.447C51.0656 104.075 51.0649 103.645 50.9785 103.157L50.9764 103.145C50.8894 102.653 50.7421 102.246 50.5347 101.926C50.3312 101.605 50.0769 101.378 49.7718 101.246C49.466 101.109 49.117 101.076 48.7246 101.145C48.3323 101.215 48.0159 101.366 47.7754 101.599C47.5343 101.828 47.3712 102.129 47.2863 102.501C47.2052 102.872 47.2082 103.304 47.2953 103.796L47.2973 103.808C47.3837 104.296 47.5287 104.701 47.7323 105.022C47.9396 105.342 48.1962 105.571 48.502 105.707C48.8077 105.843 49.1568 105.877 49.5492 105.807ZM54.4797 107.881L53.0123 99.5838L54.0163 99.4062L54.1918 100.399L54.2841 100.382C54.3702 100.129 54.4951 99.9047 54.6589 99.7091C54.822 99.5097 55.0188 99.3439 55.2493 99.2119C55.4798 99.0799 55.7394 98.9884 56.0278 98.9374C56.5548 98.8442 57.0364 98.8979 57.4725 99.0984C57.9118 99.2944 58.2817 99.6138 58.5821 100.057C58.8825 100.499 59.0899 101.044 59.2042 101.69L59.2062 101.701C59.3212 102.352 59.3135 102.936 59.1832 103.455C59.0528 103.974 58.8149 104.401 58.4695 104.736C58.1279 105.07 57.6937 105.283 57.1667 105.377C56.882 105.427 56.605 105.43 56.3354 105.387C56.0691 105.339 55.8235 105.251 55.5988 105.124C55.3779 104.997 55.19 104.832 55.0352 104.629L54.9428 104.645L55.4837 107.703L54.4797 107.881ZM56.7787 104.529C57.1596 104.461 57.4683 104.312 57.7049 104.079C57.9408 103.843 58.0993 103.54 58.1804 103.168C58.2646 102.792 58.2643 102.364 58.1792 101.883L58.1772 101.872C58.0915 101.387 57.9449 100.984 57.7375 100.664C57.534 100.343 57.2812 100.114 56.9793 99.977C56.6767 99.8362 56.335 99.7994 55.9542 99.8668C55.5772 99.9334 55.2689 100.085 55.0291 100.322C54.7893 100.559 54.627 100.863 54.542 101.235C54.4571 101.607 54.4571 102.034 54.5422 102.514L54.5442 102.526C54.6286 103.003 54.7748 103.404 54.9829 103.728C55.1903 104.048 55.4472 104.278 55.7536 104.419C56.0601 104.559 56.4018 104.595 56.7787 104.529ZM61.3477 104.524L60.2477 98.3041L61.2516 98.1265L62.3517 104.346L61.3477 104.524ZM60.5432 97.0142C60.3547 97.0475 60.1793 97.0091 60.017 96.899C59.8579 96.7843 59.7617 96.6327 59.7283 96.4443C59.6943 96.2519 59.7327 96.0765 59.8435 95.9181C59.9582 95.759 60.1098 95.6628 60.2982 95.6294C60.4906 95.5954 60.6659 95.6338 60.8244 95.7446C60.9828 95.8554 61.0791 96.007 61.1131 96.1993C61.1464 96.3878 61.108 96.5632 60.9979 96.7255C60.8871 96.8839 60.7355 96.9802 60.5432 97.0142ZM66.8023 103.672C66.2099 103.777 65.6771 103.736 65.2039 103.55C64.7345 103.364 64.3423 103.052 64.0271 102.616C63.7151 102.175 63.5016 101.63 63.3867 100.98L63.3856 100.974C63.272 100.332 63.2858 99.7482 63.4271 99.2234C63.5721 98.6979 63.8302 98.2616 64.2011 97.9143C64.5721 97.567 65.0384 97.3437 65.6 97.2444C66.1654 97.1444 66.6732 97.1895 67.1234 97.3796C67.5774 97.5691 67.9536 97.8794 68.252 98.3106C68.5535 98.7372 68.7591 99.2602 68.8686 99.8795L68.938 100.272L63.9529 101.154L63.811 100.352L68.2827 99.5606L67.9161 100.381L67.8456 99.9831C67.7592 99.4945 67.6151 99.1055 67.4131 98.8159C67.2112 98.5264 66.9677 98.3275 66.6828 98.2192C66.3972 98.107 66.087 98.0806 65.7524 98.1398C65.4177 98.199 65.1323 98.3347 64.8962 98.5471C64.6632 98.7549 64.498 99.032 64.4006 99.3785C64.3032 99.725 64.2957 100.131 64.378 100.596L64.4484 100.994C64.5266 101.437 64.6686 101.802 64.8744 102.091C65.0796 102.376 65.3356 102.579 65.6425 102.699C65.9487 102.816 66.2902 102.841 66.6672 102.774C66.948 102.724 67.1855 102.643 67.3796 102.529C67.5737 102.415 67.7275 102.287 67.841 102.144C67.9546 102.001 68.0274 101.863 68.0595 101.73L68.0734 101.674L69.0773 101.497L69.0739 101.545C69.0575 101.766 68.9977 101.989 68.8946 102.213C68.7947 102.433 68.6513 102.643 68.4645 102.843C68.277 103.039 68.0436 103.211 67.7645 103.359C67.4884 103.503 67.1677 103.608 66.8023 103.672ZM70.9949 102.818L69.8948 96.5979L70.8988 96.4203L71.062 97.3435L71.1544 97.3272C71.2158 96.9791 71.3728 96.6895 71.6255 96.4584C71.8782 96.2273 72.2141 96.0746 72.6334 96.0005C72.7296 95.9835 72.8248 95.9726 72.9192 95.9678C73.0167 95.9585 73.0912 95.9532 73.1425 95.9521L73.315 96.9272C73.2077 96.9263 73.1034 96.9309 73.002 96.9409C72.9038 96.9463 72.799 96.9589 72.6874 96.9787C72.3681 97.0351 72.0966 97.1486 71.8729 97.3191C71.6492 97.4896 71.4862 97.7008 71.384 97.953C71.2857 98.2044 71.2634 98.4821 71.3172 98.7859L71.9988 102.64L70.9949 102.818ZM77.5342 101.774C77.0726 101.856 76.6526 101.859 76.2742 101.783C75.8952 101.703 75.5755 101.555 75.3152 101.34C75.0587 101.123 74.881 100.847 74.782 100.512L75.809 100.33C75.9392 100.573 76.1414 100.751 76.4154 100.865C76.6895 100.98 77.0246 101.002 77.4208 100.931C77.7016 100.882 77.9407 100.798 78.1379 100.68C78.3384 100.557 78.4876 100.414 78.5855 100.249C78.6827 100.082 78.7147 99.9033 78.6813 99.7149L78.6793 99.7033C78.6419 99.4918 78.5256 99.3279 78.3305 99.2116C78.1347 99.0915 77.8363 99.0194 77.4354 98.9951L76.431 98.9347C76.0262 98.9111 75.6858 98.8483 75.4099 98.7464C75.1334 98.6406 74.9164 98.4905 74.7591 98.2962C74.6011 98.098 74.4959 97.8509 74.4435 97.5547L74.4424 97.5489C74.3812 97.2027 74.4265 96.8754 74.5782 96.5669C74.7337 96.2577 74.9726 95.9933 75.2947 95.7737C75.6169 95.5541 75.9972 95.4055 76.4357 95.328C76.8704 95.2511 77.2673 95.2523 77.6264 95.3316C77.9887 95.4063 78.2939 95.5507 78.542 95.7647C78.794 95.978 78.9729 96.2498 79.079 96.5801L78.0923 96.7546C77.9834 96.52 77.798 96.3465 77.5361 96.2342C77.2743 96.1218 76.9549 96.0989 76.5779 96.1656C76.3317 96.2092 76.1196 96.2883 75.9416 96.4031C75.7629 96.5141 75.63 96.6486 75.5429 96.8068C75.4559 96.965 75.4287 97.1365 75.4613 97.3211L75.4634 97.3326C75.4878 97.4711 75.5462 97.5877 75.6383 97.6825C75.7304 97.7773 75.8606 97.8515 76.0287 97.905C76.1969 97.9586 76.4075 97.9947 76.6608 98.0134L77.6594 98.0748C78.2692 98.1137 78.7399 98.2407 79.0715 98.4558C79.407 98.6702 79.6141 99.0005 79.6931 99.4467L79.6951 99.4582C79.7604 99.8275 79.7086 100.174 79.5397 100.497C79.3701 100.817 79.1108 101.089 78.7617 101.313C78.4165 101.537 78.0073 101.691 77.5342 101.774Z" fill="#8F9BB7"/>
<path fill-rule="evenodd" clip-rule="evenodd" d="M52.9225 65.8743C64.9182 63.9424 73.0765 52.6519 71.1446 40.6562C69.2127 28.6605 57.9222 20.5021 45.9265 22.434C33.9308 24.3659 25.7725 35.6564 27.7043 47.6521C29.6362 59.6478 40.9268 67.8062 52.9225 65.8743Z" fill="#9AE3FF" stroke="#9AE3FF"/>
<path d="M53.7216 47.2607L57.1771 46.7042C57.7223 46.6164 58.0931 46.1032 58.0053 45.5579L56.4153 35.6851C56.3275 35.1399 55.8143 34.769 55.2691 34.8568L45.3963 36.4468C44.851 36.5346 44.4802 37.0479 44.568 37.5931L45.1245 41.0486" stroke="#060B27" stroke-width="1.5" stroke-linecap="round" stroke-linejoin="round"/>
<path d="M51.5418 40.0152L41.669 41.6052C41.1238 41.693 40.7529 42.2062 40.8408 42.7514L42.4308 52.6242C42.5186 53.1695 43.0318 53.5403 43.577 53.4525L53.4498 51.8625C53.9951 51.7747 54.3659 51.2615 54.2781 50.7162L52.6881 40.8434C52.6003 40.2982 52.0871 39.9274 51.5418 40.0152Z" stroke="#060B27" stroke-width="1.5" stroke-linecap="round" stroke-linejoin="round"/>
</svg>
